SplineFontDB: 3.0
FontName: Untitled2
FullName: Untitled2
FamilyName: Untitled2
Weight: Regular
Copyright: Copyright (c) 2018, lumin,,,
UComments: "2018-9-16: Created with FontForge (http://fontforge.org)"
Version: 001.000
ItalicAngle: 0
UnderlinePosition: -100
UnderlineWidth: 50
Ascent: 800
Descent: 200
InvalidEm: 0
LayerCount: 2
Layer: 0 0 "Back" 1
Layer: 1 0 "Fore" 0
XUID: [1021 680 -895765140 14730867]
OS2Version: 0
OS2_WeightWidthSlopeOnly: 0
OS2_UseTypoMetrics: 1
CreationTime: 1537063540
ModificationTime: 1537063555
OS2TypoAscent: 0
OS2TypoAOffset: 1
OS2TypoDescent: 0
OS2TypoDOffset: 1
OS2TypoLinegap: 0
OS2WinAscent: 0
OS2WinAOffset: 1
OS2WinDescent: 0
OS2WinDOffset: 1
HheadAscent: 0
HheadAOffset: 1
HheadDescent: 0
HheadDOffset: 1
OS2Vendor: 'PfEd'
DEI: 91125
Encoding: Custom
UnicodeInterp: none
NameList: AGL For New Fonts
DisplaySize: -48
AntiAlias: 1
FitToEm: 0
BeginChars: 512 255

StartChar: glyph1
Encoding: 257 1093377 0
Width: 0
VWidth: 0
Flags: H
LayerCount: 2
Fore
SplineSet
249.5 -200 m 1
 249.5 -200.5 l 1
 250 -200.5 l 1
 500 -200.5 l 1
 500.5 -200.5 l 1
 500.5 -200 l 1
 500.5 50 l 1
 500.5 50.5 l 1
 500 50.5 l 1
 250 50.5 l 1
 249.5 50.5 l 1
 249.5 50 l 1
 249.5 -200 l 1
250.5 -199.5 m 1
 250.5 49.5 l 1
 499.5 49.5 l 1
 499.5 -199.5 l 1
 250.5 -199.5 l 1
250 -200 m 1
 250 50 l 1
 500 50 l 1
 500 -200 l 1
 250 -200 l 1
EndSplineSet
EndChar

StartChar: glyph2
Encoding: 258 1093378 1
Width: 0
VWidth: 0
Flags: H
LayerCount: 2
Fore
SplineSet
-0.5 -200 m 1
 -0.5 -200.5 l 1
 0 -200.5 l 1
 250 -200.5 l 1
 250.5 -200.5 l 1
 250.5 -200 l 1
 250.5 50 l 1
 250.5 50.5 l 1
 250 50.5 l 1
 0 50.5 l 1
 -0.5 50.5 l 1
 -0.5 50 l 1
 -0.5 -200 l 1
0.5 -199.5 m 1
 0.5 49.5 l 1
 249.5 49.5 l 1
 249.5 -199.5 l 1
 0.5 -199.5 l 1
0 -200 m 1
 0 50 l 1
 250 50 l 1
 250 -200 l 1
 0 -200 l 1
EndSplineSet
EndChar

StartChar: glyph3
Encoding: 259 1093379 2
Width: 0
VWidth: 0
Flags: H
LayerCount: 2
Fore
SplineSet
-0.5 -200 m 1
 -0.5 -200.5 l 1
 0 -200.5 l 1
 250 -200.5 l 1
 250.5 -200.5 l 1
 250.5 -200 l 1
 250.5 50 l 1
 250.5 50.5 l 1
 250 50.5 l 1
 0 50.5 l 1
 -0.5 50.5 l 1
 -0.5 50 l 1
 -0.5 -200 l 1
0.5 -199.5 m 1
 0.5 49.5 l 1
 249.5 49.5 l 1
 249.5 -199.5 l 1
 0.5 -199.5 l 1
0 -200 m 1
 0 50 l 1
 250 50 l 1
 250 -200 l 1
 0 -200 l 1
249.5 -200 m 1
 249.5 -200.5 l 1
 250 -200.5 l 1
 500 -200.5 l 1
 500.5 -200.5 l 1
 500.5 -200 l 1
 500.5 50 l 1
 500.5 50.5 l 1
 500 50.5 l 1
 250 50.5 l 1
 249.5 50.5 l 1
 249.5 50 l 1
 249.5 -200 l 1
250.5 -199.5 m 1
 250.5 49.5 l 1
 499.5 49.5 l 1
 499.5 -199.5 l 1
 250.5 -199.5 l 1
250 -200 m 1
 250 50 l 1
 500 50 l 1
 500 -200 l 1
 250 -200 l 1
EndSplineSet
EndChar

StartChar: glyph4
Encoding: 260 1093380 3
Width: 0
VWidth: 0
Flags: H
LayerCount: 2
Fore
SplineSet
249.5 50 m 1
 249.5 49.5 l 1
 250 49.5 l 1
 500 49.5 l 1
 500.5 49.5 l 1
 500.5 50 l 1
 500.5 300 l 1
 500.5 300.5 l 1
 500 300.5 l 1
 250 300.5 l 1
 249.5 300.5 l 1
 249.5 300 l 1
 249.5 50 l 1
250.5 50.5 m 1
 250.5 299.5 l 1
 499.5 299.5 l 1
 499.5 50.5 l 1
 250.5 50.5 l 1
250 50 m 1
 250 300 l 1
 500 300 l 1
 500 50 l 1
 250 50 l 1
EndSplineSet
EndChar

StartChar: glyph5
Encoding: 261 1093381 4
Width: 0
VWidth: 0
Flags: H
LayerCount: 2
Fore
SplineSet
249.5 50 m 1
 249.5 49.5 l 1
 250 49.5 l 1
 500 49.5 l 1
 500.5 49.5 l 1
 500.5 50 l 1
 500.5 300 l 1
 500.5 300.5 l 1
 500 300.5 l 1
 250 300.5 l 1
 249.5 300.5 l 1
 249.5 300 l 1
 249.5 50 l 1
250.5 50.5 m 1
 250.5 299.5 l 1
 499.5 299.5 l 1
 499.5 50.5 l 1
 250.5 50.5 l 1
250 50 m 1
 250 300 l 1
 500 300 l 1
 500 50 l 1
 250 50 l 1
249.5 -200 m 1
 249.5 -200.5 l 1
 250 -200.5 l 1
 500 -200.5 l 1
 500.5 -200.5 l 1
 500.5 -200 l 1
 500.5 50 l 1
 500.5 50.5 l 1
 500 50.5 l 1
 250 50.5 l 1
 249.5 50.5 l 1
 249.5 50 l 1
 249.5 -200 l 1
250.5 -199.5 m 1
 250.5 49.5 l 1
 499.5 49.5 l 1
 499.5 -199.5 l 1
 250.5 -199.5 l 1
250 -200 m 1
 250 50 l 1
 500 50 l 1
 500 -200 l 1
 250 -200 l 1
EndSplineSet
EndChar

StartChar: glyph6
Encoding: 262 1093382 5
Width: 0
VWidth: 0
Flags: H
LayerCount: 2
Fore
SplineSet
249.5 50 m 1
 249.5 49.5 l 1
 250 49.5 l 1
 500 49.5 l 1
 500.5 49.5 l 1
 500.5 50 l 1
 500.5 300 l 1
 500.5 300.5 l 1
 500 300.5 l 1
 250 300.5 l 1
 249.5 300.5 l 1
 249.5 300 l 1
 249.5 50 l 1
250.5 50.5 m 1
 250.5 299.5 l 1
 499.5 299.5 l 1
 499.5 50.5 l 1
 250.5 50.5 l 1
250 50 m 1
 250 300 l 1
 500 300 l 1
 500 50 l 1
 250 50 l 1
-0.5 -200 m 1
 -0.5 -200.5 l 1
 0 -200.5 l 1
 250 -200.5 l 1
 250.5 -200.5 l 1
 250.5 -200 l 1
 250.5 50 l 1
 250.5 50.5 l 1
 250 50.5 l 1
 0 50.5 l 1
 -0.5 50.5 l 1
 -0.5 50 l 1
 -0.5 -200 l 1
0.5 -199.5 m 1
 0.5 49.5 l 1
 249.5 49.5 l 1
 249.5 -199.5 l 1
 0.5 -199.5 l 1
0 -200 m 1
 0 50 l 1
 250 50 l 1
 250 -200 l 1
 0 -200 l 1
EndSplineSet
EndChar

StartChar: glyph7
Encoding: 263 1093383 6
Width: 0
VWidth: 0
Flags: H
LayerCount: 2
Fore
SplineSet
249.5 50 m 1
 249.5 49.5 l 1
 250 49.5 l 1
 500 49.5 l 1
 500.5 49.5 l 1
 500.5 50 l 1
 500.5 300 l 1
 500.5 300.5 l 1
 500 300.5 l 1
 250 300.5 l 1
 249.5 300.5 l 1
 249.5 300 l 1
 249.5 50 l 1
250.5 50.5 m 1
 250.5 299.5 l 1
 499.5 299.5 l 1
 499.5 50.5 l 1
 250.5 50.5 l 1
250 50 m 1
 250 300 l 1
 500 300 l 1
 500 50 l 1
 250 50 l 1
-0.5 -200 m 1
 -0.5 -200.5 l 1
 0 -200.5 l 1
 250 -200.5 l 1
 250.5 -200.5 l 1
 250.5 -200 l 1
 250.5 50 l 1
 250.5 50.5 l 1
 250 50.5 l 1
 0 50.5 l 1
 -0.5 50.5 l 1
 -0.5 50 l 1
 -0.5 -200 l 1
0.5 -199.5 m 1
 0.5 49.5 l 1
 249.5 49.5 l 1
 249.5 -199.5 l 1
 0.5 -199.5 l 1
0 -200 m 1
 0 50 l 1
 250 50 l 1
 250 -200 l 1
 0 -200 l 1
249.5 -200 m 1
 249.5 -200.5 l 1
 250 -200.5 l 1
 500 -200.5 l 1
 500.5 -200.5 l 1
 500.5 -200 l 1
 500.5 50 l 1
 500.5 50.5 l 1
 500 50.5 l 1
 250 50.5 l 1
 249.5 50.5 l 1
 249.5 50 l 1
 249.5 -200 l 1
250.5 -199.5 m 1
 250.5 49.5 l 1
 499.5 49.5 l 1
 499.5 -199.5 l 1
 250.5 -199.5 l 1
250 -200 m 1
 250 50 l 1
 500 50 l 1
 500 -200 l 1
 250 -200 l 1
EndSplineSet
EndChar

StartChar: glyph8
Encoding: 264 1093384 7
Width: 0
VWidth: 0
Flags: H
LayerCount: 2
Fore
SplineSet
-0.5 50 m 1
 -0.5 49.5 l 1
 0 49.5 l 1
 250 49.5 l 1
 250.5 49.5 l 1
 250.5 50 l 1
 250.5 300 l 1
 250.5 300.5 l 1
 250 300.5 l 1
 0 300.5 l 1
 -0.5 300.5 l 1
 -0.5 300 l 1
 -0.5 50 l 1
0.5 50.5 m 1
 0.5 299.5 l 1
 249.5 299.5 l 1
 249.5 50.5 l 1
 0.5 50.5 l 1
0 50 m 1
 0 300 l 1
 250 300 l 1
 250 50 l 1
 0 50 l 1
EndSplineSet
EndChar

StartChar: glyph9
Encoding: 265 1093385 8
Width: 0
VWidth: 0
Flags: H
LayerCount: 2
Fore
SplineSet
-0.5 50 m 1
 -0.5 49.5 l 1
 0 49.5 l 1
 250 49.5 l 1
 250.5 49.5 l 1
 250.5 50 l 1
 250.5 300 l 1
 250.5 300.5 l 1
 250 300.5 l 1
 0 300.5 l 1
 -0.5 300.5 l 1
 -0.5 300 l 1
 -0.5 50 l 1
0.5 50.5 m 1
 0.5 299.5 l 1
 249.5 299.5 l 1
 249.5 50.5 l 1
 0.5 50.5 l 1
0 50 m 1
 0 300 l 1
 250 300 l 1
 250 50 l 1
 0 50 l 1
249.5 -200 m 1
 249.5 -200.5 l 1
 250 -200.5 l 1
 500 -200.5 l 1
 500.5 -200.5 l 1
 500.5 -200 l 1
 500.5 50 l 1
 500.5 50.5 l 1
 500 50.5 l 1
 250 50.5 l 1
 249.5 50.5 l 1
 249.5 50 l 1
 249.5 -200 l 1
250.5 -199.5 m 1
 250.5 49.5 l 1
 499.5 49.5 l 1
 499.5 -199.5 l 1
 250.5 -199.5 l 1
250 -200 m 1
 250 50 l 1
 500 50 l 1
 500 -200 l 1
 250 -200 l 1
EndSplineSet
EndChar

StartChar: glyph10
Encoding: 266 1093386 9
Width: 0
VWidth: 0
Flags: H
LayerCount: 2
Fore
SplineSet
-0.5 50 m 1
 -0.5 49.5 l 1
 0 49.5 l 1
 250 49.5 l 1
 250.5 49.5 l 1
 250.5 50 l 1
 250.5 300 l 1
 250.5 300.5 l 1
 250 300.5 l 1
 0 300.5 l 1
 -0.5 300.5 l 1
 -0.5 300 l 1
 -0.5 50 l 1
0.5 50.5 m 1
 0.5 299.5 l 1
 249.5 299.5 l 1
 249.5 50.5 l 1
 0.5 50.5 l 1
0 50 m 1
 0 300 l 1
 250 300 l 1
 250 50 l 1
 0 50 l 1
-0.5 -200 m 1
 -0.5 -200.5 l 1
 0 -200.5 l 1
 250 -200.5 l 1
 250.5 -200.5 l 1
 250.5 -200 l 1
 250.5 50 l 1
 250.5 50.5 l 1
 250 50.5 l 1
 0 50.5 l 1
 -0.5 50.5 l 1
 -0.5 50 l 1
 -0.5 -200 l 1
0.5 -199.5 m 1
 0.5 49.5 l 1
 249.5 49.5 l 1
 249.5 -199.5 l 1
 0.5 -199.5 l 1
0 -200 m 1
 0 50 l 1
 250 50 l 1
 250 -200 l 1
 0 -200 l 1
EndSplineSet
EndChar

StartChar: glyph11
Encoding: 267 1093387 10
Width: 0
VWidth: 0
Flags: H
LayerCount: 2
Fore
SplineSet
-0.5 50 m 1
 -0.5 49.5 l 1
 0 49.5 l 1
 250 49.5 l 1
 250.5 49.5 l 1
 250.5 50 l 1
 250.5 300 l 1
 250.5 300.5 l 1
 250 300.5 l 1
 0 300.5 l 1
 -0.5 300.5 l 1
 -0.5 300 l 1
 -0.5 50 l 1
0.5 50.5 m 1
 0.5 299.5 l 1
 249.5 299.5 l 1
 249.5 50.5 l 1
 0.5 50.5 l 1
0 50 m 1
 0 300 l 1
 250 300 l 1
 250 50 l 1
 0 50 l 1
-0.5 -200 m 1
 -0.5 -200.5 l 1
 0 -200.5 l 1
 250 -200.5 l 1
 250.5 -200.5 l 1
 250.5 -200 l 1
 250.5 50 l 1
 250.5 50.5 l 1
 250 50.5 l 1
 0 50.5 l 1
 -0.5 50.5 l 1
 -0.5 50 l 1
 -0.5 -200 l 1
0.5 -199.5 m 1
 0.5 49.5 l 1
 249.5 49.5 l 1
 249.5 -199.5 l 1
 0.5 -199.5 l 1
0 -200 m 1
 0 50 l 1
 250 50 l 1
 250 -200 l 1
 0 -200 l 1
249.5 -200 m 1
 249.5 -200.5 l 1
 250 -200.5 l 1
 500 -200.5 l 1
 500.5 -200.5 l 1
 500.5 -200 l 1
 500.5 50 l 1
 500.5 50.5 l 1
 500 50.5 l 1
 250 50.5 l 1
 249.5 50.5 l 1
 249.5 50 l 1
 249.5 -200 l 1
250.5 -199.5 m 1
 250.5 49.5 l 1
 499.5 49.5 l 1
 499.5 -199.5 l 1
 250.5 -199.5 l 1
250 -200 m 1
 250 50 l 1
 500 50 l 1
 500 -200 l 1
 250 -200 l 1
EndSplineSet
EndChar

StartChar: glyph12
Encoding: 268 1093388 11
Width: 0
VWidth: 0
Flags: H
LayerCount: 2
Fore
SplineSet
-0.5 50 m 1
 -0.5 49.5 l 1
 0 49.5 l 1
 250 49.5 l 1
 250.5 49.5 l 1
 250.5 50 l 1
 250.5 300 l 1
 250.5 300.5 l 1
 250 300.5 l 1
 0 300.5 l 1
 -0.5 300.5 l 1
 -0.5 300 l 1
 -0.5 50 l 1
0.5 50.5 m 1
 0.5 299.5 l 1
 249.5 299.5 l 1
 249.5 50.5 l 1
 0.5 50.5 l 1
0 50 m 1
 0 300 l 1
 250 300 l 1
 250 50 l 1
 0 50 l 1
249.5 50 m 1
 249.5 49.5 l 1
 250 49.5 l 1
 500 49.5 l 1
 500.5 49.5 l 1
 500.5 50 l 1
 500.5 300 l 1
 500.5 300.5 l 1
 500 300.5 l 1
 250 300.5 l 1
 249.5 300.5 l 1
 249.5 300 l 1
 249.5 50 l 1
250.5 50.5 m 1
 250.5 299.5 l 1
 499.5 299.5 l 1
 499.5 50.5 l 1
 250.5 50.5 l 1
250 50 m 1
 250 300 l 1
 500 300 l 1
 500 50 l 1
 250 50 l 1
EndSplineSet
EndChar

StartChar: glyph13
Encoding: 269 1093389 12
Width: 0
VWidth: 0
Flags: H
LayerCount: 2
Fore
SplineSet
-0.5 50 m 1
 -0.5 49.5 l 1
 0 49.5 l 1
 250 49.5 l 1
 250.5 49.5 l 1
 250.5 50 l 1
 250.5 300 l 1
 250.5 300.5 l 1
 250 300.5 l 1
 0 300.5 l 1
 -0.5 300.5 l 1
 -0.5 300 l 1
 -0.5 50 l 1
0.5 50.5 m 1
 0.5 299.5 l 1
 249.5 299.5 l 1
 249.5 50.5 l 1
 0.5 50.5 l 1
0 50 m 1
 0 300 l 1
 250 300 l 1
 250 50 l 1
 0 50 l 1
249.5 50 m 1
 249.5 49.5 l 1
 250 49.5 l 1
 500 49.5 l 1
 500.5 49.5 l 1
 500.5 50 l 1
 500.5 300 l 1
 500.5 300.5 l 1
 500 300.5 l 1
 250 300.5 l 1
 249.5 300.5 l 1
 249.5 300 l 1
 249.5 50 l 1
250.5 50.5 m 1
 250.5 299.5 l 1
 499.5 299.5 l 1
 499.5 50.5 l 1
 250.5 50.5 l 1
250 50 m 1
 250 300 l 1
 500 300 l 1
 500 50 l 1
 250 50 l 1
249.5 -200 m 1
 249.5 -200.5 l 1
 250 -200.5 l 1
 500 -200.5 l 1
 500.5 -200.5 l 1
 500.5 -200 l 1
 500.5 50 l 1
 500.5 50.5 l 1
 500 50.5 l 1
 250 50.5 l 1
 249.5 50.5 l 1
 249.5 50 l 1
 249.5 -200 l 1
250.5 -199.5 m 1
 250.5 49.5 l 1
 499.5 49.5 l 1
 499.5 -199.5 l 1
 250.5 -199.5 l 1
250 -200 m 1
 250 50 l 1
 500 50 l 1
 500 -200 l 1
 250 -200 l 1
EndSplineSet
EndChar

StartChar: glyph14
Encoding: 270 1093390 13
Width: 0
VWidth: 0
Flags: H
LayerCount: 2
Fore
SplineSet
-0.5 50 m 1
 -0.5 49.5 l 1
 0 49.5 l 1
 250 49.5 l 1
 250.5 49.5 l 1
 250.5 50 l 1
 250.5 300 l 1
 250.5 300.5 l 1
 250 300.5 l 1
 0 300.5 l 1
 -0.5 300.5 l 1
 -0.5 300 l 1
 -0.5 50 l 1
0.5 50.5 m 1
 0.5 299.5 l 1
 249.5 299.5 l 1
 249.5 50.5 l 1
 0.5 50.5 l 1
0 50 m 1
 0 300 l 1
 250 300 l 1
 250 50 l 1
 0 50 l 1
249.5 50 m 1
 249.5 49.5 l 1
 250 49.5 l 1
 500 49.5 l 1
 500.5 49.5 l 1
 500.5 50 l 1
 500.5 300 l 1
 500.5 300.5 l 1
 500 300.5 l 1
 250 300.5 l 1
 249.5 300.5 l 1
 249.5 300 l 1
 249.5 50 l 1
250.5 50.5 m 1
 250.5 299.5 l 1
 499.5 299.5 l 1
 499.5 50.5 l 1
 250.5 50.5 l 1
250 50 m 1
 250 300 l 1
 500 300 l 1
 500 50 l 1
 250 50 l 1
-0.5 -200 m 1
 -0.5 -200.5 l 1
 0 -200.5 l 1
 250 -200.5 l 1
 250.5 -200.5 l 1
 250.5 -200 l 1
 250.5 50 l 1
 250.5 50.5 l 1
 250 50.5 l 1
 0 50.5 l 1
 -0.5 50.5 l 1
 -0.5 50 l 1
 -0.5 -200 l 1
0.5 -199.5 m 1
 0.5 49.5 l 1
 249.5 49.5 l 1
 249.5 -199.5 l 1
 0.5 -199.5 l 1
0 -200 m 1
 0 50 l 1
 250 50 l 1
 250 -200 l 1
 0 -200 l 1
EndSplineSet
EndChar

StartChar: glyph15
Encoding: 271 1093391 14
Width: 0
VWidth: 0
Flags: H
LayerCount: 2
Fore
SplineSet
-0.5 50 m 1
 -0.5 49.5 l 1
 0 49.5 l 1
 250 49.5 l 1
 250.5 49.5 l 1
 250.5 50 l 1
 250.5 300 l 1
 250.5 300.5 l 1
 250 300.5 l 1
 0 300.5 l 1
 -0.5 300.5 l 1
 -0.5 300 l 1
 -0.5 50 l 1
0.5 50.5 m 1
 0.5 299.5 l 1
 249.5 299.5 l 1
 249.5 50.5 l 1
 0.5 50.5 l 1
0 50 m 1
 0 300 l 1
 250 300 l 1
 250 50 l 1
 0 50 l 1
249.5 50 m 1
 249.5 49.5 l 1
 250 49.5 l 1
 500 49.5 l 1
 500.5 49.5 l 1
 500.5 50 l 1
 500.5 300 l 1
 500.5 300.5 l 1
 500 300.5 l 1
 250 300.5 l 1
 249.5 300.5 l 1
 249.5 300 l 1
 249.5 50 l 1
250.5 50.5 m 1
 250.5 299.5 l 1
 499.5 299.5 l 1
 499.5 50.5 l 1
 250.5 50.5 l 1
250 50 m 1
 250 300 l 1
 500 300 l 1
 500 50 l 1
 250 50 l 1
-0.5 -200 m 1
 -0.5 -200.5 l 1
 0 -200.5 l 1
 250 -200.5 l 1
 250.5 -200.5 l 1
 250.5 -200 l 1
 250.5 50 l 1
 250.5 50.5 l 1
 250 50.5 l 1
 0 50.5 l 1
 -0.5 50.5 l 1
 -0.5 50 l 1
 -0.5 -200 l 1
0.5 -199.5 m 1
 0.5 49.5 l 1
 249.5 49.5 l 1
 249.5 -199.5 l 1
 0.5 -199.5 l 1
0 -200 m 1
 0 50 l 1
 250 50 l 1
 250 -200 l 1
 0 -200 l 1
249.5 -200 m 1
 249.5 -200.5 l 1
 250 -200.5 l 1
 500 -200.5 l 1
 500.5 -200.5 l 1
 500.5 -200 l 1
 500.5 50 l 1
 500.5 50.5 l 1
 500 50.5 l 1
 250 50.5 l 1
 249.5 50.5 l 1
 249.5 50 l 1
 249.5 -200 l 1
250.5 -199.5 m 1
 250.5 49.5 l 1
 499.5 49.5 l 1
 499.5 -199.5 l 1
 250.5 -199.5 l 1
250 -200 m 1
 250 50 l 1
 500 50 l 1
 500 -200 l 1
 250 -200 l 1
EndSplineSet
EndChar

StartChar: glyph16
Encoding: 272 1093392 15
Width: 0
VWidth: 0
Flags: H
LayerCount: 2
Fore
SplineSet
249.5 300 m 1
 249.5 299.5 l 1
 250 299.5 l 1
 500 299.5 l 1
 500.5 299.5 l 1
 500.5 300 l 1
 500.5 550 l 1
 500.5 550.5 l 1
 500 550.5 l 1
 250 550.5 l 1
 249.5 550.5 l 1
 249.5 550 l 1
 249.5 300 l 1
250.5 300.5 m 1
 250.5 549.5 l 1
 499.5 549.5 l 1
 499.5 300.5 l 1
 250.5 300.5 l 1
250 300 m 1
 250 550 l 1
 500 550 l 1
 500 300 l 1
 250 300 l 1
EndSplineSet
EndChar

StartChar: glyph17
Encoding: 273 1093393 16
Width: 0
VWidth: 0
Flags: H
LayerCount: 2
Fore
SplineSet
249.5 300 m 1
 249.5 299.5 l 1
 250 299.5 l 1
 500 299.5 l 1
 500.5 299.5 l 1
 500.5 300 l 1
 500.5 550 l 1
 500.5 550.5 l 1
 500 550.5 l 1
 250 550.5 l 1
 249.5 550.5 l 1
 249.5 550 l 1
 249.5 300 l 1
250.5 300.5 m 1
 250.5 549.5 l 1
 499.5 549.5 l 1
 499.5 300.5 l 1
 250.5 300.5 l 1
250 300 m 1
 250 550 l 1
 500 550 l 1
 500 300 l 1
 250 300 l 1
249.5 -200 m 1
 249.5 -200.5 l 1
 250 -200.5 l 1
 500 -200.5 l 1
 500.5 -200.5 l 1
 500.5 -200 l 1
 500.5 50 l 1
 500.5 50.5 l 1
 500 50.5 l 1
 250 50.5 l 1
 249.5 50.5 l 1
 249.5 50 l 1
 249.5 -200 l 1
250.5 -199.5 m 1
 250.5 49.5 l 1
 499.5 49.5 l 1
 499.5 -199.5 l 1
 250.5 -199.5 l 1
250 -200 m 1
 250 50 l 1
 500 50 l 1
 500 -200 l 1
 250 -200 l 1
EndSplineSet
EndChar

StartChar: glyph18
Encoding: 274 1093394 17
Width: 0
VWidth: 0
Flags: H
LayerCount: 2
Fore
SplineSet
249.5 300 m 1
 249.5 299.5 l 1
 250 299.5 l 1
 500 299.5 l 1
 500.5 299.5 l 1
 500.5 300 l 1
 500.5 550 l 1
 500.5 550.5 l 1
 500 550.5 l 1
 250 550.5 l 1
 249.5 550.5 l 1
 249.5 550 l 1
 249.5 300 l 1
250.5 300.5 m 1
 250.5 549.5 l 1
 499.5 549.5 l 1
 499.5 300.5 l 1
 250.5 300.5 l 1
250 300 m 1
 250 550 l 1
 500 550 l 1
 500 300 l 1
 250 300 l 1
-0.5 -200 m 1
 -0.5 -200.5 l 1
 0 -200.5 l 1
 250 -200.5 l 1
 250.5 -200.5 l 1
 250.5 -200 l 1
 250.5 50 l 1
 250.5 50.5 l 1
 250 50.5 l 1
 0 50.5 l 1
 -0.5 50.5 l 1
 -0.5 50 l 1
 -0.5 -200 l 1
0.5 -199.5 m 1
 0.5 49.5 l 1
 249.5 49.5 l 1
 249.5 -199.5 l 1
 0.5 -199.5 l 1
0 -200 m 1
 0 50 l 1
 250 50 l 1
 250 -200 l 1
 0 -200 l 1
EndSplineSet
EndChar

StartChar: glyph19
Encoding: 275 1093395 18
Width: 0
VWidth: 0
Flags: H
LayerCount: 2
Fore
SplineSet
249.5 300 m 1
 249.5 299.5 l 1
 250 299.5 l 1
 500 299.5 l 1
 500.5 299.5 l 1
 500.5 300 l 1
 500.5 550 l 1
 500.5 550.5 l 1
 500 550.5 l 1
 250 550.5 l 1
 249.5 550.5 l 1
 249.5 550 l 1
 249.5 300 l 1
250.5 300.5 m 1
 250.5 549.5 l 1
 499.5 549.5 l 1
 499.5 300.5 l 1
 250.5 300.5 l 1
250 300 m 1
 250 550 l 1
 500 550 l 1
 500 300 l 1
 250 300 l 1
-0.5 -200 m 1
 -0.5 -200.5 l 1
 0 -200.5 l 1
 250 -200.5 l 1
 250.5 -200.5 l 1
 250.5 -200 l 1
 250.5 50 l 1
 250.5 50.5 l 1
 250 50.5 l 1
 0 50.5 l 1
 -0.5 50.5 l 1
 -0.5 50 l 1
 -0.5 -200 l 1
0.5 -199.5 m 1
 0.5 49.5 l 1
 249.5 49.5 l 1
 249.5 -199.5 l 1
 0.5 -199.5 l 1
0 -200 m 1
 0 50 l 1
 250 50 l 1
 250 -200 l 1
 0 -200 l 1
249.5 -200 m 1
 249.5 -200.5 l 1
 250 -200.5 l 1
 500 -200.5 l 1
 500.5 -200.5 l 1
 500.5 -200 l 1
 500.5 50 l 1
 500.5 50.5 l 1
 500 50.5 l 1
 250 50.5 l 1
 249.5 50.5 l 1
 249.5 50 l 1
 249.5 -200 l 1
250.5 -199.5 m 1
 250.5 49.5 l 1
 499.5 49.5 l 1
 499.5 -199.5 l 1
 250.5 -199.5 l 1
250 -200 m 1
 250 50 l 1
 500 50 l 1
 500 -200 l 1
 250 -200 l 1
EndSplineSet
EndChar

StartChar: glyph20
Encoding: 276 1093396 19
Width: 0
VWidth: 0
Flags: H
LayerCount: 2
Fore
SplineSet
249.5 300 m 1
 249.5 299.5 l 1
 250 299.5 l 1
 500 299.5 l 1
 500.5 299.5 l 1
 500.5 300 l 1
 500.5 550 l 1
 500.5 550.5 l 1
 500 550.5 l 1
 250 550.5 l 1
 249.5 550.5 l 1
 249.5 550 l 1
 249.5 300 l 1
250.5 300.5 m 1
 250.5 549.5 l 1
 499.5 549.5 l 1
 499.5 300.5 l 1
 250.5 300.5 l 1
250 300 m 1
 250 550 l 1
 500 550 l 1
 500 300 l 1
 250 300 l 1
249.5 50 m 1
 249.5 49.5 l 1
 250 49.5 l 1
 500 49.5 l 1
 500.5 49.5 l 1
 500.5 50 l 1
 500.5 300 l 1
 500.5 300.5 l 1
 500 300.5 l 1
 250 300.5 l 1
 249.5 300.5 l 1
 249.5 300 l 1
 249.5 50 l 1
250.5 50.5 m 1
 250.5 299.5 l 1
 499.5 299.5 l 1
 499.5 50.5 l 1
 250.5 50.5 l 1
250 50 m 1
 250 300 l 1
 500 300 l 1
 500 50 l 1
 250 50 l 1
EndSplineSet
EndChar

StartChar: glyph21
Encoding: 277 1093397 20
Width: 0
VWidth: 0
Flags: H
LayerCount: 2
Fore
SplineSet
249.5 300 m 1
 249.5 299.5 l 1
 250 299.5 l 1
 500 299.5 l 1
 500.5 299.5 l 1
 500.5 300 l 1
 500.5 550 l 1
 500.5 550.5 l 1
 500 550.5 l 1
 250 550.5 l 1
 249.5 550.5 l 1
 249.5 550 l 1
 249.5 300 l 1
250.5 300.5 m 1
 250.5 549.5 l 1
 499.5 549.5 l 1
 499.5 300.5 l 1
 250.5 300.5 l 1
250 300 m 1
 250 550 l 1
 500 550 l 1
 500 300 l 1
 250 300 l 1
249.5 50 m 1
 249.5 49.5 l 1
 250 49.5 l 1
 500 49.5 l 1
 500.5 49.5 l 1
 500.5 50 l 1
 500.5 300 l 1
 500.5 300.5 l 1
 500 300.5 l 1
 250 300.5 l 1
 249.5 300.5 l 1
 249.5 300 l 1
 249.5 50 l 1
250.5 50.5 m 1
 250.5 299.5 l 1
 499.5 299.5 l 1
 499.5 50.5 l 1
 250.5 50.5 l 1
250 50 m 1
 250 300 l 1
 500 300 l 1
 500 50 l 1
 250 50 l 1
249.5 -200 m 1
 249.5 -200.5 l 1
 250 -200.5 l 1
 500 -200.5 l 1
 500.5 -200.5 l 1
 500.5 -200 l 1
 500.5 50 l 1
 500.5 50.5 l 1
 500 50.5 l 1
 250 50.5 l 1
 249.5 50.5 l 1
 249.5 50 l 1
 249.5 -200 l 1
250.5 -199.5 m 1
 250.5 49.5 l 1
 499.5 49.5 l 1
 499.5 -199.5 l 1
 250.5 -199.5 l 1
250 -200 m 1
 250 50 l 1
 500 50 l 1
 500 -200 l 1
 250 -200 l 1
EndSplineSet
EndChar

StartChar: glyph22
Encoding: 278 1093398 21
Width: 0
VWidth: 0
Flags: H
LayerCount: 2
Fore
SplineSet
249.5 300 m 1
 249.5 299.5 l 1
 250 299.5 l 1
 500 299.5 l 1
 500.5 299.5 l 1
 500.5 300 l 1
 500.5 550 l 1
 500.5 550.5 l 1
 500 550.5 l 1
 250 550.5 l 1
 249.5 550.5 l 1
 249.5 550 l 1
 249.5 300 l 1
250.5 300.5 m 1
 250.5 549.5 l 1
 499.5 549.5 l 1
 499.5 300.5 l 1
 250.5 300.5 l 1
250 300 m 1
 250 550 l 1
 500 550 l 1
 500 300 l 1
 250 300 l 1
249.5 50 m 1
 249.5 49.5 l 1
 250 49.5 l 1
 500 49.5 l 1
 500.5 49.5 l 1
 500.5 50 l 1
 500.5 300 l 1
 500.5 300.5 l 1
 500 300.5 l 1
 250 300.5 l 1
 249.5 300.5 l 1
 249.5 300 l 1
 249.5 50 l 1
250.5 50.5 m 1
 250.5 299.5 l 1
 499.5 299.5 l 1
 499.5 50.5 l 1
 250.5 50.5 l 1
250 50 m 1
 250 300 l 1
 500 300 l 1
 500 50 l 1
 250 50 l 1
-0.5 -200 m 1
 -0.5 -200.5 l 1
 0 -200.5 l 1
 250 -200.5 l 1
 250.5 -200.5 l 1
 250.5 -200 l 1
 250.5 50 l 1
 250.5 50.5 l 1
 250 50.5 l 1
 0 50.5 l 1
 -0.5 50.5 l 1
 -0.5 50 l 1
 -0.5 -200 l 1
0.5 -199.5 m 1
 0.5 49.5 l 1
 249.5 49.5 l 1
 249.5 -199.5 l 1
 0.5 -199.5 l 1
0 -200 m 1
 0 50 l 1
 250 50 l 1
 250 -200 l 1
 0 -200 l 1
EndSplineSet
EndChar

StartChar: glyph23
Encoding: 279 1093399 22
Width: 0
VWidth: 0
Flags: H
LayerCount: 2
Fore
SplineSet
249.5 300 m 1
 249.5 299.5 l 1
 250 299.5 l 1
 500 299.5 l 1
 500.5 299.5 l 1
 500.5 300 l 1
 500.5 550 l 1
 500.5 550.5 l 1
 500 550.5 l 1
 250 550.5 l 1
 249.5 550.5 l 1
 249.5 550 l 1
 249.5 300 l 1
250.5 300.5 m 1
 250.5 549.5 l 1
 499.5 549.5 l 1
 499.5 300.5 l 1
 250.5 300.5 l 1
250 300 m 1
 250 550 l 1
 500 550 l 1
 500 300 l 1
 250 300 l 1
249.5 50 m 1
 249.5 49.5 l 1
 250 49.5 l 1
 500 49.5 l 1
 500.5 49.5 l 1
 500.5 50 l 1
 500.5 300 l 1
 500.5 300.5 l 1
 500 300.5 l 1
 250 300.5 l 1
 249.5 300.5 l 1
 249.5 300 l 1
 249.5 50 l 1
250.5 50.5 m 1
 250.5 299.5 l 1
 499.5 299.5 l 1
 499.5 50.5 l 1
 250.5 50.5 l 1
250 50 m 1
 250 300 l 1
 500 300 l 1
 500 50 l 1
 250 50 l 1
-0.5 -200 m 1
 -0.5 -200.5 l 1
 0 -200.5 l 1
 250 -200.5 l 1
 250.5 -200.5 l 1
 250.5 -200 l 1
 250.5 50 l 1
 250.5 50.5 l 1
 250 50.5 l 1
 0 50.5 l 1
 -0.5 50.5 l 1
 -0.5 50 l 1
 -0.5 -200 l 1
0.5 -199.5 m 1
 0.5 49.5 l 1
 249.5 49.5 l 1
 249.5 -199.5 l 1
 0.5 -199.5 l 1
0 -200 m 1
 0 50 l 1
 250 50 l 1
 250 -200 l 1
 0 -200 l 1
249.5 -200 m 1
 249.5 -200.5 l 1
 250 -200.5 l 1
 500 -200.5 l 1
 500.5 -200.5 l 1
 500.5 -200 l 1
 500.5 50 l 1
 500.5 50.5 l 1
 500 50.5 l 1
 250 50.5 l 1
 249.5 50.5 l 1
 249.5 50 l 1
 249.5 -200 l 1
250.5 -199.5 m 1
 250.5 49.5 l 1
 499.5 49.5 l 1
 499.5 -199.5 l 1
 250.5 -199.5 l 1
250 -200 m 1
 250 50 l 1
 500 50 l 1
 500 -200 l 1
 250 -200 l 1
EndSplineSet
EndChar

StartChar: glyph24
Encoding: 280 1093400 23
Width: 0
VWidth: 0
Flags: H
LayerCount: 2
Fore
SplineSet
249.5 300 m 1
 249.5 299.5 l 1
 250 299.5 l 1
 500 299.5 l 1
 500.5 299.5 l 1
 500.5 300 l 1
 500.5 550 l 1
 500.5 550.5 l 1
 500 550.5 l 1
 250 550.5 l 1
 249.5 550.5 l 1
 249.5 550 l 1
 249.5 300 l 1
250.5 300.5 m 1
 250.5 549.5 l 1
 499.5 549.5 l 1
 499.5 300.5 l 1
 250.5 300.5 l 1
250 300 m 1
 250 550 l 1
 500 550 l 1
 500 300 l 1
 250 300 l 1
-0.5 50 m 1
 -0.5 49.5 l 1
 0 49.5 l 1
 250 49.5 l 1
 250.5 49.5 l 1
 250.5 50 l 1
 250.5 300 l 1
 250.5 300.5 l 1
 250 300.5 l 1
 0 300.5 l 1
 -0.5 300.5 l 1
 -0.5 300 l 1
 -0.5 50 l 1
0.5 50.5 m 1
 0.5 299.5 l 1
 249.5 299.5 l 1
 249.5 50.5 l 1
 0.5 50.5 l 1
0 50 m 1
 0 300 l 1
 250 300 l 1
 250 50 l 1
 0 50 l 1
EndSplineSet
EndChar

StartChar: glyph25
Encoding: 281 1093401 24
Width: 0
VWidth: 0
Flags: H
LayerCount: 2
Fore
SplineSet
249.5 300 m 1
 249.5 299.5 l 1
 250 299.5 l 1
 500 299.5 l 1
 500.5 299.5 l 1
 500.5 300 l 1
 500.5 550 l 1
 500.5 550.5 l 1
 500 550.5 l 1
 250 550.5 l 1
 249.5 550.5 l 1
 249.5 550 l 1
 249.5 300 l 1
250.5 300.5 m 1
 250.5 549.5 l 1
 499.5 549.5 l 1
 499.5 300.5 l 1
 250.5 300.5 l 1
250 300 m 1
 250 550 l 1
 500 550 l 1
 500 300 l 1
 250 300 l 1
-0.5 50 m 1
 -0.5 49.5 l 1
 0 49.5 l 1
 250 49.5 l 1
 250.5 49.5 l 1
 250.5 50 l 1
 250.5 300 l 1
 250.5 300.5 l 1
 250 300.5 l 1
 0 300.5 l 1
 -0.5 300.5 l 1
 -0.5 300 l 1
 -0.5 50 l 1
0.5 50.5 m 1
 0.5 299.5 l 1
 249.5 299.5 l 1
 249.5 50.5 l 1
 0.5 50.5 l 1
0 50 m 1
 0 300 l 1
 250 300 l 1
 250 50 l 1
 0 50 l 1
249.5 -200 m 1
 249.5 -200.5 l 1
 250 -200.5 l 1
 500 -200.5 l 1
 500.5 -200.5 l 1
 500.5 -200 l 1
 500.5 50 l 1
 500.5 50.5 l 1
 500 50.5 l 1
 250 50.5 l 1
 249.5 50.5 l 1
 249.5 50 l 1
 249.5 -200 l 1
250.5 -199.5 m 1
 250.5 49.5 l 1
 499.5 49.5 l 1
 499.5 -199.5 l 1
 250.5 -199.5 l 1
250 -200 m 1
 250 50 l 1
 500 50 l 1
 500 -200 l 1
 250 -200 l 1
EndSplineSet
EndChar

StartChar: glyph26
Encoding: 282 1093402 25
Width: 0
VWidth: 0
Flags: H
LayerCount: 2
Fore
SplineSet
249.5 300 m 1
 249.5 299.5 l 1
 250 299.5 l 1
 500 299.5 l 1
 500.5 299.5 l 1
 500.5 300 l 1
 500.5 550 l 1
 500.5 550.5 l 1
 500 550.5 l 1
 250 550.5 l 1
 249.5 550.5 l 1
 249.5 550 l 1
 249.5 300 l 1
250.5 300.5 m 1
 250.5 549.5 l 1
 499.5 549.5 l 1
 499.5 300.5 l 1
 250.5 300.5 l 1
250 300 m 1
 250 550 l 1
 500 550 l 1
 500 300 l 1
 250 300 l 1
-0.5 50 m 1
 -0.5 49.5 l 1
 0 49.5 l 1
 250 49.5 l 1
 250.5 49.5 l 1
 250.5 50 l 1
 250.5 300 l 1
 250.5 300.5 l 1
 250 300.5 l 1
 0 300.5 l 1
 -0.5 300.5 l 1
 -0.5 300 l 1
 -0.5 50 l 1
0.5 50.5 m 1
 0.5 299.5 l 1
 249.5 299.5 l 1
 249.5 50.5 l 1
 0.5 50.5 l 1
0 50 m 1
 0 300 l 1
 250 300 l 1
 250 50 l 1
 0 50 l 1
-0.5 -200 m 1
 -0.5 -200.5 l 1
 0 -200.5 l 1
 250 -200.5 l 1
 250.5 -200.5 l 1
 250.5 -200 l 1
 250.5 50 l 1
 250.5 50.5 l 1
 250 50.5 l 1
 0 50.5 l 1
 -0.5 50.5 l 1
 -0.5 50 l 1
 -0.5 -200 l 1
0.5 -199.5 m 1
 0.5 49.5 l 1
 249.5 49.5 l 1
 249.5 -199.5 l 1
 0.5 -199.5 l 1
0 -200 m 1
 0 50 l 1
 250 50 l 1
 250 -200 l 1
 0 -200 l 1
EndSplineSet
EndChar

StartChar: glyph27
Encoding: 283 1093403 26
Width: 0
VWidth: 0
Flags: H
LayerCount: 2
Fore
SplineSet
249.5 300 m 1
 249.5 299.5 l 1
 250 299.5 l 1
 500 299.5 l 1
 500.5 299.5 l 1
 500.5 300 l 1
 500.5 550 l 1
 500.5 550.5 l 1
 500 550.5 l 1
 250 550.5 l 1
 249.5 550.5 l 1
 249.5 550 l 1
 249.5 300 l 1
250.5 300.5 m 1
 250.5 549.5 l 1
 499.5 549.5 l 1
 499.5 300.5 l 1
 250.5 300.5 l 1
250 300 m 1
 250 550 l 1
 500 550 l 1
 500 300 l 1
 250 300 l 1
-0.5 50 m 1
 -0.5 49.5 l 1
 0 49.5 l 1
 250 49.5 l 1
 250.5 49.5 l 1
 250.5 50 l 1
 250.5 300 l 1
 250.5 300.5 l 1
 250 300.5 l 1
 0 300.5 l 1
 -0.5 300.5 l 1
 -0.5 300 l 1
 -0.5 50 l 1
0.5 50.5 m 1
 0.5 299.5 l 1
 249.5 299.5 l 1
 249.5 50.5 l 1
 0.5 50.5 l 1
0 50 m 1
 0 300 l 1
 250 300 l 1
 250 50 l 1
 0 50 l 1
-0.5 -200 m 1
 -0.5 -200.5 l 1
 0 -200.5 l 1
 250 -200.5 l 1
 250.5 -200.5 l 1
 250.5 -200 l 1
 250.5 50 l 1
 250.5 50.5 l 1
 250 50.5 l 1
 0 50.5 l 1
 -0.5 50.5 l 1
 -0.5 50 l 1
 -0.5 -200 l 1
0.5 -199.5 m 1
 0.5 49.5 l 1
 249.5 49.5 l 1
 249.5 -199.5 l 1
 0.5 -199.5 l 1
0 -200 m 1
 0 50 l 1
 250 50 l 1
 250 -200 l 1
 0 -200 l 1
249.5 -200 m 1
 249.5 -200.5 l 1
 250 -200.5 l 1
 500 -200.5 l 1
 500.5 -200.5 l 1
 500.5 -200 l 1
 500.5 50 l 1
 500.5 50.5 l 1
 500 50.5 l 1
 250 50.5 l 1
 249.5 50.5 l 1
 249.5 50 l 1
 249.5 -200 l 1
250.5 -199.5 m 1
 250.5 49.5 l 1
 499.5 49.5 l 1
 499.5 -199.5 l 1
 250.5 -199.5 l 1
250 -200 m 1
 250 50 l 1
 500 50 l 1
 500 -200 l 1
 250 -200 l 1
EndSplineSet
EndChar

StartChar: glyph28
Encoding: 284 1093404 27
Width: 0
VWidth: 0
Flags: H
LayerCount: 2
Fore
SplineSet
249.5 300 m 1
 249.5 299.5 l 1
 250 299.5 l 1
 500 299.5 l 1
 500.5 299.5 l 1
 500.5 300 l 1
 500.5 550 l 1
 500.5 550.5 l 1
 500 550.5 l 1
 250 550.5 l 1
 249.5 550.5 l 1
 249.5 550 l 1
 249.5 300 l 1
250.5 300.5 m 1
 250.5 549.5 l 1
 499.5 549.5 l 1
 499.5 300.5 l 1
 250.5 300.5 l 1
250 300 m 1
 250 550 l 1
 500 550 l 1
 500 300 l 1
 250 300 l 1
-0.5 50 m 1
 -0.5 49.5 l 1
 0 49.5 l 1
 250 49.5 l 1
 250.5 49.5 l 1
 250.5 50 l 1
 250.5 300 l 1
 250.5 300.5 l 1
 250 300.5 l 1
 0 300.5 l 1
 -0.5 300.5 l 1
 -0.5 300 l 1
 -0.5 50 l 1
0.5 50.5 m 1
 0.5 299.5 l 1
 249.5 299.5 l 1
 249.5 50.5 l 1
 0.5 50.5 l 1
0 50 m 1
 0 300 l 1
 250 300 l 1
 250 50 l 1
 0 50 l 1
249.5 50 m 1
 249.5 49.5 l 1
 250 49.5 l 1
 500 49.5 l 1
 500.5 49.5 l 1
 500.5 50 l 1
 500.5 300 l 1
 500.5 300.5 l 1
 500 300.5 l 1
 250 300.5 l 1
 249.5 300.5 l 1
 249.5 300 l 1
 249.5 50 l 1
250.5 50.5 m 1
 250.5 299.5 l 1
 499.5 299.5 l 1
 499.5 50.5 l 1
 250.5 50.5 l 1
250 50 m 1
 250 300 l 1
 500 300 l 1
 500 50 l 1
 250 50 l 1
EndSplineSet
EndChar

StartChar: glyph29
Encoding: 285 1093405 28
Width: 0
VWidth: 0
Flags: H
LayerCount: 2
Fore
SplineSet
249.5 300 m 1
 249.5 299.5 l 1
 250 299.5 l 1
 500 299.5 l 1
 500.5 299.5 l 1
 500.5 300 l 1
 500.5 550 l 1
 500.5 550.5 l 1
 500 550.5 l 1
 250 550.5 l 1
 249.5 550.5 l 1
 249.5 550 l 1
 249.5 300 l 1
250.5 300.5 m 1
 250.5 549.5 l 1
 499.5 549.5 l 1
 499.5 300.5 l 1
 250.5 300.5 l 1
250 300 m 1
 250 550 l 1
 500 550 l 1
 500 300 l 1
 250 300 l 1
-0.5 50 m 1
 -0.5 49.5 l 1
 0 49.5 l 1
 250 49.5 l 1
 250.5 49.5 l 1
 250.5 50 l 1
 250.5 300 l 1
 250.5 300.5 l 1
 250 300.5 l 1
 0 300.5 l 1
 -0.5 300.5 l 1
 -0.5 300 l 1
 -0.5 50 l 1
0.5 50.5 m 1
 0.5 299.5 l 1
 249.5 299.5 l 1
 249.5 50.5 l 1
 0.5 50.5 l 1
0 50 m 1
 0 300 l 1
 250 300 l 1
 250 50 l 1
 0 50 l 1
249.5 50 m 1
 249.5 49.5 l 1
 250 49.5 l 1
 500 49.5 l 1
 500.5 49.5 l 1
 500.5 50 l 1
 500.5 300 l 1
 500.5 300.5 l 1
 500 300.5 l 1
 250 300.5 l 1
 249.5 300.5 l 1
 249.5 300 l 1
 249.5 50 l 1
250.5 50.5 m 1
 250.5 299.5 l 1
 499.5 299.5 l 1
 499.5 50.5 l 1
 250.5 50.5 l 1
250 50 m 1
 250 300 l 1
 500 300 l 1
 500 50 l 1
 250 50 l 1
249.5 -200 m 1
 249.5 -200.5 l 1
 250 -200.5 l 1
 500 -200.5 l 1
 500.5 -200.5 l 1
 500.5 -200 l 1
 500.5 50 l 1
 500.5 50.5 l 1
 500 50.5 l 1
 250 50.5 l 1
 249.5 50.5 l 1
 249.5 50 l 1
 249.5 -200 l 1
250.5 -199.5 m 1
 250.5 49.5 l 1
 499.5 49.5 l 1
 499.5 -199.5 l 1
 250.5 -199.5 l 1
250 -200 m 1
 250 50 l 1
 500 50 l 1
 500 -200 l 1
 250 -200 l 1
EndSplineSet
EndChar

StartChar: glyph30
Encoding: 286 1093406 29
Width: 0
VWidth: 0
Flags: H
LayerCount: 2
Fore
SplineSet
249.5 300 m 1
 249.5 299.5 l 1
 250 299.5 l 1
 500 299.5 l 1
 500.5 299.5 l 1
 500.5 300 l 1
 500.5 550 l 1
 500.5 550.5 l 1
 500 550.5 l 1
 250 550.5 l 1
 249.5 550.5 l 1
 249.5 550 l 1
 249.5 300 l 1
250.5 300.5 m 1
 250.5 549.5 l 1
 499.5 549.5 l 1
 499.5 300.5 l 1
 250.5 300.5 l 1
250 300 m 1
 250 550 l 1
 500 550 l 1
 500 300 l 1
 250 300 l 1
-0.5 50 m 1
 -0.5 49.5 l 1
 0 49.5 l 1
 250 49.5 l 1
 250.5 49.5 l 1
 250.5 50 l 1
 250.5 300 l 1
 250.5 300.5 l 1
 250 300.5 l 1
 0 300.5 l 1
 -0.5 300.5 l 1
 -0.5 300 l 1
 -0.5 50 l 1
0.5 50.5 m 1
 0.5 299.5 l 1
 249.5 299.5 l 1
 249.5 50.5 l 1
 0.5 50.5 l 1
0 50 m 1
 0 300 l 1
 250 300 l 1
 250 50 l 1
 0 50 l 1
249.5 50 m 1
 249.5 49.5 l 1
 250 49.5 l 1
 500 49.5 l 1
 500.5 49.5 l 1
 500.5 50 l 1
 500.5 300 l 1
 500.5 300.5 l 1
 500 300.5 l 1
 250 300.5 l 1
 249.5 300.5 l 1
 249.5 300 l 1
 249.5 50 l 1
250.5 50.5 m 1
 250.5 299.5 l 1
 499.5 299.5 l 1
 499.5 50.5 l 1
 250.5 50.5 l 1
250 50 m 1
 250 300 l 1
 500 300 l 1
 500 50 l 1
 250 50 l 1
-0.5 -200 m 1
 -0.5 -200.5 l 1
 0 -200.5 l 1
 250 -200.5 l 1
 250.5 -200.5 l 1
 250.5 -200 l 1
 250.5 50 l 1
 250.5 50.5 l 1
 250 50.5 l 1
 0 50.5 l 1
 -0.5 50.5 l 1
 -0.5 50 l 1
 -0.5 -200 l 1
0.5 -199.5 m 1
 0.5 49.5 l 1
 249.5 49.5 l 1
 249.5 -199.5 l 1
 0.5 -199.5 l 1
0 -200 m 1
 0 50 l 1
 250 50 l 1
 250 -200 l 1
 0 -200 l 1
EndSplineSet
EndChar

StartChar: glyph31
Encoding: 287 1093407 30
Width: 0
VWidth: 0
Flags: H
LayerCount: 2
Fore
SplineSet
249.5 300 m 1
 249.5 299.5 l 1
 250 299.5 l 1
 500 299.5 l 1
 500.5 299.5 l 1
 500.5 300 l 1
 500.5 550 l 1
 500.5 550.5 l 1
 500 550.5 l 1
 250 550.5 l 1
 249.5 550.5 l 1
 249.5 550 l 1
 249.5 300 l 1
250.5 300.5 m 1
 250.5 549.5 l 1
 499.5 549.5 l 1
 499.5 300.5 l 1
 250.5 300.5 l 1
250 300 m 1
 250 550 l 1
 500 550 l 1
 500 300 l 1
 250 300 l 1
-0.5 50 m 1
 -0.5 49.5 l 1
 0 49.5 l 1
 250 49.5 l 1
 250.5 49.5 l 1
 250.5 50 l 1
 250.5 300 l 1
 250.5 300.5 l 1
 250 300.5 l 1
 0 300.5 l 1
 -0.5 300.5 l 1
 -0.5 300 l 1
 -0.5 50 l 1
0.5 50.5 m 1
 0.5 299.5 l 1
 249.5 299.5 l 1
 249.5 50.5 l 1
 0.5 50.5 l 1
0 50 m 1
 0 300 l 1
 250 300 l 1
 250 50 l 1
 0 50 l 1
249.5 50 m 1
 249.5 49.5 l 1
 250 49.5 l 1
 500 49.5 l 1
 500.5 49.5 l 1
 500.5 50 l 1
 500.5 300 l 1
 500.5 300.5 l 1
 500 300.5 l 1
 250 300.5 l 1
 249.5 300.5 l 1
 249.5 300 l 1
 249.5 50 l 1
250.5 50.5 m 1
 250.5 299.5 l 1
 499.5 299.5 l 1
 499.5 50.5 l 1
 250.5 50.5 l 1
250 50 m 1
 250 300 l 1
 500 300 l 1
 500 50 l 1
 250 50 l 1
-0.5 -200 m 1
 -0.5 -200.5 l 1
 0 -200.5 l 1
 250 -200.5 l 1
 250.5 -200.5 l 1
 250.5 -200 l 1
 250.5 50 l 1
 250.5 50.5 l 1
 250 50.5 l 1
 0 50.5 l 1
 -0.5 50.5 l 1
 -0.5 50 l 1
 -0.5 -200 l 1
0.5 -199.5 m 1
 0.5 49.5 l 1
 249.5 49.5 l 1
 249.5 -199.5 l 1
 0.5 -199.5 l 1
0 -200 m 1
 0 50 l 1
 250 50 l 1
 250 -200 l 1
 0 -200 l 1
249.5 -200 m 1
 249.5 -200.5 l 1
 250 -200.5 l 1
 500 -200.5 l 1
 500.5 -200.5 l 1
 500.5 -200 l 1
 500.5 50 l 1
 500.5 50.5 l 1
 500 50.5 l 1
 250 50.5 l 1
 249.5 50.5 l 1
 249.5 50 l 1
 249.5 -200 l 1
250.5 -199.5 m 1
 250.5 49.5 l 1
 499.5 49.5 l 1
 499.5 -199.5 l 1
 250.5 -199.5 l 1
250 -200 m 1
 250 50 l 1
 500 50 l 1
 500 -200 l 1
 250 -200 l 1
EndSplineSet
EndChar

StartChar: glyph32
Encoding: 288 1093408 31
Width: 0
VWidth: 0
Flags: H
LayerCount: 2
Fore
SplineSet
-0.5 300 m 1
 -0.5 299.5 l 1
 0 299.5 l 1
 250 299.5 l 1
 250.5 299.5 l 1
 250.5 300 l 1
 250.5 550 l 1
 250.5 550.5 l 1
 250 550.5 l 1
 0 550.5 l 1
 -0.5 550.5 l 1
 -0.5 550 l 1
 -0.5 300 l 1
0.5 300.5 m 1
 0.5 549.5 l 1
 249.5 549.5 l 1
 249.5 300.5 l 1
 0.5 300.5 l 1
0 300 m 1
 0 550 l 1
 250 550 l 1
 250 300 l 1
 0 300 l 1
EndSplineSet
EndChar

StartChar: glyph33
Encoding: 289 1093409 32
Width: 0
VWidth: 0
Flags: H
LayerCount: 2
Fore
SplineSet
-0.5 300 m 1
 -0.5 299.5 l 1
 0 299.5 l 1
 250 299.5 l 1
 250.5 299.5 l 1
 250.5 300 l 1
 250.5 550 l 1
 250.5 550.5 l 1
 250 550.5 l 1
 0 550.5 l 1
 -0.5 550.5 l 1
 -0.5 550 l 1
 -0.5 300 l 1
0.5 300.5 m 1
 0.5 549.5 l 1
 249.5 549.5 l 1
 249.5 300.5 l 1
 0.5 300.5 l 1
0 300 m 1
 0 550 l 1
 250 550 l 1
 250 300 l 1
 0 300 l 1
249.5 -200 m 1
 249.5 -200.5 l 1
 250 -200.5 l 1
 500 -200.5 l 1
 500.5 -200.5 l 1
 500.5 -200 l 1
 500.5 50 l 1
 500.5 50.5 l 1
 500 50.5 l 1
 250 50.5 l 1
 249.5 50.5 l 1
 249.5 50 l 1
 249.5 -200 l 1
250.5 -199.5 m 1
 250.5 49.5 l 1
 499.5 49.5 l 1
 499.5 -199.5 l 1
 250.5 -199.5 l 1
250 -200 m 1
 250 50 l 1
 500 50 l 1
 500 -200 l 1
 250 -200 l 1
EndSplineSet
EndChar

StartChar: glyph34
Encoding: 290 1093410 33
Width: 0
VWidth: 0
Flags: H
LayerCount: 2
Fore
SplineSet
-0.5 300 m 1
 -0.5 299.5 l 1
 0 299.5 l 1
 250 299.5 l 1
 250.5 299.5 l 1
 250.5 300 l 1
 250.5 550 l 1
 250.5 550.5 l 1
 250 550.5 l 1
 0 550.5 l 1
 -0.5 550.5 l 1
 -0.5 550 l 1
 -0.5 300 l 1
0.5 300.5 m 1
 0.5 549.5 l 1
 249.5 549.5 l 1
 249.5 300.5 l 1
 0.5 300.5 l 1
0 300 m 1
 0 550 l 1
 250 550 l 1
 250 300 l 1
 0 300 l 1
-0.5 -200 m 1
 -0.5 -200.5 l 1
 0 -200.5 l 1
 250 -200.5 l 1
 250.5 -200.5 l 1
 250.5 -200 l 1
 250.5 50 l 1
 250.5 50.5 l 1
 250 50.5 l 1
 0 50.5 l 1
 -0.5 50.5 l 1
 -0.5 50 l 1
 -0.5 -200 l 1
0.5 -199.5 m 1
 0.5 49.5 l 1
 249.5 49.5 l 1
 249.5 -199.5 l 1
 0.5 -199.5 l 1
0 -200 m 1
 0 50 l 1
 250 50 l 1
 250 -200 l 1
 0 -200 l 1
EndSplineSet
EndChar

StartChar: glyph35
Encoding: 291 1093411 34
Width: 0
VWidth: 0
Flags: H
LayerCount: 2
Fore
SplineSet
-0.5 300 m 1
 -0.5 299.5 l 1
 0 299.5 l 1
 250 299.5 l 1
 250.5 299.5 l 1
 250.5 300 l 1
 250.5 550 l 1
 250.5 550.5 l 1
 250 550.5 l 1
 0 550.5 l 1
 -0.5 550.5 l 1
 -0.5 550 l 1
 -0.5 300 l 1
0.5 300.5 m 1
 0.5 549.5 l 1
 249.5 549.5 l 1
 249.5 300.5 l 1
 0.5 300.5 l 1
0 300 m 1
 0 550 l 1
 250 550 l 1
 250 300 l 1
 0 300 l 1
-0.5 -200 m 1
 -0.5 -200.5 l 1
 0 -200.5 l 1
 250 -200.5 l 1
 250.5 -200.5 l 1
 250.5 -200 l 1
 250.5 50 l 1
 250.5 50.5 l 1
 250 50.5 l 1
 0 50.5 l 1
 -0.5 50.5 l 1
 -0.5 50 l 1
 -0.5 -200 l 1
0.5 -199.5 m 1
 0.5 49.5 l 1
 249.5 49.5 l 1
 249.5 -199.5 l 1
 0.5 -199.5 l 1
0 -200 m 1
 0 50 l 1
 250 50 l 1
 250 -200 l 1
 0 -200 l 1
249.5 -200 m 1
 249.5 -200.5 l 1
 250 -200.5 l 1
 500 -200.5 l 1
 500.5 -200.5 l 1
 500.5 -200 l 1
 500.5 50 l 1
 500.5 50.5 l 1
 500 50.5 l 1
 250 50.5 l 1
 249.5 50.5 l 1
 249.5 50 l 1
 249.5 -200 l 1
250.5 -199.5 m 1
 250.5 49.5 l 1
 499.5 49.5 l 1
 499.5 -199.5 l 1
 250.5 -199.5 l 1
250 -200 m 1
 250 50 l 1
 500 50 l 1
 500 -200 l 1
 250 -200 l 1
EndSplineSet
EndChar

StartChar: glyph36
Encoding: 292 1093412 35
Width: 0
VWidth: 0
Flags: H
LayerCount: 2
Fore
SplineSet
-0.5 300 m 1
 -0.5 299.5 l 1
 0 299.5 l 1
 250 299.5 l 1
 250.5 299.5 l 1
 250.5 300 l 1
 250.5 550 l 1
 250.5 550.5 l 1
 250 550.5 l 1
 0 550.5 l 1
 -0.5 550.5 l 1
 -0.5 550 l 1
 -0.5 300 l 1
0.5 300.5 m 1
 0.5 549.5 l 1
 249.5 549.5 l 1
 249.5 300.5 l 1
 0.5 300.5 l 1
0 300 m 1
 0 550 l 1
 250 550 l 1
 250 300 l 1
 0 300 l 1
249.5 50 m 1
 249.5 49.5 l 1
 250 49.5 l 1
 500 49.5 l 1
 500.5 49.5 l 1
 500.5 50 l 1
 500.5 300 l 1
 500.5 300.5 l 1
 500 300.5 l 1
 250 300.5 l 1
 249.5 300.5 l 1
 249.5 300 l 1
 249.5 50 l 1
250.5 50.5 m 1
 250.5 299.5 l 1
 499.5 299.5 l 1
 499.5 50.5 l 1
 250.5 50.5 l 1
250 50 m 1
 250 300 l 1
 500 300 l 1
 500 50 l 1
 250 50 l 1
EndSplineSet
EndChar

StartChar: glyph37
Encoding: 293 1093413 36
Width: 0
VWidth: 0
Flags: H
LayerCount: 2
Fore
SplineSet
-0.5 300 m 1
 -0.5 299.5 l 1
 0 299.5 l 1
 250 299.5 l 1
 250.5 299.5 l 1
 250.5 300 l 1
 250.5 550 l 1
 250.5 550.5 l 1
 250 550.5 l 1
 0 550.5 l 1
 -0.5 550.5 l 1
 -0.5 550 l 1
 -0.5 300 l 1
0.5 300.5 m 1
 0.5 549.5 l 1
 249.5 549.5 l 1
 249.5 300.5 l 1
 0.5 300.5 l 1
0 300 m 1
 0 550 l 1
 250 550 l 1
 250 300 l 1
 0 300 l 1
249.5 50 m 1
 249.5 49.5 l 1
 250 49.5 l 1
 500 49.5 l 1
 500.5 49.5 l 1
 500.5 50 l 1
 500.5 300 l 1
 500.5 300.5 l 1
 500 300.5 l 1
 250 300.5 l 1
 249.5 300.5 l 1
 249.5 300 l 1
 249.5 50 l 1
250.5 50.5 m 1
 250.5 299.5 l 1
 499.5 299.5 l 1
 499.5 50.5 l 1
 250.5 50.5 l 1
250 50 m 1
 250 300 l 1
 500 300 l 1
 500 50 l 1
 250 50 l 1
249.5 -200 m 1
 249.5 -200.5 l 1
 250 -200.5 l 1
 500 -200.5 l 1
 500.5 -200.5 l 1
 500.5 -200 l 1
 500.5 50 l 1
 500.5 50.5 l 1
 500 50.5 l 1
 250 50.5 l 1
 249.5 50.5 l 1
 249.5 50 l 1
 249.5 -200 l 1
250.5 -199.5 m 1
 250.5 49.5 l 1
 499.5 49.5 l 1
 499.5 -199.5 l 1
 250.5 -199.5 l 1
250 -200 m 1
 250 50 l 1
 500 50 l 1
 500 -200 l 1
 250 -200 l 1
EndSplineSet
EndChar

StartChar: glyph38
Encoding: 294 1093414 37
Width: 0
VWidth: 0
Flags: H
LayerCount: 2
Fore
SplineSet
-0.5 300 m 1
 -0.5 299.5 l 1
 0 299.5 l 1
 250 299.5 l 1
 250.5 299.5 l 1
 250.5 300 l 1
 250.5 550 l 1
 250.5 550.5 l 1
 250 550.5 l 1
 0 550.5 l 1
 -0.5 550.5 l 1
 -0.5 550 l 1
 -0.5 300 l 1
0.5 300.5 m 1
 0.5 549.5 l 1
 249.5 549.5 l 1
 249.5 300.5 l 1
 0.5 300.5 l 1
0 300 m 1
 0 550 l 1
 250 550 l 1
 250 300 l 1
 0 300 l 1
249.5 50 m 1
 249.5 49.5 l 1
 250 49.5 l 1
 500 49.5 l 1
 500.5 49.5 l 1
 500.5 50 l 1
 500.5 300 l 1
 500.5 300.5 l 1
 500 300.5 l 1
 250 300.5 l 1
 249.5 300.5 l 1
 249.5 300 l 1
 249.5 50 l 1
250.5 50.5 m 1
 250.5 299.5 l 1
 499.5 299.5 l 1
 499.5 50.5 l 1
 250.5 50.5 l 1
250 50 m 1
 250 300 l 1
 500 300 l 1
 500 50 l 1
 250 50 l 1
-0.5 -200 m 1
 -0.5 -200.5 l 1
 0 -200.5 l 1
 250 -200.5 l 1
 250.5 -200.5 l 1
 250.5 -200 l 1
 250.5 50 l 1
 250.5 50.5 l 1
 250 50.5 l 1
 0 50.5 l 1
 -0.5 50.5 l 1
 -0.5 50 l 1
 -0.5 -200 l 1
0.5 -199.5 m 1
 0.5 49.5 l 1
 249.5 49.5 l 1
 249.5 -199.5 l 1
 0.5 -199.5 l 1
0 -200 m 1
 0 50 l 1
 250 50 l 1
 250 -200 l 1
 0 -200 l 1
EndSplineSet
EndChar

StartChar: glyph39
Encoding: 295 1093415 38
Width: 0
VWidth: 0
Flags: H
LayerCount: 2
Fore
SplineSet
-0.5 300 m 1
 -0.5 299.5 l 1
 0 299.5 l 1
 250 299.5 l 1
 250.5 299.5 l 1
 250.5 300 l 1
 250.5 550 l 1
 250.5 550.5 l 1
 250 550.5 l 1
 0 550.5 l 1
 -0.5 550.5 l 1
 -0.5 550 l 1
 -0.5 300 l 1
0.5 300.5 m 1
 0.5 549.5 l 1
 249.5 549.5 l 1
 249.5 300.5 l 1
 0.5 300.5 l 1
0 300 m 1
 0 550 l 1
 250 550 l 1
 250 300 l 1
 0 300 l 1
249.5 50 m 1
 249.5 49.5 l 1
 250 49.5 l 1
 500 49.5 l 1
 500.5 49.5 l 1
 500.5 50 l 1
 500.5 300 l 1
 500.5 300.5 l 1
 500 300.5 l 1
 250 300.5 l 1
 249.5 300.5 l 1
 249.5 300 l 1
 249.5 50 l 1
250.5 50.5 m 1
 250.5 299.5 l 1
 499.5 299.5 l 1
 499.5 50.5 l 1
 250.5 50.5 l 1
250 50 m 1
 250 300 l 1
 500 300 l 1
 500 50 l 1
 250 50 l 1
-0.5 -200 m 1
 -0.5 -200.5 l 1
 0 -200.5 l 1
 250 -200.5 l 1
 250.5 -200.5 l 1
 250.5 -200 l 1
 250.5 50 l 1
 250.5 50.5 l 1
 250 50.5 l 1
 0 50.5 l 1
 -0.5 50.5 l 1
 -0.5 50 l 1
 -0.5 -200 l 1
0.5 -199.5 m 1
 0.5 49.5 l 1
 249.5 49.5 l 1
 249.5 -199.5 l 1
 0.5 -199.5 l 1
0 -200 m 1
 0 50 l 1
 250 50 l 1
 250 -200 l 1
 0 -200 l 1
249.5 -200 m 1
 249.5 -200.5 l 1
 250 -200.5 l 1
 500 -200.5 l 1
 500.5 -200.5 l 1
 500.5 -200 l 1
 500.5 50 l 1
 500.5 50.5 l 1
 500 50.5 l 1
 250 50.5 l 1
 249.5 50.5 l 1
 249.5 50 l 1
 249.5 -200 l 1
250.5 -199.5 m 1
 250.5 49.5 l 1
 499.5 49.5 l 1
 499.5 -199.5 l 1
 250.5 -199.5 l 1
250 -200 m 1
 250 50 l 1
 500 50 l 1
 500 -200 l 1
 250 -200 l 1
EndSplineSet
EndChar

StartChar: glyph40
Encoding: 296 1093416 39
Width: 0
VWidth: 0
Flags: H
LayerCount: 2
Fore
SplineSet
-0.5 300 m 1
 -0.5 299.5 l 1
 0 299.5 l 1
 250 299.5 l 1
 250.5 299.5 l 1
 250.5 300 l 1
 250.5 550 l 1
 250.5 550.5 l 1
 250 550.5 l 1
 0 550.5 l 1
 -0.5 550.5 l 1
 -0.5 550 l 1
 -0.5 300 l 1
0.5 300.5 m 1
 0.5 549.5 l 1
 249.5 549.5 l 1
 249.5 300.5 l 1
 0.5 300.5 l 1
0 300 m 1
 0 550 l 1
 250 550 l 1
 250 300 l 1
 0 300 l 1
-0.5 50 m 1
 -0.5 49.5 l 1
 0 49.5 l 1
 250 49.5 l 1
 250.5 49.5 l 1
 250.5 50 l 1
 250.5 300 l 1
 250.5 300.5 l 1
 250 300.5 l 1
 0 300.5 l 1
 -0.5 300.5 l 1
 -0.5 300 l 1
 -0.5 50 l 1
0.5 50.5 m 1
 0.5 299.5 l 1
 249.5 299.5 l 1
 249.5 50.5 l 1
 0.5 50.5 l 1
0 50 m 1
 0 300 l 1
 250 300 l 1
 250 50 l 1
 0 50 l 1
EndSplineSet
EndChar

StartChar: glyph41
Encoding: 297 1093417 40
Width: 0
VWidth: 0
Flags: H
LayerCount: 2
Fore
SplineSet
-0.5 300 m 1
 -0.5 299.5 l 1
 0 299.5 l 1
 250 299.5 l 1
 250.5 299.5 l 1
 250.5 300 l 1
 250.5 550 l 1
 250.5 550.5 l 1
 250 550.5 l 1
 0 550.5 l 1
 -0.5 550.5 l 1
 -0.5 550 l 1
 -0.5 300 l 1
0.5 300.5 m 1
 0.5 549.5 l 1
 249.5 549.5 l 1
 249.5 300.5 l 1
 0.5 300.5 l 1
0 300 m 1
 0 550 l 1
 250 550 l 1
 250 300 l 1
 0 300 l 1
-0.5 50 m 1
 -0.5 49.5 l 1
 0 49.5 l 1
 250 49.5 l 1
 250.5 49.5 l 1
 250.5 50 l 1
 250.5 300 l 1
 250.5 300.5 l 1
 250 300.5 l 1
 0 300.5 l 1
 -0.5 300.5 l 1
 -0.5 300 l 1
 -0.5 50 l 1
0.5 50.5 m 1
 0.5 299.5 l 1
 249.5 299.5 l 1
 249.5 50.5 l 1
 0.5 50.5 l 1
0 50 m 1
 0 300 l 1
 250 300 l 1
 250 50 l 1
 0 50 l 1
249.5 -200 m 1
 249.5 -200.5 l 1
 250 -200.5 l 1
 500 -200.5 l 1
 500.5 -200.5 l 1
 500.5 -200 l 1
 500.5 50 l 1
 500.5 50.5 l 1
 500 50.5 l 1
 250 50.5 l 1
 249.5 50.5 l 1
 249.5 50 l 1
 249.5 -200 l 1
250.5 -199.5 m 1
 250.5 49.5 l 1
 499.5 49.5 l 1
 499.5 -199.5 l 1
 250.5 -199.5 l 1
250 -200 m 1
 250 50 l 1
 500 50 l 1
 500 -200 l 1
 250 -200 l 1
EndSplineSet
EndChar

StartChar: glyph42
Encoding: 298 1093418 41
Width: 0
VWidth: 0
Flags: H
LayerCount: 2
Fore
SplineSet
-0.5 300 m 1
 -0.5 299.5 l 1
 0 299.5 l 1
 250 299.5 l 1
 250.5 299.5 l 1
 250.5 300 l 1
 250.5 550 l 1
 250.5 550.5 l 1
 250 550.5 l 1
 0 550.5 l 1
 -0.5 550.5 l 1
 -0.5 550 l 1
 -0.5 300 l 1
0.5 300.5 m 1
 0.5 549.5 l 1
 249.5 549.5 l 1
 249.5 300.5 l 1
 0.5 300.5 l 1
0 300 m 1
 0 550 l 1
 250 550 l 1
 250 300 l 1
 0 300 l 1
-0.5 50 m 1
 -0.5 49.5 l 1
 0 49.5 l 1
 250 49.5 l 1
 250.5 49.5 l 1
 250.5 50 l 1
 250.5 300 l 1
 250.5 300.5 l 1
 250 300.5 l 1
 0 300.5 l 1
 -0.5 300.5 l 1
 -0.5 300 l 1
 -0.5 50 l 1
0.5 50.5 m 1
 0.5 299.5 l 1
 249.5 299.5 l 1
 249.5 50.5 l 1
 0.5 50.5 l 1
0 50 m 1
 0 300 l 1
 250 300 l 1
 250 50 l 1
 0 50 l 1
-0.5 -200 m 1
 -0.5 -200.5 l 1
 0 -200.5 l 1
 250 -200.5 l 1
 250.5 -200.5 l 1
 250.5 -200 l 1
 250.5 50 l 1
 250.5 50.5 l 1
 250 50.5 l 1
 0 50.5 l 1
 -0.5 50.5 l 1
 -0.5 50 l 1
 -0.5 -200 l 1
0.5 -199.5 m 1
 0.5 49.5 l 1
 249.5 49.5 l 1
 249.5 -199.5 l 1
 0.5 -199.5 l 1
0 -200 m 1
 0 50 l 1
 250 50 l 1
 250 -200 l 1
 0 -200 l 1
EndSplineSet
EndChar

StartChar: glyph43
Encoding: 299 1093419 42
Width: 0
VWidth: 0
Flags: H
LayerCount: 2
Fore
SplineSet
-0.5 300 m 1
 -0.5 299.5 l 1
 0 299.5 l 1
 250 299.5 l 1
 250.5 299.5 l 1
 250.5 300 l 1
 250.5 550 l 1
 250.5 550.5 l 1
 250 550.5 l 1
 0 550.5 l 1
 -0.5 550.5 l 1
 -0.5 550 l 1
 -0.5 300 l 1
0.5 300.5 m 1
 0.5 549.5 l 1
 249.5 549.5 l 1
 249.5 300.5 l 1
 0.5 300.5 l 1
0 300 m 1
 0 550 l 1
 250 550 l 1
 250 300 l 1
 0 300 l 1
-0.5 50 m 1
 -0.5 49.5 l 1
 0 49.5 l 1
 250 49.5 l 1
 250.5 49.5 l 1
 250.5 50 l 1
 250.5 300 l 1
 250.5 300.5 l 1
 250 300.5 l 1
 0 300.5 l 1
 -0.5 300.5 l 1
 -0.5 300 l 1
 -0.5 50 l 1
0.5 50.5 m 1
 0.5 299.5 l 1
 249.5 299.5 l 1
 249.5 50.5 l 1
 0.5 50.5 l 1
0 50 m 1
 0 300 l 1
 250 300 l 1
 250 50 l 1
 0 50 l 1
-0.5 -200 m 1
 -0.5 -200.5 l 1
 0 -200.5 l 1
 250 -200.5 l 1
 250.5 -200.5 l 1
 250.5 -200 l 1
 250.5 50 l 1
 250.5 50.5 l 1
 250 50.5 l 1
 0 50.5 l 1
 -0.5 50.5 l 1
 -0.5 50 l 1
 -0.5 -200 l 1
0.5 -199.5 m 1
 0.5 49.5 l 1
 249.5 49.5 l 1
 249.5 -199.5 l 1
 0.5 -199.5 l 1
0 -200 m 1
 0 50 l 1
 250 50 l 1
 250 -200 l 1
 0 -200 l 1
249.5 -200 m 1
 249.5 -200.5 l 1
 250 -200.5 l 1
 500 -200.5 l 1
 500.5 -200.5 l 1
 500.5 -200 l 1
 500.5 50 l 1
 500.5 50.5 l 1
 500 50.5 l 1
 250 50.5 l 1
 249.5 50.5 l 1
 249.5 50 l 1
 249.5 -200 l 1
250.5 -199.5 m 1
 250.5 49.5 l 1
 499.5 49.5 l 1
 499.5 -199.5 l 1
 250.5 -199.5 l 1
250 -200 m 1
 250 50 l 1
 500 50 l 1
 500 -200 l 1
 250 -200 l 1
EndSplineSet
EndChar

StartChar: glyph44
Encoding: 300 1093420 43
Width: 0
VWidth: 0
Flags: H
LayerCount: 2
Fore
SplineSet
-0.5 300 m 1
 -0.5 299.5 l 1
 0 299.5 l 1
 250 299.5 l 1
 250.5 299.5 l 1
 250.5 300 l 1
 250.5 550 l 1
 250.5 550.5 l 1
 250 550.5 l 1
 0 550.5 l 1
 -0.5 550.5 l 1
 -0.5 550 l 1
 -0.5 300 l 1
0.5 300.5 m 1
 0.5 549.5 l 1
 249.5 549.5 l 1
 249.5 300.5 l 1
 0.5 300.5 l 1
0 300 m 1
 0 550 l 1
 250 550 l 1
 250 300 l 1
 0 300 l 1
-0.5 50 m 1
 -0.5 49.5 l 1
 0 49.5 l 1
 250 49.5 l 1
 250.5 49.5 l 1
 250.5 50 l 1
 250.5 300 l 1
 250.5 300.5 l 1
 250 300.5 l 1
 0 300.5 l 1
 -0.5 300.5 l 1
 -0.5 300 l 1
 -0.5 50 l 1
0.5 50.5 m 1
 0.5 299.5 l 1
 249.5 299.5 l 1
 249.5 50.5 l 1
 0.5 50.5 l 1
0 50 m 1
 0 300 l 1
 250 300 l 1
 250 50 l 1
 0 50 l 1
249.5 50 m 1
 249.5 49.5 l 1
 250 49.5 l 1
 500 49.5 l 1
 500.5 49.5 l 1
 500.5 50 l 1
 500.5 300 l 1
 500.5 300.5 l 1
 500 300.5 l 1
 250 300.5 l 1
 249.5 300.5 l 1
 249.5 300 l 1
 249.5 50 l 1
250.5 50.5 m 1
 250.5 299.5 l 1
 499.5 299.5 l 1
 499.5 50.5 l 1
 250.5 50.5 l 1
250 50 m 1
 250 300 l 1
 500 300 l 1
 500 50 l 1
 250 50 l 1
EndSplineSet
EndChar

StartChar: glyph45
Encoding: 301 1093421 44
Width: 0
VWidth: 0
Flags: H
LayerCount: 2
Fore
SplineSet
-0.5 300 m 1
 -0.5 299.5 l 1
 0 299.5 l 1
 250 299.5 l 1
 250.5 299.5 l 1
 250.5 300 l 1
 250.5 550 l 1
 250.5 550.5 l 1
 250 550.5 l 1
 0 550.5 l 1
 -0.5 550.5 l 1
 -0.5 550 l 1
 -0.5 300 l 1
0.5 300.5 m 1
 0.5 549.5 l 1
 249.5 549.5 l 1
 249.5 300.5 l 1
 0.5 300.5 l 1
0 300 m 1
 0 550 l 1
 250 550 l 1
 250 300 l 1
 0 300 l 1
-0.5 50 m 1
 -0.5 49.5 l 1
 0 49.5 l 1
 250 49.5 l 1
 250.5 49.5 l 1
 250.5 50 l 1
 250.5 300 l 1
 250.5 300.5 l 1
 250 300.5 l 1
 0 300.5 l 1
 -0.5 300.5 l 1
 -0.5 300 l 1
 -0.5 50 l 1
0.5 50.5 m 1
 0.5 299.5 l 1
 249.5 299.5 l 1
 249.5 50.5 l 1
 0.5 50.5 l 1
0 50 m 1
 0 300 l 1
 250 300 l 1
 250 50 l 1
 0 50 l 1
249.5 50 m 1
 249.5 49.5 l 1
 250 49.5 l 1
 500 49.5 l 1
 500.5 49.5 l 1
 500.5 50 l 1
 500.5 300 l 1
 500.5 300.5 l 1
 500 300.5 l 1
 250 300.5 l 1
 249.5 300.5 l 1
 249.5 300 l 1
 249.5 50 l 1
250.5 50.5 m 1
 250.5 299.5 l 1
 499.5 299.5 l 1
 499.5 50.5 l 1
 250.5 50.5 l 1
250 50 m 1
 250 300 l 1
 500 300 l 1
 500 50 l 1
 250 50 l 1
249.5 -200 m 1
 249.5 -200.5 l 1
 250 -200.5 l 1
 500 -200.5 l 1
 500.5 -200.5 l 1
 500.5 -200 l 1
 500.5 50 l 1
 500.5 50.5 l 1
 500 50.5 l 1
 250 50.5 l 1
 249.5 50.5 l 1
 249.5 50 l 1
 249.5 -200 l 1
250.5 -199.5 m 1
 250.5 49.5 l 1
 499.5 49.5 l 1
 499.5 -199.5 l 1
 250.5 -199.5 l 1
250 -200 m 1
 250 50 l 1
 500 50 l 1
 500 -200 l 1
 250 -200 l 1
EndSplineSet
EndChar

StartChar: glyph46
Encoding: 302 1093422 45
Width: 0
VWidth: 0
Flags: H
LayerCount: 2
Fore
SplineSet
-0.5 300 m 1
 -0.5 299.5 l 1
 0 299.5 l 1
 250 299.5 l 1
 250.5 299.5 l 1
 250.5 300 l 1
 250.5 550 l 1
 250.5 550.5 l 1
 250 550.5 l 1
 0 550.5 l 1
 -0.5 550.5 l 1
 -0.5 550 l 1
 -0.5 300 l 1
0.5 300.5 m 1
 0.5 549.5 l 1
 249.5 549.5 l 1
 249.5 300.5 l 1
 0.5 300.5 l 1
0 300 m 1
 0 550 l 1
 250 550 l 1
 250 300 l 1
 0 300 l 1
-0.5 50 m 1
 -0.5 49.5 l 1
 0 49.5 l 1
 250 49.5 l 1
 250.5 49.5 l 1
 250.5 50 l 1
 250.5 300 l 1
 250.5 300.5 l 1
 250 300.5 l 1
 0 300.5 l 1
 -0.5 300.5 l 1
 -0.5 300 l 1
 -0.5 50 l 1
0.5 50.5 m 1
 0.5 299.5 l 1
 249.5 299.5 l 1
 249.5 50.5 l 1
 0.5 50.5 l 1
0 50 m 1
 0 300 l 1
 250 300 l 1
 250 50 l 1
 0 50 l 1
249.5 50 m 1
 249.5 49.5 l 1
 250 49.5 l 1
 500 49.5 l 1
 500.5 49.5 l 1
 500.5 50 l 1
 500.5 300 l 1
 500.5 300.5 l 1
 500 300.5 l 1
 250 300.5 l 1
 249.5 300.5 l 1
 249.5 300 l 1
 249.5 50 l 1
250.5 50.5 m 1
 250.5 299.5 l 1
 499.5 299.5 l 1
 499.5 50.5 l 1
 250.5 50.5 l 1
250 50 m 1
 250 300 l 1
 500 300 l 1
 500 50 l 1
 250 50 l 1
-0.5 -200 m 1
 -0.5 -200.5 l 1
 0 -200.5 l 1
 250 -200.5 l 1
 250.5 -200.5 l 1
 250.5 -200 l 1
 250.5 50 l 1
 250.5 50.5 l 1
 250 50.5 l 1
 0 50.5 l 1
 -0.5 50.5 l 1
 -0.5 50 l 1
 -0.5 -200 l 1
0.5 -199.5 m 1
 0.5 49.5 l 1
 249.5 49.5 l 1
 249.5 -199.5 l 1
 0.5 -199.5 l 1
0 -200 m 1
 0 50 l 1
 250 50 l 1
 250 -200 l 1
 0 -200 l 1
EndSplineSet
EndChar

StartChar: glyph47
Encoding: 303 1093423 46
Width: 0
VWidth: 0
Flags: H
LayerCount: 2
Fore
SplineSet
-0.5 300 m 1
 -0.5 299.5 l 1
 0 299.5 l 1
 250 299.5 l 1
 250.5 299.5 l 1
 250.5 300 l 1
 250.5 550 l 1
 250.5 550.5 l 1
 250 550.5 l 1
 0 550.5 l 1
 -0.5 550.5 l 1
 -0.5 550 l 1
 -0.5 300 l 1
0.5 300.5 m 1
 0.5 549.5 l 1
 249.5 549.5 l 1
 249.5 300.5 l 1
 0.5 300.5 l 1
0 300 m 1
 0 550 l 1
 250 550 l 1
 250 300 l 1
 0 300 l 1
-0.5 50 m 1
 -0.5 49.5 l 1
 0 49.5 l 1
 250 49.5 l 1
 250.5 49.5 l 1
 250.5 50 l 1
 250.5 300 l 1
 250.5 300.5 l 1
 250 300.5 l 1
 0 300.5 l 1
 -0.5 300.5 l 1
 -0.5 300 l 1
 -0.5 50 l 1
0.5 50.5 m 1
 0.5 299.5 l 1
 249.5 299.5 l 1
 249.5 50.5 l 1
 0.5 50.5 l 1
0 50 m 1
 0 300 l 1
 250 300 l 1
 250 50 l 1
 0 50 l 1
249.5 50 m 1
 249.5 49.5 l 1
 250 49.5 l 1
 500 49.5 l 1
 500.5 49.5 l 1
 500.5 50 l 1
 500.5 300 l 1
 500.5 300.5 l 1
 500 300.5 l 1
 250 300.5 l 1
 249.5 300.5 l 1
 249.5 300 l 1
 249.5 50 l 1
250.5 50.5 m 1
 250.5 299.5 l 1
 499.5 299.5 l 1
 499.5 50.5 l 1
 250.5 50.5 l 1
250 50 m 1
 250 300 l 1
 500 300 l 1
 500 50 l 1
 250 50 l 1
-0.5 -200 m 1
 -0.5 -200.5 l 1
 0 -200.5 l 1
 250 -200.5 l 1
 250.5 -200.5 l 1
 250.5 -200 l 1
 250.5 50 l 1
 250.5 50.5 l 1
 250 50.5 l 1
 0 50.5 l 1
 -0.5 50.5 l 1
 -0.5 50 l 1
 -0.5 -200 l 1
0.5 -199.5 m 1
 0.5 49.5 l 1
 249.5 49.5 l 1
 249.5 -199.5 l 1
 0.5 -199.5 l 1
0 -200 m 1
 0 50 l 1
 250 50 l 1
 250 -200 l 1
 0 -200 l 1
249.5 -200 m 1
 249.5 -200.5 l 1
 250 -200.5 l 1
 500 -200.5 l 1
 500.5 -200.5 l 1
 500.5 -200 l 1
 500.5 50 l 1
 500.5 50.5 l 1
 500 50.5 l 1
 250 50.5 l 1
 249.5 50.5 l 1
 249.5 50 l 1
 249.5 -200 l 1
250.5 -199.5 m 1
 250.5 49.5 l 1
 499.5 49.5 l 1
 499.5 -199.5 l 1
 250.5 -199.5 l 1
250 -200 m 1
 250 50 l 1
 500 50 l 1
 500 -200 l 1
 250 -200 l 1
EndSplineSet
EndChar

StartChar: glyph48
Encoding: 304 1093424 47
Width: 0
VWidth: 0
Flags: H
LayerCount: 2
Fore
SplineSet
-0.5 300 m 1
 -0.5 299.5 l 1
 0 299.5 l 1
 250 299.5 l 1
 250.5 299.5 l 1
 250.5 300 l 1
 250.5 550 l 1
 250.5 550.5 l 1
 250 550.5 l 1
 0 550.5 l 1
 -0.5 550.5 l 1
 -0.5 550 l 1
 -0.5 300 l 1
0.5 300.5 m 1
 0.5 549.5 l 1
 249.5 549.5 l 1
 249.5 300.5 l 1
 0.5 300.5 l 1
0 300 m 1
 0 550 l 1
 250 550 l 1
 250 300 l 1
 0 300 l 1
249.5 300 m 1
 249.5 299.5 l 1
 250 299.5 l 1
 500 299.5 l 1
 500.5 299.5 l 1
 500.5 300 l 1
 500.5 550 l 1
 500.5 550.5 l 1
 500 550.5 l 1
 250 550.5 l 1
 249.5 550.5 l 1
 249.5 550 l 1
 249.5 300 l 1
250.5 300.5 m 1
 250.5 549.5 l 1
 499.5 549.5 l 1
 499.5 300.5 l 1
 250.5 300.5 l 1
250 300 m 1
 250 550 l 1
 500 550 l 1
 500 300 l 1
 250 300 l 1
EndSplineSet
EndChar

StartChar: glyph49
Encoding: 305 1093425 48
Width: 0
VWidth: 0
Flags: H
LayerCount: 2
Fore
SplineSet
-0.5 300 m 1
 -0.5 299.5 l 1
 0 299.5 l 1
 250 299.5 l 1
 250.5 299.5 l 1
 250.5 300 l 1
 250.5 550 l 1
 250.5 550.5 l 1
 250 550.5 l 1
 0 550.5 l 1
 -0.5 550.5 l 1
 -0.5 550 l 1
 -0.5 300 l 1
0.5 300.5 m 1
 0.5 549.5 l 1
 249.5 549.5 l 1
 249.5 300.5 l 1
 0.5 300.5 l 1
0 300 m 1
 0 550 l 1
 250 550 l 1
 250 300 l 1
 0 300 l 1
249.5 300 m 1
 249.5 299.5 l 1
 250 299.5 l 1
 500 299.5 l 1
 500.5 299.5 l 1
 500.5 300 l 1
 500.5 550 l 1
 500.5 550.5 l 1
 500 550.5 l 1
 250 550.5 l 1
 249.5 550.5 l 1
 249.5 550 l 1
 249.5 300 l 1
250.5 300.5 m 1
 250.5 549.5 l 1
 499.5 549.5 l 1
 499.5 300.5 l 1
 250.5 300.5 l 1
250 300 m 1
 250 550 l 1
 500 550 l 1
 500 300 l 1
 250 300 l 1
249.5 -200 m 1
 249.5 -200.5 l 1
 250 -200.5 l 1
 500 -200.5 l 1
 500.5 -200.5 l 1
 500.5 -200 l 1
 500.5 50 l 1
 500.5 50.5 l 1
 500 50.5 l 1
 250 50.5 l 1
 249.5 50.5 l 1
 249.5 50 l 1
 249.5 -200 l 1
250.5 -199.5 m 1
 250.5 49.5 l 1
 499.5 49.5 l 1
 499.5 -199.5 l 1
 250.5 -199.5 l 1
250 -200 m 1
 250 50 l 1
 500 50 l 1
 500 -200 l 1
 250 -200 l 1
EndSplineSet
EndChar

StartChar: glyph50
Encoding: 306 1093426 49
Width: 0
VWidth: 0
Flags: H
LayerCount: 2
Fore
SplineSet
-0.5 300 m 1
 -0.5 299.5 l 1
 0 299.5 l 1
 250 299.5 l 1
 250.5 299.5 l 1
 250.5 300 l 1
 250.5 550 l 1
 250.5 550.5 l 1
 250 550.5 l 1
 0 550.5 l 1
 -0.5 550.5 l 1
 -0.5 550 l 1
 -0.5 300 l 1
0.5 300.5 m 1
 0.5 549.5 l 1
 249.5 549.5 l 1
 249.5 300.5 l 1
 0.5 300.5 l 1
0 300 m 1
 0 550 l 1
 250 550 l 1
 250 300 l 1
 0 300 l 1
249.5 300 m 1
 249.5 299.5 l 1
 250 299.5 l 1
 500 299.5 l 1
 500.5 299.5 l 1
 500.5 300 l 1
 500.5 550 l 1
 500.5 550.5 l 1
 500 550.5 l 1
 250 550.5 l 1
 249.5 550.5 l 1
 249.5 550 l 1
 249.5 300 l 1
250.5 300.5 m 1
 250.5 549.5 l 1
 499.5 549.5 l 1
 499.5 300.5 l 1
 250.5 300.5 l 1
250 300 m 1
 250 550 l 1
 500 550 l 1
 500 300 l 1
 250 300 l 1
-0.5 -200 m 1
 -0.5 -200.5 l 1
 0 -200.5 l 1
 250 -200.5 l 1
 250.5 -200.5 l 1
 250.5 -200 l 1
 250.5 50 l 1
 250.5 50.5 l 1
 250 50.5 l 1
 0 50.5 l 1
 -0.5 50.5 l 1
 -0.5 50 l 1
 -0.5 -200 l 1
0.5 -199.5 m 1
 0.5 49.5 l 1
 249.5 49.5 l 1
 249.5 -199.5 l 1
 0.5 -199.5 l 1
0 -200 m 1
 0 50 l 1
 250 50 l 1
 250 -200 l 1
 0 -200 l 1
EndSplineSet
EndChar

StartChar: glyph51
Encoding: 307 1093427 50
Width: 0
VWidth: 0
Flags: H
LayerCount: 2
Fore
SplineSet
-0.5 300 m 1
 -0.5 299.5 l 1
 0 299.5 l 1
 250 299.5 l 1
 250.5 299.5 l 1
 250.5 300 l 1
 250.5 550 l 1
 250.5 550.5 l 1
 250 550.5 l 1
 0 550.5 l 1
 -0.5 550.5 l 1
 -0.5 550 l 1
 -0.5 300 l 1
0.5 300.5 m 1
 0.5 549.5 l 1
 249.5 549.5 l 1
 249.5 300.5 l 1
 0.5 300.5 l 1
0 300 m 1
 0 550 l 1
 250 550 l 1
 250 300 l 1
 0 300 l 1
249.5 300 m 1
 249.5 299.5 l 1
 250 299.5 l 1
 500 299.5 l 1
 500.5 299.5 l 1
 500.5 300 l 1
 500.5 550 l 1
 500.5 550.5 l 1
 500 550.5 l 1
 250 550.5 l 1
 249.5 550.5 l 1
 249.5 550 l 1
 249.5 300 l 1
250.5 300.5 m 1
 250.5 549.5 l 1
 499.5 549.5 l 1
 499.5 300.5 l 1
 250.5 300.5 l 1
250 300 m 1
 250 550 l 1
 500 550 l 1
 500 300 l 1
 250 300 l 1
-0.5 -200 m 1
 -0.5 -200.5 l 1
 0 -200.5 l 1
 250 -200.5 l 1
 250.5 -200.5 l 1
 250.5 -200 l 1
 250.5 50 l 1
 250.5 50.5 l 1
 250 50.5 l 1
 0 50.5 l 1
 -0.5 50.5 l 1
 -0.5 50 l 1
 -0.5 -200 l 1
0.5 -199.5 m 1
 0.5 49.5 l 1
 249.5 49.5 l 1
 249.5 -199.5 l 1
 0.5 -199.5 l 1
0 -200 m 1
 0 50 l 1
 250 50 l 1
 250 -200 l 1
 0 -200 l 1
249.5 -200 m 1
 249.5 -200.5 l 1
 250 -200.5 l 1
 500 -200.5 l 1
 500.5 -200.5 l 1
 500.5 -200 l 1
 500.5 50 l 1
 500.5 50.5 l 1
 500 50.5 l 1
 250 50.5 l 1
 249.5 50.5 l 1
 249.5 50 l 1
 249.5 -200 l 1
250.5 -199.5 m 1
 250.5 49.5 l 1
 499.5 49.5 l 1
 499.5 -199.5 l 1
 250.5 -199.5 l 1
250 -200 m 1
 250 50 l 1
 500 50 l 1
 500 -200 l 1
 250 -200 l 1
EndSplineSet
EndChar

StartChar: glyph52
Encoding: 308 1093428 51
Width: 0
VWidth: 0
Flags: H
LayerCount: 2
Fore
SplineSet
-0.5 300 m 1
 -0.5 299.5 l 1
 0 299.5 l 1
 250 299.5 l 1
 250.5 299.5 l 1
 250.5 300 l 1
 250.5 550 l 1
 250.5 550.5 l 1
 250 550.5 l 1
 0 550.5 l 1
 -0.5 550.5 l 1
 -0.5 550 l 1
 -0.5 300 l 1
0.5 300.5 m 1
 0.5 549.5 l 1
 249.5 549.5 l 1
 249.5 300.5 l 1
 0.5 300.5 l 1
0 300 m 1
 0 550 l 1
 250 550 l 1
 250 300 l 1
 0 300 l 1
249.5 300 m 1
 249.5 299.5 l 1
 250 299.5 l 1
 500 299.5 l 1
 500.5 299.5 l 1
 500.5 300 l 1
 500.5 550 l 1
 500.5 550.5 l 1
 500 550.5 l 1
 250 550.5 l 1
 249.5 550.5 l 1
 249.5 550 l 1
 249.5 300 l 1
250.5 300.5 m 1
 250.5 549.5 l 1
 499.5 549.5 l 1
 499.5 300.5 l 1
 250.5 300.5 l 1
250 300 m 1
 250 550 l 1
 500 550 l 1
 500 300 l 1
 250 300 l 1
249.5 50 m 1
 249.5 49.5 l 1
 250 49.5 l 1
 500 49.5 l 1
 500.5 49.5 l 1
 500.5 50 l 1
 500.5 300 l 1
 500.5 300.5 l 1
 500 300.5 l 1
 250 300.5 l 1
 249.5 300.5 l 1
 249.5 300 l 1
 249.5 50 l 1
250.5 50.5 m 1
 250.5 299.5 l 1
 499.5 299.5 l 1
 499.5 50.5 l 1
 250.5 50.5 l 1
250 50 m 1
 250 300 l 1
 500 300 l 1
 500 50 l 1
 250 50 l 1
EndSplineSet
EndChar

StartChar: glyph53
Encoding: 309 1093429 52
Width: 0
VWidth: 0
Flags: H
LayerCount: 2
Fore
SplineSet
-0.5 300 m 1
 -0.5 299.5 l 1
 0 299.5 l 1
 250 299.5 l 1
 250.5 299.5 l 1
 250.5 300 l 1
 250.5 550 l 1
 250.5 550.5 l 1
 250 550.5 l 1
 0 550.5 l 1
 -0.5 550.5 l 1
 -0.5 550 l 1
 -0.5 300 l 1
0.5 300.5 m 1
 0.5 549.5 l 1
 249.5 549.5 l 1
 249.5 300.5 l 1
 0.5 300.5 l 1
0 300 m 1
 0 550 l 1
 250 550 l 1
 250 300 l 1
 0 300 l 1
249.5 300 m 1
 249.5 299.5 l 1
 250 299.5 l 1
 500 299.5 l 1
 500.5 299.5 l 1
 500.5 300 l 1
 500.5 550 l 1
 500.5 550.5 l 1
 500 550.5 l 1
 250 550.5 l 1
 249.5 550.5 l 1
 249.5 550 l 1
 249.5 300 l 1
250.5 300.5 m 1
 250.5 549.5 l 1
 499.5 549.5 l 1
 499.5 300.5 l 1
 250.5 300.5 l 1
250 300 m 1
 250 550 l 1
 500 550 l 1
 500 300 l 1
 250 300 l 1
249.5 50 m 1
 249.5 49.5 l 1
 250 49.5 l 1
 500 49.5 l 1
 500.5 49.5 l 1
 500.5 50 l 1
 500.5 300 l 1
 500.5 300.5 l 1
 500 300.5 l 1
 250 300.5 l 1
 249.5 300.5 l 1
 249.5 300 l 1
 249.5 50 l 1
250.5 50.5 m 1
 250.5 299.5 l 1
 499.5 299.5 l 1
 499.5 50.5 l 1
 250.5 50.5 l 1
250 50 m 1
 250 300 l 1
 500 300 l 1
 500 50 l 1
 250 50 l 1
249.5 -200 m 1
 249.5 -200.5 l 1
 250 -200.5 l 1
 500 -200.5 l 1
 500.5 -200.5 l 1
 500.5 -200 l 1
 500.5 50 l 1
 500.5 50.5 l 1
 500 50.5 l 1
 250 50.5 l 1
 249.5 50.5 l 1
 249.5 50 l 1
 249.5 -200 l 1
250.5 -199.5 m 1
 250.5 49.5 l 1
 499.5 49.5 l 1
 499.5 -199.5 l 1
 250.5 -199.5 l 1
250 -200 m 1
 250 50 l 1
 500 50 l 1
 500 -200 l 1
 250 -200 l 1
EndSplineSet
EndChar

StartChar: glyph54
Encoding: 310 1093430 53
Width: 0
VWidth: 0
Flags: H
LayerCount: 2
Fore
SplineSet
-0.5 300 m 1
 -0.5 299.5 l 1
 0 299.5 l 1
 250 299.5 l 1
 250.5 299.5 l 1
 250.5 300 l 1
 250.5 550 l 1
 250.5 550.5 l 1
 250 550.5 l 1
 0 550.5 l 1
 -0.5 550.5 l 1
 -0.5 550 l 1
 -0.5 300 l 1
0.5 300.5 m 1
 0.5 549.5 l 1
 249.5 549.5 l 1
 249.5 300.5 l 1
 0.5 300.5 l 1
0 300 m 1
 0 550 l 1
 250 550 l 1
 250 300 l 1
 0 300 l 1
249.5 300 m 1
 249.5 299.5 l 1
 250 299.5 l 1
 500 299.5 l 1
 500.5 299.5 l 1
 500.5 300 l 1
 500.5 550 l 1
 500.5 550.5 l 1
 500 550.5 l 1
 250 550.5 l 1
 249.5 550.5 l 1
 249.5 550 l 1
 249.5 300 l 1
250.5 300.5 m 1
 250.5 549.5 l 1
 499.5 549.5 l 1
 499.5 300.5 l 1
 250.5 300.5 l 1
250 300 m 1
 250 550 l 1
 500 550 l 1
 500 300 l 1
 250 300 l 1
249.5 50 m 1
 249.5 49.5 l 1
 250 49.5 l 1
 500 49.5 l 1
 500.5 49.5 l 1
 500.5 50 l 1
 500.5 300 l 1
 500.5 300.5 l 1
 500 300.5 l 1
 250 300.5 l 1
 249.5 300.5 l 1
 249.5 300 l 1
 249.5 50 l 1
250.5 50.5 m 1
 250.5 299.5 l 1
 499.5 299.5 l 1
 499.5 50.5 l 1
 250.5 50.5 l 1
250 50 m 1
 250 300 l 1
 500 300 l 1
 500 50 l 1
 250 50 l 1
-0.5 -200 m 1
 -0.5 -200.5 l 1
 0 -200.5 l 1
 250 -200.5 l 1
 250.5 -200.5 l 1
 250.5 -200 l 1
 250.5 50 l 1
 250.5 50.5 l 1
 250 50.5 l 1
 0 50.5 l 1
 -0.5 50.5 l 1
 -0.5 50 l 1
 -0.5 -200 l 1
0.5 -199.5 m 1
 0.5 49.5 l 1
 249.5 49.5 l 1
 249.5 -199.5 l 1
 0.5 -199.5 l 1
0 -200 m 1
 0 50 l 1
 250 50 l 1
 250 -200 l 1
 0 -200 l 1
EndSplineSet
EndChar

StartChar: glyph55
Encoding: 311 1093431 54
Width: 0
VWidth: 0
Flags: H
LayerCount: 2
Fore
SplineSet
-0.5 300 m 1
 -0.5 299.5 l 1
 0 299.5 l 1
 250 299.5 l 1
 250.5 299.5 l 1
 250.5 300 l 1
 250.5 550 l 1
 250.5 550.5 l 1
 250 550.5 l 1
 0 550.5 l 1
 -0.5 550.5 l 1
 -0.5 550 l 1
 -0.5 300 l 1
0.5 300.5 m 1
 0.5 549.5 l 1
 249.5 549.5 l 1
 249.5 300.5 l 1
 0.5 300.5 l 1
0 300 m 1
 0 550 l 1
 250 550 l 1
 250 300 l 1
 0 300 l 1
249.5 300 m 1
 249.5 299.5 l 1
 250 299.5 l 1
 500 299.5 l 1
 500.5 299.5 l 1
 500.5 300 l 1
 500.5 550 l 1
 500.5 550.5 l 1
 500 550.5 l 1
 250 550.5 l 1
 249.5 550.5 l 1
 249.5 550 l 1
 249.5 300 l 1
250.5 300.5 m 1
 250.5 549.5 l 1
 499.5 549.5 l 1
 499.5 300.5 l 1
 250.5 300.5 l 1
250 300 m 1
 250 550 l 1
 500 550 l 1
 500 300 l 1
 250 300 l 1
249.5 50 m 1
 249.5 49.5 l 1
 250 49.5 l 1
 500 49.5 l 1
 500.5 49.5 l 1
 500.5 50 l 1
 500.5 300 l 1
 500.5 300.5 l 1
 500 300.5 l 1
 250 300.5 l 1
 249.5 300.5 l 1
 249.5 300 l 1
 249.5 50 l 1
250.5 50.5 m 1
 250.5 299.5 l 1
 499.5 299.5 l 1
 499.5 50.5 l 1
 250.5 50.5 l 1
250 50 m 1
 250 300 l 1
 500 300 l 1
 500 50 l 1
 250 50 l 1
-0.5 -200 m 1
 -0.5 -200.5 l 1
 0 -200.5 l 1
 250 -200.5 l 1
 250.5 -200.5 l 1
 250.5 -200 l 1
 250.5 50 l 1
 250.5 50.5 l 1
 250 50.5 l 1
 0 50.5 l 1
 -0.5 50.5 l 1
 -0.5 50 l 1
 -0.5 -200 l 1
0.5 -199.5 m 1
 0.5 49.5 l 1
 249.5 49.5 l 1
 249.5 -199.5 l 1
 0.5 -199.5 l 1
0 -200 m 1
 0 50 l 1
 250 50 l 1
 250 -200 l 1
 0 -200 l 1
249.5 -200 m 1
 249.5 -200.5 l 1
 250 -200.5 l 1
 500 -200.5 l 1
 500.5 -200.5 l 1
 500.5 -200 l 1
 500.5 50 l 1
 500.5 50.5 l 1
 500 50.5 l 1
 250 50.5 l 1
 249.5 50.5 l 1
 249.5 50 l 1
 249.5 -200 l 1
250.5 -199.5 m 1
 250.5 49.5 l 1
 499.5 49.5 l 1
 499.5 -199.5 l 1
 250.5 -199.5 l 1
250 -200 m 1
 250 50 l 1
 500 50 l 1
 500 -200 l 1
 250 -200 l 1
EndSplineSet
EndChar

StartChar: glyph56
Encoding: 312 1093432 55
Width: 0
VWidth: 0
Flags: H
LayerCount: 2
Fore
SplineSet
-0.5 300 m 1
 -0.5 299.5 l 1
 0 299.5 l 1
 250 299.5 l 1
 250.5 299.5 l 1
 250.5 300 l 1
 250.5 550 l 1
 250.5 550.5 l 1
 250 550.5 l 1
 0 550.5 l 1
 -0.5 550.5 l 1
 -0.5 550 l 1
 -0.5 300 l 1
0.5 300.5 m 1
 0.5 549.5 l 1
 249.5 549.5 l 1
 249.5 300.5 l 1
 0.5 300.5 l 1
0 300 m 1
 0 550 l 1
 250 550 l 1
 250 300 l 1
 0 300 l 1
249.5 300 m 1
 249.5 299.5 l 1
 250 299.5 l 1
 500 299.5 l 1
 500.5 299.5 l 1
 500.5 300 l 1
 500.5 550 l 1
 500.5 550.5 l 1
 500 550.5 l 1
 250 550.5 l 1
 249.5 550.5 l 1
 249.5 550 l 1
 249.5 300 l 1
250.5 300.5 m 1
 250.5 549.5 l 1
 499.5 549.5 l 1
 499.5 300.5 l 1
 250.5 300.5 l 1
250 300 m 1
 250 550 l 1
 500 550 l 1
 500 300 l 1
 250 300 l 1
-0.5 50 m 1
 -0.5 49.5 l 1
 0 49.5 l 1
 250 49.5 l 1
 250.5 49.5 l 1
 250.5 50 l 1
 250.5 300 l 1
 250.5 300.5 l 1
 250 300.5 l 1
 0 300.5 l 1
 -0.5 300.5 l 1
 -0.5 300 l 1
 -0.5 50 l 1
0.5 50.5 m 1
 0.5 299.5 l 1
 249.5 299.5 l 1
 249.5 50.5 l 1
 0.5 50.5 l 1
0 50 m 1
 0 300 l 1
 250 300 l 1
 250 50 l 1
 0 50 l 1
EndSplineSet
EndChar

StartChar: glyph57
Encoding: 313 1093433 56
Width: 0
VWidth: 0
Flags: H
LayerCount: 2
Fore
SplineSet
-0.5 300 m 1
 -0.5 299.5 l 1
 0 299.5 l 1
 250 299.5 l 1
 250.5 299.5 l 1
 250.5 300 l 1
 250.5 550 l 1
 250.5 550.5 l 1
 250 550.5 l 1
 0 550.5 l 1
 -0.5 550.5 l 1
 -0.5 550 l 1
 -0.5 300 l 1
0.5 300.5 m 1
 0.5 549.5 l 1
 249.5 549.5 l 1
 249.5 300.5 l 1
 0.5 300.5 l 1
0 300 m 1
 0 550 l 1
 250 550 l 1
 250 300 l 1
 0 300 l 1
249.5 300 m 1
 249.5 299.5 l 1
 250 299.5 l 1
 500 299.5 l 1
 500.5 299.5 l 1
 500.5 300 l 1
 500.5 550 l 1
 500.5 550.5 l 1
 500 550.5 l 1
 250 550.5 l 1
 249.5 550.5 l 1
 249.5 550 l 1
 249.5 300 l 1
250.5 300.5 m 1
 250.5 549.5 l 1
 499.5 549.5 l 1
 499.5 300.5 l 1
 250.5 300.5 l 1
250 300 m 1
 250 550 l 1
 500 550 l 1
 500 300 l 1
 250 300 l 1
-0.5 50 m 1
 -0.5 49.5 l 1
 0 49.5 l 1
 250 49.5 l 1
 250.5 49.5 l 1
 250.5 50 l 1
 250.5 300 l 1
 250.5 300.5 l 1
 250 300.5 l 1
 0 300.5 l 1
 -0.5 300.5 l 1
 -0.5 300 l 1
 -0.5 50 l 1
0.5 50.5 m 1
 0.5 299.5 l 1
 249.5 299.5 l 1
 249.5 50.5 l 1
 0.5 50.5 l 1
0 50 m 1
 0 300 l 1
 250 300 l 1
 250 50 l 1
 0 50 l 1
249.5 -200 m 1
 249.5 -200.5 l 1
 250 -200.5 l 1
 500 -200.5 l 1
 500.5 -200.5 l 1
 500.5 -200 l 1
 500.5 50 l 1
 500.5 50.5 l 1
 500 50.5 l 1
 250 50.5 l 1
 249.5 50.5 l 1
 249.5 50 l 1
 249.5 -200 l 1
250.5 -199.5 m 1
 250.5 49.5 l 1
 499.5 49.5 l 1
 499.5 -199.5 l 1
 250.5 -199.5 l 1
250 -200 m 1
 250 50 l 1
 500 50 l 1
 500 -200 l 1
 250 -200 l 1
EndSplineSet
EndChar

StartChar: glyph58
Encoding: 314 1093434 57
Width: 0
VWidth: 0
Flags: H
LayerCount: 2
Fore
SplineSet
-0.5 300 m 1
 -0.5 299.5 l 1
 0 299.5 l 1
 250 299.5 l 1
 250.5 299.5 l 1
 250.5 300 l 1
 250.5 550 l 1
 250.5 550.5 l 1
 250 550.5 l 1
 0 550.5 l 1
 -0.5 550.5 l 1
 -0.5 550 l 1
 -0.5 300 l 1
0.5 300.5 m 1
 0.5 549.5 l 1
 249.5 549.5 l 1
 249.5 300.5 l 1
 0.5 300.5 l 1
0 300 m 1
 0 550 l 1
 250 550 l 1
 250 300 l 1
 0 300 l 1
249.5 300 m 1
 249.5 299.5 l 1
 250 299.5 l 1
 500 299.5 l 1
 500.5 299.5 l 1
 500.5 300 l 1
 500.5 550 l 1
 500.5 550.5 l 1
 500 550.5 l 1
 250 550.5 l 1
 249.5 550.5 l 1
 249.5 550 l 1
 249.5 300 l 1
250.5 300.5 m 1
 250.5 549.5 l 1
 499.5 549.5 l 1
 499.5 300.5 l 1
 250.5 300.5 l 1
250 300 m 1
 250 550 l 1
 500 550 l 1
 500 300 l 1
 250 300 l 1
-0.5 50 m 1
 -0.5 49.5 l 1
 0 49.5 l 1
 250 49.5 l 1
 250.5 49.5 l 1
 250.5 50 l 1
 250.5 300 l 1
 250.5 300.5 l 1
 250 300.5 l 1
 0 300.5 l 1
 -0.5 300.5 l 1
 -0.5 300 l 1
 -0.5 50 l 1
0.5 50.5 m 1
 0.5 299.5 l 1
 249.5 299.5 l 1
 249.5 50.5 l 1
 0.5 50.5 l 1
0 50 m 1
 0 300 l 1
 250 300 l 1
 250 50 l 1
 0 50 l 1
-0.5 -200 m 1
 -0.5 -200.5 l 1
 0 -200.5 l 1
 250 -200.5 l 1
 250.5 -200.5 l 1
 250.5 -200 l 1
 250.5 50 l 1
 250.5 50.5 l 1
 250 50.5 l 1
 0 50.5 l 1
 -0.5 50.5 l 1
 -0.5 50 l 1
 -0.5 -200 l 1
0.5 -199.5 m 1
 0.5 49.5 l 1
 249.5 49.5 l 1
 249.5 -199.5 l 1
 0.5 -199.5 l 1
0 -200 m 1
 0 50 l 1
 250 50 l 1
 250 -200 l 1
 0 -200 l 1
EndSplineSet
EndChar

StartChar: glyph59
Encoding: 315 1093435 58
Width: 0
VWidth: 0
Flags: H
LayerCount: 2
Fore
SplineSet
-0.5 300 m 1
 -0.5 299.5 l 1
 0 299.5 l 1
 250 299.5 l 1
 250.5 299.5 l 1
 250.5 300 l 1
 250.5 550 l 1
 250.5 550.5 l 1
 250 550.5 l 1
 0 550.5 l 1
 -0.5 550.5 l 1
 -0.5 550 l 1
 -0.5 300 l 1
0.5 300.5 m 1
 0.5 549.5 l 1
 249.5 549.5 l 1
 249.5 300.5 l 1
 0.5 300.5 l 1
0 300 m 1
 0 550 l 1
 250 550 l 1
 250 300 l 1
 0 300 l 1
249.5 300 m 1
 249.5 299.5 l 1
 250 299.5 l 1
 500 299.5 l 1
 500.5 299.5 l 1
 500.5 300 l 1
 500.5 550 l 1
 500.5 550.5 l 1
 500 550.5 l 1
 250 550.5 l 1
 249.5 550.5 l 1
 249.5 550 l 1
 249.5 300 l 1
250.5 300.5 m 1
 250.5 549.5 l 1
 499.5 549.5 l 1
 499.5 300.5 l 1
 250.5 300.5 l 1
250 300 m 1
 250 550 l 1
 500 550 l 1
 500 300 l 1
 250 300 l 1
-0.5 50 m 1
 -0.5 49.5 l 1
 0 49.5 l 1
 250 49.5 l 1
 250.5 49.5 l 1
 250.5 50 l 1
 250.5 300 l 1
 250.5 300.5 l 1
 250 300.5 l 1
 0 300.5 l 1
 -0.5 300.5 l 1
 -0.5 300 l 1
 -0.5 50 l 1
0.5 50.5 m 1
 0.5 299.5 l 1
 249.5 299.5 l 1
 249.5 50.5 l 1
 0.5 50.5 l 1
0 50 m 1
 0 300 l 1
 250 300 l 1
 250 50 l 1
 0 50 l 1
-0.5 -200 m 1
 -0.5 -200.5 l 1
 0 -200.5 l 1
 250 -200.5 l 1
 250.5 -200.5 l 1
 250.5 -200 l 1
 250.5 50 l 1
 250.5 50.5 l 1
 250 50.5 l 1
 0 50.5 l 1
 -0.5 50.5 l 1
 -0.5 50 l 1
 -0.5 -200 l 1
0.5 -199.5 m 1
 0.5 49.5 l 1
 249.5 49.5 l 1
 249.5 -199.5 l 1
 0.5 -199.5 l 1
0 -200 m 1
 0 50 l 1
 250 50 l 1
 250 -200 l 1
 0 -200 l 1
249.5 -200 m 1
 249.5 -200.5 l 1
 250 -200.5 l 1
 500 -200.5 l 1
 500.5 -200.5 l 1
 500.5 -200 l 1
 500.5 50 l 1
 500.5 50.5 l 1
 500 50.5 l 1
 250 50.5 l 1
 249.5 50.5 l 1
 249.5 50 l 1
 249.5 -200 l 1
250.5 -199.5 m 1
 250.5 49.5 l 1
 499.5 49.5 l 1
 499.5 -199.5 l 1
 250.5 -199.5 l 1
250 -200 m 1
 250 50 l 1
 500 50 l 1
 500 -200 l 1
 250 -200 l 1
EndSplineSet
EndChar

StartChar: glyph60
Encoding: 316 1093436 59
Width: 0
VWidth: 0
Flags: H
LayerCount: 2
Fore
SplineSet
-0.5 300 m 1
 -0.5 299.5 l 1
 0 299.5 l 1
 250 299.5 l 1
 250.5 299.5 l 1
 250.5 300 l 1
 250.5 550 l 1
 250.5 550.5 l 1
 250 550.5 l 1
 0 550.5 l 1
 -0.5 550.5 l 1
 -0.5 550 l 1
 -0.5 300 l 1
0.5 300.5 m 1
 0.5 549.5 l 1
 249.5 549.5 l 1
 249.5 300.5 l 1
 0.5 300.5 l 1
0 300 m 1
 0 550 l 1
 250 550 l 1
 250 300 l 1
 0 300 l 1
249.5 300 m 1
 249.5 299.5 l 1
 250 299.5 l 1
 500 299.5 l 1
 500.5 299.5 l 1
 500.5 300 l 1
 500.5 550 l 1
 500.5 550.5 l 1
 500 550.5 l 1
 250 550.5 l 1
 249.5 550.5 l 1
 249.5 550 l 1
 249.5 300 l 1
250.5 300.5 m 1
 250.5 549.5 l 1
 499.5 549.5 l 1
 499.5 300.5 l 1
 250.5 300.5 l 1
250 300 m 1
 250 550 l 1
 500 550 l 1
 500 300 l 1
 250 300 l 1
-0.5 50 m 1
 -0.5 49.5 l 1
 0 49.5 l 1
 250 49.5 l 1
 250.5 49.5 l 1
 250.5 50 l 1
 250.5 300 l 1
 250.5 300.5 l 1
 250 300.5 l 1
 0 300.5 l 1
 -0.5 300.5 l 1
 -0.5 300 l 1
 -0.5 50 l 1
0.5 50.5 m 1
 0.5 299.5 l 1
 249.5 299.5 l 1
 249.5 50.5 l 1
 0.5 50.5 l 1
0 50 m 1
 0 300 l 1
 250 300 l 1
 250 50 l 1
 0 50 l 1
249.5 50 m 1
 249.5 49.5 l 1
 250 49.5 l 1
 500 49.5 l 1
 500.5 49.5 l 1
 500.5 50 l 1
 500.5 300 l 1
 500.5 300.5 l 1
 500 300.5 l 1
 250 300.5 l 1
 249.5 300.5 l 1
 249.5 300 l 1
 249.5 50 l 1
250.5 50.5 m 1
 250.5 299.5 l 1
 499.5 299.5 l 1
 499.5 50.5 l 1
 250.5 50.5 l 1
250 50 m 1
 250 300 l 1
 500 300 l 1
 500 50 l 1
 250 50 l 1
EndSplineSet
EndChar

StartChar: glyph61
Encoding: 317 1093437 60
Width: 0
VWidth: 0
Flags: H
LayerCount: 2
Fore
SplineSet
-0.5 300 m 1
 -0.5 299.5 l 1
 0 299.5 l 1
 250 299.5 l 1
 250.5 299.5 l 1
 250.5 300 l 1
 250.5 550 l 1
 250.5 550.5 l 1
 250 550.5 l 1
 0 550.5 l 1
 -0.5 550.5 l 1
 -0.5 550 l 1
 -0.5 300 l 1
0.5 300.5 m 1
 0.5 549.5 l 1
 249.5 549.5 l 1
 249.5 300.5 l 1
 0.5 300.5 l 1
0 300 m 1
 0 550 l 1
 250 550 l 1
 250 300 l 1
 0 300 l 1
249.5 300 m 1
 249.5 299.5 l 1
 250 299.5 l 1
 500 299.5 l 1
 500.5 299.5 l 1
 500.5 300 l 1
 500.5 550 l 1
 500.5 550.5 l 1
 500 550.5 l 1
 250 550.5 l 1
 249.5 550.5 l 1
 249.5 550 l 1
 249.5 300 l 1
250.5 300.5 m 1
 250.5 549.5 l 1
 499.5 549.5 l 1
 499.5 300.5 l 1
 250.5 300.5 l 1
250 300 m 1
 250 550 l 1
 500 550 l 1
 500 300 l 1
 250 300 l 1
-0.5 50 m 1
 -0.5 49.5 l 1
 0 49.5 l 1
 250 49.5 l 1
 250.5 49.5 l 1
 250.5 50 l 1
 250.5 300 l 1
 250.5 300.5 l 1
 250 300.5 l 1
 0 300.5 l 1
 -0.5 300.5 l 1
 -0.5 300 l 1
 -0.5 50 l 1
0.5 50.5 m 1
 0.5 299.5 l 1
 249.5 299.5 l 1
 249.5 50.5 l 1
 0.5 50.5 l 1
0 50 m 1
 0 300 l 1
 250 300 l 1
 250 50 l 1
 0 50 l 1
249.5 50 m 1
 249.5 49.5 l 1
 250 49.5 l 1
 500 49.5 l 1
 500.5 49.5 l 1
 500.5 50 l 1
 500.5 300 l 1
 500.5 300.5 l 1
 500 300.5 l 1
 250 300.5 l 1
 249.5 300.5 l 1
 249.5 300 l 1
 249.5 50 l 1
250.5 50.5 m 1
 250.5 299.5 l 1
 499.5 299.5 l 1
 499.5 50.5 l 1
 250.5 50.5 l 1
250 50 m 1
 250 300 l 1
 500 300 l 1
 500 50 l 1
 250 50 l 1
249.5 -200 m 1
 249.5 -200.5 l 1
 250 -200.5 l 1
 500 -200.5 l 1
 500.5 -200.5 l 1
 500.5 -200 l 1
 500.5 50 l 1
 500.5 50.5 l 1
 500 50.5 l 1
 250 50.5 l 1
 249.5 50.5 l 1
 249.5 50 l 1
 249.5 -200 l 1
250.5 -199.5 m 1
 250.5 49.5 l 1
 499.5 49.5 l 1
 499.5 -199.5 l 1
 250.5 -199.5 l 1
250 -200 m 1
 250 50 l 1
 500 50 l 1
 500 -200 l 1
 250 -200 l 1
EndSplineSet
EndChar

StartChar: glyph62
Encoding: 318 1093438 61
Width: 0
VWidth: 0
Flags: H
LayerCount: 2
Fore
SplineSet
-0.5 300 m 1
 -0.5 299.5 l 1
 0 299.5 l 1
 250 299.5 l 1
 250.5 299.5 l 1
 250.5 300 l 1
 250.5 550 l 1
 250.5 550.5 l 1
 250 550.5 l 1
 0 550.5 l 1
 -0.5 550.5 l 1
 -0.5 550 l 1
 -0.5 300 l 1
0.5 300.5 m 1
 0.5 549.5 l 1
 249.5 549.5 l 1
 249.5 300.5 l 1
 0.5 300.5 l 1
0 300 m 1
 0 550 l 1
 250 550 l 1
 250 300 l 1
 0 300 l 1
249.5 300 m 1
 249.5 299.5 l 1
 250 299.5 l 1
 500 299.5 l 1
 500.5 299.5 l 1
 500.5 300 l 1
 500.5 550 l 1
 500.5 550.5 l 1
 500 550.5 l 1
 250 550.5 l 1
 249.5 550.5 l 1
 249.5 550 l 1
 249.5 300 l 1
250.5 300.5 m 1
 250.5 549.5 l 1
 499.5 549.5 l 1
 499.5 300.5 l 1
 250.5 300.5 l 1
250 300 m 1
 250 550 l 1
 500 550 l 1
 500 300 l 1
 250 300 l 1
-0.5 50 m 1
 -0.5 49.5 l 1
 0 49.5 l 1
 250 49.5 l 1
 250.5 49.5 l 1
 250.5 50 l 1
 250.5 300 l 1
 250.5 300.5 l 1
 250 300.5 l 1
 0 300.5 l 1
 -0.5 300.5 l 1
 -0.5 300 l 1
 -0.5 50 l 1
0.5 50.5 m 1
 0.5 299.5 l 1
 249.5 299.5 l 1
 249.5 50.5 l 1
 0.5 50.5 l 1
0 50 m 1
 0 300 l 1
 250 300 l 1
 250 50 l 1
 0 50 l 1
249.5 50 m 1
 249.5 49.5 l 1
 250 49.5 l 1
 500 49.5 l 1
 500.5 49.5 l 1
 500.5 50 l 1
 500.5 300 l 1
 500.5 300.5 l 1
 500 300.5 l 1
 250 300.5 l 1
 249.5 300.5 l 1
 249.5 300 l 1
 249.5 50 l 1
250.5 50.5 m 1
 250.5 299.5 l 1
 499.5 299.5 l 1
 499.5 50.5 l 1
 250.5 50.5 l 1
250 50 m 1
 250 300 l 1
 500 300 l 1
 500 50 l 1
 250 50 l 1
-0.5 -200 m 1
 -0.5 -200.5 l 1
 0 -200.5 l 1
 250 -200.5 l 1
 250.5 -200.5 l 1
 250.5 -200 l 1
 250.5 50 l 1
 250.5 50.5 l 1
 250 50.5 l 1
 0 50.5 l 1
 -0.5 50.5 l 1
 -0.5 50 l 1
 -0.5 -200 l 1
0.5 -199.5 m 1
 0.5 49.5 l 1
 249.5 49.5 l 1
 249.5 -199.5 l 1
 0.5 -199.5 l 1
0 -200 m 1
 0 50 l 1
 250 50 l 1
 250 -200 l 1
 0 -200 l 1
EndSplineSet
EndChar

StartChar: glyph63
Encoding: 319 1093439 62
Width: 0
VWidth: 0
Flags: H
LayerCount: 2
Fore
SplineSet
-0.5 300 m 1
 -0.5 299.5 l 1
 0 299.5 l 1
 250 299.5 l 1
 250.5 299.5 l 1
 250.5 300 l 1
 250.5 550 l 1
 250.5 550.5 l 1
 250 550.5 l 1
 0 550.5 l 1
 -0.5 550.5 l 1
 -0.5 550 l 1
 -0.5 300 l 1
0.5 300.5 m 1
 0.5 549.5 l 1
 249.5 549.5 l 1
 249.5 300.5 l 1
 0.5 300.5 l 1
0 300 m 1
 0 550 l 1
 250 550 l 1
 250 300 l 1
 0 300 l 1
249.5 300 m 1
 249.5 299.5 l 1
 250 299.5 l 1
 500 299.5 l 1
 500.5 299.5 l 1
 500.5 300 l 1
 500.5 550 l 1
 500.5 550.5 l 1
 500 550.5 l 1
 250 550.5 l 1
 249.5 550.5 l 1
 249.5 550 l 1
 249.5 300 l 1
250.5 300.5 m 1
 250.5 549.5 l 1
 499.5 549.5 l 1
 499.5 300.5 l 1
 250.5 300.5 l 1
250 300 m 1
 250 550 l 1
 500 550 l 1
 500 300 l 1
 250 300 l 1
-0.5 50 m 1
 -0.5 49.5 l 1
 0 49.5 l 1
 250 49.5 l 1
 250.5 49.5 l 1
 250.5 50 l 1
 250.5 300 l 1
 250.5 300.5 l 1
 250 300.5 l 1
 0 300.5 l 1
 -0.5 300.5 l 1
 -0.5 300 l 1
 -0.5 50 l 1
0.5 50.5 m 1
 0.5 299.5 l 1
 249.5 299.5 l 1
 249.5 50.5 l 1
 0.5 50.5 l 1
0 50 m 1
 0 300 l 1
 250 300 l 1
 250 50 l 1
 0 50 l 1
249.5 50 m 1
 249.5 49.5 l 1
 250 49.5 l 1
 500 49.5 l 1
 500.5 49.5 l 1
 500.5 50 l 1
 500.5 300 l 1
 500.5 300.5 l 1
 500 300.5 l 1
 250 300.5 l 1
 249.5 300.5 l 1
 249.5 300 l 1
 249.5 50 l 1
250.5 50.5 m 1
 250.5 299.5 l 1
 499.5 299.5 l 1
 499.5 50.5 l 1
 250.5 50.5 l 1
250 50 m 1
 250 300 l 1
 500 300 l 1
 500 50 l 1
 250 50 l 1
-0.5 -200 m 1
 -0.5 -200.5 l 1
 0 -200.5 l 1
 250 -200.5 l 1
 250.5 -200.5 l 1
 250.5 -200 l 1
 250.5 50 l 1
 250.5 50.5 l 1
 250 50.5 l 1
 0 50.5 l 1
 -0.5 50.5 l 1
 -0.5 50 l 1
 -0.5 -200 l 1
0.5 -199.5 m 1
 0.5 49.5 l 1
 249.5 49.5 l 1
 249.5 -199.5 l 1
 0.5 -199.5 l 1
0 -200 m 1
 0 50 l 1
 250 50 l 1
 250 -200 l 1
 0 -200 l 1
249.5 -200 m 1
 249.5 -200.5 l 1
 250 -200.5 l 1
 500 -200.5 l 1
 500.5 -200.5 l 1
 500.5 -200 l 1
 500.5 50 l 1
 500.5 50.5 l 1
 500 50.5 l 1
 250 50.5 l 1
 249.5 50.5 l 1
 249.5 50 l 1
 249.5 -200 l 1
250.5 -199.5 m 1
 250.5 49.5 l 1
 499.5 49.5 l 1
 499.5 -199.5 l 1
 250.5 -199.5 l 1
250 -200 m 1
 250 50 l 1
 500 50 l 1
 500 -200 l 1
 250 -200 l 1
EndSplineSet
EndChar

StartChar: glyph64
Encoding: 320 1093440 63
Width: 0
VWidth: 0
Flags: H
LayerCount: 2
Fore
SplineSet
249.5 550 m 1
 249.5 549.5 l 1
 250 549.5 l 1
 500 549.5 l 1
 500.5 549.5 l 1
 500.5 550 l 1
 500.5 800 l 1
 500.5 800.5 l 1
 500 800.5 l 1
 250 800.5 l 1
 249.5 800.5 l 1
 249.5 800 l 1
 249.5 550 l 1
250.5 550.5 m 1
 250.5 799.5 l 1
 499.5 799.5 l 1
 499.5 550.5 l 1
 250.5 550.5 l 1
250 550 m 1
 250 800 l 1
 500 800 l 1
 500 550 l 1
 250 550 l 1
EndSplineSet
EndChar

StartChar: glyph65
Encoding: 321 1093441 64
Width: 0
VWidth: 0
Flags: H
LayerCount: 2
Fore
SplineSet
249.5 550 m 1
 249.5 549.5 l 1
 250 549.5 l 1
 500 549.5 l 1
 500.5 549.5 l 1
 500.5 550 l 1
 500.5 800 l 1
 500.5 800.5 l 1
 500 800.5 l 1
 250 800.5 l 1
 249.5 800.5 l 1
 249.5 800 l 1
 249.5 550 l 1
250.5 550.5 m 1
 250.5 799.5 l 1
 499.5 799.5 l 1
 499.5 550.5 l 1
 250.5 550.5 l 1
250 550 m 1
 250 800 l 1
 500 800 l 1
 500 550 l 1
 250 550 l 1
249.5 -200 m 1
 249.5 -200.5 l 1
 250 -200.5 l 1
 500 -200.5 l 1
 500.5 -200.5 l 1
 500.5 -200 l 1
 500.5 50 l 1
 500.5 50.5 l 1
 500 50.5 l 1
 250 50.5 l 1
 249.5 50.5 l 1
 249.5 50 l 1
 249.5 -200 l 1
250.5 -199.5 m 1
 250.5 49.5 l 1
 499.5 49.5 l 1
 499.5 -199.5 l 1
 250.5 -199.5 l 1
250 -200 m 1
 250 50 l 1
 500 50 l 1
 500 -200 l 1
 250 -200 l 1
EndSplineSet
EndChar

StartChar: glyph66
Encoding: 322 1093442 65
Width: 0
VWidth: 0
Flags: H
LayerCount: 2
Fore
SplineSet
249.5 550 m 1
 249.5 549.5 l 1
 250 549.5 l 1
 500 549.5 l 1
 500.5 549.5 l 1
 500.5 550 l 1
 500.5 800 l 1
 500.5 800.5 l 1
 500 800.5 l 1
 250 800.5 l 1
 249.5 800.5 l 1
 249.5 800 l 1
 249.5 550 l 1
250.5 550.5 m 1
 250.5 799.5 l 1
 499.5 799.5 l 1
 499.5 550.5 l 1
 250.5 550.5 l 1
250 550 m 1
 250 800 l 1
 500 800 l 1
 500 550 l 1
 250 550 l 1
-0.5 -200 m 1
 -0.5 -200.5 l 1
 0 -200.5 l 1
 250 -200.5 l 1
 250.5 -200.5 l 1
 250.5 -200 l 1
 250.5 50 l 1
 250.5 50.5 l 1
 250 50.5 l 1
 0 50.5 l 1
 -0.5 50.5 l 1
 -0.5 50 l 1
 -0.5 -200 l 1
0.5 -199.5 m 1
 0.5 49.5 l 1
 249.5 49.5 l 1
 249.5 -199.5 l 1
 0.5 -199.5 l 1
0 -200 m 1
 0 50 l 1
 250 50 l 1
 250 -200 l 1
 0 -200 l 1
EndSplineSet
EndChar

StartChar: glyph67
Encoding: 323 1093443 66
Width: 0
VWidth: 0
Flags: H
LayerCount: 2
Fore
SplineSet
249.5 550 m 1
 249.5 549.5 l 1
 250 549.5 l 1
 500 549.5 l 1
 500.5 549.5 l 1
 500.5 550 l 1
 500.5 800 l 1
 500.5 800.5 l 1
 500 800.5 l 1
 250 800.5 l 1
 249.5 800.5 l 1
 249.5 800 l 1
 249.5 550 l 1
250.5 550.5 m 1
 250.5 799.5 l 1
 499.5 799.5 l 1
 499.5 550.5 l 1
 250.5 550.5 l 1
250 550 m 1
 250 800 l 1
 500 800 l 1
 500 550 l 1
 250 550 l 1
-0.5 -200 m 1
 -0.5 -200.5 l 1
 0 -200.5 l 1
 250 -200.5 l 1
 250.5 -200.5 l 1
 250.5 -200 l 1
 250.5 50 l 1
 250.5 50.5 l 1
 250 50.5 l 1
 0 50.5 l 1
 -0.5 50.5 l 1
 -0.5 50 l 1
 -0.5 -200 l 1
0.5 -199.5 m 1
 0.5 49.5 l 1
 249.5 49.5 l 1
 249.5 -199.5 l 1
 0.5 -199.5 l 1
0 -200 m 1
 0 50 l 1
 250 50 l 1
 250 -200 l 1
 0 -200 l 1
249.5 -200 m 1
 249.5 -200.5 l 1
 250 -200.5 l 1
 500 -200.5 l 1
 500.5 -200.5 l 1
 500.5 -200 l 1
 500.5 50 l 1
 500.5 50.5 l 1
 500 50.5 l 1
 250 50.5 l 1
 249.5 50.5 l 1
 249.5 50 l 1
 249.5 -200 l 1
250.5 -199.5 m 1
 250.5 49.5 l 1
 499.5 49.5 l 1
 499.5 -199.5 l 1
 250.5 -199.5 l 1
250 -200 m 1
 250 50 l 1
 500 50 l 1
 500 -200 l 1
 250 -200 l 1
EndSplineSet
EndChar

StartChar: glyph68
Encoding: 324 1093444 67
Width: 0
VWidth: 0
Flags: H
LayerCount: 2
Fore
SplineSet
249.5 550 m 1
 249.5 549.5 l 1
 250 549.5 l 1
 500 549.5 l 1
 500.5 549.5 l 1
 500.5 550 l 1
 500.5 800 l 1
 500.5 800.5 l 1
 500 800.5 l 1
 250 800.5 l 1
 249.5 800.5 l 1
 249.5 800 l 1
 249.5 550 l 1
250.5 550.5 m 1
 250.5 799.5 l 1
 499.5 799.5 l 1
 499.5 550.5 l 1
 250.5 550.5 l 1
250 550 m 1
 250 800 l 1
 500 800 l 1
 500 550 l 1
 250 550 l 1
249.5 50 m 1
 249.5 49.5 l 1
 250 49.5 l 1
 500 49.5 l 1
 500.5 49.5 l 1
 500.5 50 l 1
 500.5 300 l 1
 500.5 300.5 l 1
 500 300.5 l 1
 250 300.5 l 1
 249.5 300.5 l 1
 249.5 300 l 1
 249.5 50 l 1
250.5 50.5 m 1
 250.5 299.5 l 1
 499.5 299.5 l 1
 499.5 50.5 l 1
 250.5 50.5 l 1
250 50 m 1
 250 300 l 1
 500 300 l 1
 500 50 l 1
 250 50 l 1
EndSplineSet
EndChar

StartChar: glyph69
Encoding: 325 1093445 68
Width: 0
VWidth: 0
Flags: H
LayerCount: 2
Fore
SplineSet
249.5 550 m 1
 249.5 549.5 l 1
 250 549.5 l 1
 500 549.5 l 1
 500.5 549.5 l 1
 500.5 550 l 1
 500.5 800 l 1
 500.5 800.5 l 1
 500 800.5 l 1
 250 800.5 l 1
 249.5 800.5 l 1
 249.5 800 l 1
 249.5 550 l 1
250.5 550.5 m 1
 250.5 799.5 l 1
 499.5 799.5 l 1
 499.5 550.5 l 1
 250.5 550.5 l 1
250 550 m 1
 250 800 l 1
 500 800 l 1
 500 550 l 1
 250 550 l 1
249.5 50 m 1
 249.5 49.5 l 1
 250 49.5 l 1
 500 49.5 l 1
 500.5 49.5 l 1
 500.5 50 l 1
 500.5 300 l 1
 500.5 300.5 l 1
 500 300.5 l 1
 250 300.5 l 1
 249.5 300.5 l 1
 249.5 300 l 1
 249.5 50 l 1
250.5 50.5 m 1
 250.5 299.5 l 1
 499.5 299.5 l 1
 499.5 50.5 l 1
 250.5 50.5 l 1
250 50 m 1
 250 300 l 1
 500 300 l 1
 500 50 l 1
 250 50 l 1
249.5 -200 m 1
 249.5 -200.5 l 1
 250 -200.5 l 1
 500 -200.5 l 1
 500.5 -200.5 l 1
 500.5 -200 l 1
 500.5 50 l 1
 500.5 50.5 l 1
 500 50.5 l 1
 250 50.5 l 1
 249.5 50.5 l 1
 249.5 50 l 1
 249.5 -200 l 1
250.5 -199.5 m 1
 250.5 49.5 l 1
 499.5 49.5 l 1
 499.5 -199.5 l 1
 250.5 -199.5 l 1
250 -200 m 1
 250 50 l 1
 500 50 l 1
 500 -200 l 1
 250 -200 l 1
EndSplineSet
EndChar

StartChar: glyph70
Encoding: 326 1093446 69
Width: 0
VWidth: 0
Flags: H
LayerCount: 2
Fore
SplineSet
249.5 550 m 1
 249.5 549.5 l 1
 250 549.5 l 1
 500 549.5 l 1
 500.5 549.5 l 1
 500.5 550 l 1
 500.5 800 l 1
 500.5 800.5 l 1
 500 800.5 l 1
 250 800.5 l 1
 249.5 800.5 l 1
 249.5 800 l 1
 249.5 550 l 1
250.5 550.5 m 1
 250.5 799.5 l 1
 499.5 799.5 l 1
 499.5 550.5 l 1
 250.5 550.5 l 1
250 550 m 1
 250 800 l 1
 500 800 l 1
 500 550 l 1
 250 550 l 1
249.5 50 m 1
 249.5 49.5 l 1
 250 49.5 l 1
 500 49.5 l 1
 500.5 49.5 l 1
 500.5 50 l 1
 500.5 300 l 1
 500.5 300.5 l 1
 500 300.5 l 1
 250 300.5 l 1
 249.5 300.5 l 1
 249.5 300 l 1
 249.5 50 l 1
250.5 50.5 m 1
 250.5 299.5 l 1
 499.5 299.5 l 1
 499.5 50.5 l 1
 250.5 50.5 l 1
250 50 m 1
 250 300 l 1
 500 300 l 1
 500 50 l 1
 250 50 l 1
-0.5 -200 m 1
 -0.5 -200.5 l 1
 0 -200.5 l 1
 250 -200.5 l 1
 250.5 -200.5 l 1
 250.5 -200 l 1
 250.5 50 l 1
 250.5 50.5 l 1
 250 50.5 l 1
 0 50.5 l 1
 -0.5 50.5 l 1
 -0.5 50 l 1
 -0.5 -200 l 1
0.5 -199.5 m 1
 0.5 49.5 l 1
 249.5 49.5 l 1
 249.5 -199.5 l 1
 0.5 -199.5 l 1
0 -200 m 1
 0 50 l 1
 250 50 l 1
 250 -200 l 1
 0 -200 l 1
EndSplineSet
EndChar

StartChar: glyph71
Encoding: 327 1093447 70
Width: 0
VWidth: 0
Flags: H
LayerCount: 2
Fore
SplineSet
249.5 550 m 1
 249.5 549.5 l 1
 250 549.5 l 1
 500 549.5 l 1
 500.5 549.5 l 1
 500.5 550 l 1
 500.5 800 l 1
 500.5 800.5 l 1
 500 800.5 l 1
 250 800.5 l 1
 249.5 800.5 l 1
 249.5 800 l 1
 249.5 550 l 1
250.5 550.5 m 1
 250.5 799.5 l 1
 499.5 799.5 l 1
 499.5 550.5 l 1
 250.5 550.5 l 1
250 550 m 1
 250 800 l 1
 500 800 l 1
 500 550 l 1
 250 550 l 1
249.5 50 m 1
 249.5 49.5 l 1
 250 49.5 l 1
 500 49.5 l 1
 500.5 49.5 l 1
 500.5 50 l 1
 500.5 300 l 1
 500.5 300.5 l 1
 500 300.5 l 1
 250 300.5 l 1
 249.5 300.5 l 1
 249.5 300 l 1
 249.5 50 l 1
250.5 50.5 m 1
 250.5 299.5 l 1
 499.5 299.5 l 1
 499.5 50.5 l 1
 250.5 50.5 l 1
250 50 m 1
 250 300 l 1
 500 300 l 1
 500 50 l 1
 250 50 l 1
-0.5 -200 m 1
 -0.5 -200.5 l 1
 0 -200.5 l 1
 250 -200.5 l 1
 250.5 -200.5 l 1
 250.5 -200 l 1
 250.5 50 l 1
 250.5 50.5 l 1
 250 50.5 l 1
 0 50.5 l 1
 -0.5 50.5 l 1
 -0.5 50 l 1
 -0.5 -200 l 1
0.5 -199.5 m 1
 0.5 49.5 l 1
 249.5 49.5 l 1
 249.5 -199.5 l 1
 0.5 -199.5 l 1
0 -200 m 1
 0 50 l 1
 250 50 l 1
 250 -200 l 1
 0 -200 l 1
249.5 -200 m 1
 249.5 -200.5 l 1
 250 -200.5 l 1
 500 -200.5 l 1
 500.5 -200.5 l 1
 500.5 -200 l 1
 500.5 50 l 1
 500.5 50.5 l 1
 500 50.5 l 1
 250 50.5 l 1
 249.5 50.5 l 1
 249.5 50 l 1
 249.5 -200 l 1
250.5 -199.5 m 1
 250.5 49.5 l 1
 499.5 49.5 l 1
 499.5 -199.5 l 1
 250.5 -199.5 l 1
250 -200 m 1
 250 50 l 1
 500 50 l 1
 500 -200 l 1
 250 -200 l 1
EndSplineSet
EndChar

StartChar: glyph72
Encoding: 328 1093448 71
Width: 0
VWidth: 0
Flags: H
LayerCount: 2
Fore
SplineSet
249.5 550 m 1
 249.5 549.5 l 1
 250 549.5 l 1
 500 549.5 l 1
 500.5 549.5 l 1
 500.5 550 l 1
 500.5 800 l 1
 500.5 800.5 l 1
 500 800.5 l 1
 250 800.5 l 1
 249.5 800.5 l 1
 249.5 800 l 1
 249.5 550 l 1
250.5 550.5 m 1
 250.5 799.5 l 1
 499.5 799.5 l 1
 499.5 550.5 l 1
 250.5 550.5 l 1
250 550 m 1
 250 800 l 1
 500 800 l 1
 500 550 l 1
 250 550 l 1
-0.5 50 m 1
 -0.5 49.5 l 1
 0 49.5 l 1
 250 49.5 l 1
 250.5 49.5 l 1
 250.5 50 l 1
 250.5 300 l 1
 250.5 300.5 l 1
 250 300.5 l 1
 0 300.5 l 1
 -0.5 300.5 l 1
 -0.5 300 l 1
 -0.5 50 l 1
0.5 50.5 m 1
 0.5 299.5 l 1
 249.5 299.5 l 1
 249.5 50.5 l 1
 0.5 50.5 l 1
0 50 m 1
 0 300 l 1
 250 300 l 1
 250 50 l 1
 0 50 l 1
EndSplineSet
EndChar

StartChar: glyph73
Encoding: 329 1093449 72
Width: 0
VWidth: 0
Flags: H
LayerCount: 2
Fore
SplineSet
249.5 550 m 1
 249.5 549.5 l 1
 250 549.5 l 1
 500 549.5 l 1
 500.5 549.5 l 1
 500.5 550 l 1
 500.5 800 l 1
 500.5 800.5 l 1
 500 800.5 l 1
 250 800.5 l 1
 249.5 800.5 l 1
 249.5 800 l 1
 249.5 550 l 1
250.5 550.5 m 1
 250.5 799.5 l 1
 499.5 799.5 l 1
 499.5 550.5 l 1
 250.5 550.5 l 1
250 550 m 1
 250 800 l 1
 500 800 l 1
 500 550 l 1
 250 550 l 1
-0.5 50 m 1
 -0.5 49.5 l 1
 0 49.5 l 1
 250 49.5 l 1
 250.5 49.5 l 1
 250.5 50 l 1
 250.5 300 l 1
 250.5 300.5 l 1
 250 300.5 l 1
 0 300.5 l 1
 -0.5 300.5 l 1
 -0.5 300 l 1
 -0.5 50 l 1
0.5 50.5 m 1
 0.5 299.5 l 1
 249.5 299.5 l 1
 249.5 50.5 l 1
 0.5 50.5 l 1
0 50 m 1
 0 300 l 1
 250 300 l 1
 250 50 l 1
 0 50 l 1
249.5 -200 m 1
 249.5 -200.5 l 1
 250 -200.5 l 1
 500 -200.5 l 1
 500.5 -200.5 l 1
 500.5 -200 l 1
 500.5 50 l 1
 500.5 50.5 l 1
 500 50.5 l 1
 250 50.5 l 1
 249.5 50.5 l 1
 249.5 50 l 1
 249.5 -200 l 1
250.5 -199.5 m 1
 250.5 49.5 l 1
 499.5 49.5 l 1
 499.5 -199.5 l 1
 250.5 -199.5 l 1
250 -200 m 1
 250 50 l 1
 500 50 l 1
 500 -200 l 1
 250 -200 l 1
EndSplineSet
EndChar

StartChar: glyph74
Encoding: 330 1093450 73
Width: 0
VWidth: 0
Flags: H
LayerCount: 2
Fore
SplineSet
249.5 550 m 1
 249.5 549.5 l 1
 250 549.5 l 1
 500 549.5 l 1
 500.5 549.5 l 1
 500.5 550 l 1
 500.5 800 l 1
 500.5 800.5 l 1
 500 800.5 l 1
 250 800.5 l 1
 249.5 800.5 l 1
 249.5 800 l 1
 249.5 550 l 1
250.5 550.5 m 1
 250.5 799.5 l 1
 499.5 799.5 l 1
 499.5 550.5 l 1
 250.5 550.5 l 1
250 550 m 1
 250 800 l 1
 500 800 l 1
 500 550 l 1
 250 550 l 1
-0.5 50 m 1
 -0.5 49.5 l 1
 0 49.5 l 1
 250 49.5 l 1
 250.5 49.5 l 1
 250.5 50 l 1
 250.5 300 l 1
 250.5 300.5 l 1
 250 300.5 l 1
 0 300.5 l 1
 -0.5 300.5 l 1
 -0.5 300 l 1
 -0.5 50 l 1
0.5 50.5 m 1
 0.5 299.5 l 1
 249.5 299.5 l 1
 249.5 50.5 l 1
 0.5 50.5 l 1
0 50 m 1
 0 300 l 1
 250 300 l 1
 250 50 l 1
 0 50 l 1
-0.5 -200 m 1
 -0.5 -200.5 l 1
 0 -200.5 l 1
 250 -200.5 l 1
 250.5 -200.5 l 1
 250.5 -200 l 1
 250.5 50 l 1
 250.5 50.5 l 1
 250 50.5 l 1
 0 50.5 l 1
 -0.5 50.5 l 1
 -0.5 50 l 1
 -0.5 -200 l 1
0.5 -199.5 m 1
 0.5 49.5 l 1
 249.5 49.5 l 1
 249.5 -199.5 l 1
 0.5 -199.5 l 1
0 -200 m 1
 0 50 l 1
 250 50 l 1
 250 -200 l 1
 0 -200 l 1
EndSplineSet
EndChar

StartChar: glyph75
Encoding: 331 1093451 74
Width: 0
VWidth: 0
Flags: H
LayerCount: 2
Fore
SplineSet
249.5 550 m 1
 249.5 549.5 l 1
 250 549.5 l 1
 500 549.5 l 1
 500.5 549.5 l 1
 500.5 550 l 1
 500.5 800 l 1
 500.5 800.5 l 1
 500 800.5 l 1
 250 800.5 l 1
 249.5 800.5 l 1
 249.5 800 l 1
 249.5 550 l 1
250.5 550.5 m 1
 250.5 799.5 l 1
 499.5 799.5 l 1
 499.5 550.5 l 1
 250.5 550.5 l 1
250 550 m 1
 250 800 l 1
 500 800 l 1
 500 550 l 1
 250 550 l 1
-0.5 50 m 1
 -0.5 49.5 l 1
 0 49.5 l 1
 250 49.5 l 1
 250.5 49.5 l 1
 250.5 50 l 1
 250.5 300 l 1
 250.5 300.5 l 1
 250 300.5 l 1
 0 300.5 l 1
 -0.5 300.5 l 1
 -0.5 300 l 1
 -0.5 50 l 1
0.5 50.5 m 1
 0.5 299.5 l 1
 249.5 299.5 l 1
 249.5 50.5 l 1
 0.5 50.5 l 1
0 50 m 1
 0 300 l 1
 250 300 l 1
 250 50 l 1
 0 50 l 1
-0.5 -200 m 1
 -0.5 -200.5 l 1
 0 -200.5 l 1
 250 -200.5 l 1
 250.5 -200.5 l 1
 250.5 -200 l 1
 250.5 50 l 1
 250.5 50.5 l 1
 250 50.5 l 1
 0 50.5 l 1
 -0.5 50.5 l 1
 -0.5 50 l 1
 -0.5 -200 l 1
0.5 -199.5 m 1
 0.5 49.5 l 1
 249.5 49.5 l 1
 249.5 -199.5 l 1
 0.5 -199.5 l 1
0 -200 m 1
 0 50 l 1
 250 50 l 1
 250 -200 l 1
 0 -200 l 1
249.5 -200 m 1
 249.5 -200.5 l 1
 250 -200.5 l 1
 500 -200.5 l 1
 500.5 -200.5 l 1
 500.5 -200 l 1
 500.5 50 l 1
 500.5 50.5 l 1
 500 50.5 l 1
 250 50.5 l 1
 249.5 50.5 l 1
 249.5 50 l 1
 249.5 -200 l 1
250.5 -199.5 m 1
 250.5 49.5 l 1
 499.5 49.5 l 1
 499.5 -199.5 l 1
 250.5 -199.5 l 1
250 -200 m 1
 250 50 l 1
 500 50 l 1
 500 -200 l 1
 250 -200 l 1
EndSplineSet
EndChar

StartChar: glyph76
Encoding: 332 1093452 75
Width: 0
VWidth: 0
Flags: H
LayerCount: 2
Fore
SplineSet
249.5 550 m 1
 249.5 549.5 l 1
 250 549.5 l 1
 500 549.5 l 1
 500.5 549.5 l 1
 500.5 550 l 1
 500.5 800 l 1
 500.5 800.5 l 1
 500 800.5 l 1
 250 800.5 l 1
 249.5 800.5 l 1
 249.5 800 l 1
 249.5 550 l 1
250.5 550.5 m 1
 250.5 799.5 l 1
 499.5 799.5 l 1
 499.5 550.5 l 1
 250.5 550.5 l 1
250 550 m 1
 250 800 l 1
 500 800 l 1
 500 550 l 1
 250 550 l 1
-0.5 50 m 1
 -0.5 49.5 l 1
 0 49.5 l 1
 250 49.5 l 1
 250.5 49.5 l 1
 250.5 50 l 1
 250.5 300 l 1
 250.5 300.5 l 1
 250 300.5 l 1
 0 300.5 l 1
 -0.5 300.5 l 1
 -0.5 300 l 1
 -0.5 50 l 1
0.5 50.5 m 1
 0.5 299.5 l 1
 249.5 299.5 l 1
 249.5 50.5 l 1
 0.5 50.5 l 1
0 50 m 1
 0 300 l 1
 250 300 l 1
 250 50 l 1
 0 50 l 1
249.5 50 m 1
 249.5 49.5 l 1
 250 49.5 l 1
 500 49.5 l 1
 500.5 49.5 l 1
 500.5 50 l 1
 500.5 300 l 1
 500.5 300.5 l 1
 500 300.5 l 1
 250 300.5 l 1
 249.5 300.5 l 1
 249.5 300 l 1
 249.5 50 l 1
250.5 50.5 m 1
 250.5 299.5 l 1
 499.5 299.5 l 1
 499.5 50.5 l 1
 250.5 50.5 l 1
250 50 m 1
 250 300 l 1
 500 300 l 1
 500 50 l 1
 250 50 l 1
EndSplineSet
EndChar

StartChar: glyph77
Encoding: 333 1093453 76
Width: 0
VWidth: 0
Flags: H
LayerCount: 2
Fore
SplineSet
249.5 550 m 1
 249.5 549.5 l 1
 250 549.5 l 1
 500 549.5 l 1
 500.5 549.5 l 1
 500.5 550 l 1
 500.5 800 l 1
 500.5 800.5 l 1
 500 800.5 l 1
 250 800.5 l 1
 249.5 800.5 l 1
 249.5 800 l 1
 249.5 550 l 1
250.5 550.5 m 1
 250.5 799.5 l 1
 499.5 799.5 l 1
 499.5 550.5 l 1
 250.5 550.5 l 1
250 550 m 1
 250 800 l 1
 500 800 l 1
 500 550 l 1
 250 550 l 1
-0.5 50 m 1
 -0.5 49.5 l 1
 0 49.5 l 1
 250 49.5 l 1
 250.5 49.5 l 1
 250.5 50 l 1
 250.5 300 l 1
 250.5 300.5 l 1
 250 300.5 l 1
 0 300.5 l 1
 -0.5 300.5 l 1
 -0.5 300 l 1
 -0.5 50 l 1
0.5 50.5 m 1
 0.5 299.5 l 1
 249.5 299.5 l 1
 249.5 50.5 l 1
 0.5 50.5 l 1
0 50 m 1
 0 300 l 1
 250 300 l 1
 250 50 l 1
 0 50 l 1
249.5 50 m 1
 249.5 49.5 l 1
 250 49.5 l 1
 500 49.5 l 1
 500.5 49.5 l 1
 500.5 50 l 1
 500.5 300 l 1
 500.5 300.5 l 1
 500 300.5 l 1
 250 300.5 l 1
 249.5 300.5 l 1
 249.5 300 l 1
 249.5 50 l 1
250.5 50.5 m 1
 250.5 299.5 l 1
 499.5 299.5 l 1
 499.5 50.5 l 1
 250.5 50.5 l 1
250 50 m 1
 250 300 l 1
 500 300 l 1
 500 50 l 1
 250 50 l 1
249.5 -200 m 1
 249.5 -200.5 l 1
 250 -200.5 l 1
 500 -200.5 l 1
 500.5 -200.5 l 1
 500.5 -200 l 1
 500.5 50 l 1
 500.5 50.5 l 1
 500 50.5 l 1
 250 50.5 l 1
 249.5 50.5 l 1
 249.5 50 l 1
 249.5 -200 l 1
250.5 -199.5 m 1
 250.5 49.5 l 1
 499.5 49.5 l 1
 499.5 -199.5 l 1
 250.5 -199.5 l 1
250 -200 m 1
 250 50 l 1
 500 50 l 1
 500 -200 l 1
 250 -200 l 1
EndSplineSet
EndChar

StartChar: glyph78
Encoding: 334 1093454 77
Width: 0
VWidth: 0
Flags: H
LayerCount: 2
Fore
SplineSet
249.5 550 m 1
 249.5 549.5 l 1
 250 549.5 l 1
 500 549.5 l 1
 500.5 549.5 l 1
 500.5 550 l 1
 500.5 800 l 1
 500.5 800.5 l 1
 500 800.5 l 1
 250 800.5 l 1
 249.5 800.5 l 1
 249.5 800 l 1
 249.5 550 l 1
250.5 550.5 m 1
 250.5 799.5 l 1
 499.5 799.5 l 1
 499.5 550.5 l 1
 250.5 550.5 l 1
250 550 m 1
 250 800 l 1
 500 800 l 1
 500 550 l 1
 250 550 l 1
-0.5 50 m 1
 -0.5 49.5 l 1
 0 49.5 l 1
 250 49.5 l 1
 250.5 49.5 l 1
 250.5 50 l 1
 250.5 300 l 1
 250.5 300.5 l 1
 250 300.5 l 1
 0 300.5 l 1
 -0.5 300.5 l 1
 -0.5 300 l 1
 -0.5 50 l 1
0.5 50.5 m 1
 0.5 299.5 l 1
 249.5 299.5 l 1
 249.5 50.5 l 1
 0.5 50.5 l 1
0 50 m 1
 0 300 l 1
 250 300 l 1
 250 50 l 1
 0 50 l 1
249.5 50 m 1
 249.5 49.5 l 1
 250 49.5 l 1
 500 49.5 l 1
 500.5 49.5 l 1
 500.5 50 l 1
 500.5 300 l 1
 500.5 300.5 l 1
 500 300.5 l 1
 250 300.5 l 1
 249.5 300.5 l 1
 249.5 300 l 1
 249.5 50 l 1
250.5 50.5 m 1
 250.5 299.5 l 1
 499.5 299.5 l 1
 499.5 50.5 l 1
 250.5 50.5 l 1
250 50 m 1
 250 300 l 1
 500 300 l 1
 500 50 l 1
 250 50 l 1
-0.5 -200 m 1
 -0.5 -200.5 l 1
 0 -200.5 l 1
 250 -200.5 l 1
 250.5 -200.5 l 1
 250.5 -200 l 1
 250.5 50 l 1
 250.5 50.5 l 1
 250 50.5 l 1
 0 50.5 l 1
 -0.5 50.5 l 1
 -0.5 50 l 1
 -0.5 -200 l 1
0.5 -199.5 m 1
 0.5 49.5 l 1
 249.5 49.5 l 1
 249.5 -199.5 l 1
 0.5 -199.5 l 1
0 -200 m 1
 0 50 l 1
 250 50 l 1
 250 -200 l 1
 0 -200 l 1
EndSplineSet
EndChar

StartChar: glyph79
Encoding: 335 1093455 78
Width: 0
VWidth: 0
Flags: H
LayerCount: 2
Fore
SplineSet
249.5 550 m 1
 249.5 549.5 l 1
 250 549.5 l 1
 500 549.5 l 1
 500.5 549.5 l 1
 500.5 550 l 1
 500.5 800 l 1
 500.5 800.5 l 1
 500 800.5 l 1
 250 800.5 l 1
 249.5 800.5 l 1
 249.5 800 l 1
 249.5 550 l 1
250.5 550.5 m 1
 250.5 799.5 l 1
 499.5 799.5 l 1
 499.5 550.5 l 1
 250.5 550.5 l 1
250 550 m 1
 250 800 l 1
 500 800 l 1
 500 550 l 1
 250 550 l 1
-0.5 50 m 1
 -0.5 49.5 l 1
 0 49.5 l 1
 250 49.5 l 1
 250.5 49.5 l 1
 250.5 50 l 1
 250.5 300 l 1
 250.5 300.5 l 1
 250 300.5 l 1
 0 300.5 l 1
 -0.5 300.5 l 1
 -0.5 300 l 1
 -0.5 50 l 1
0.5 50.5 m 1
 0.5 299.5 l 1
 249.5 299.5 l 1
 249.5 50.5 l 1
 0.5 50.5 l 1
0 50 m 1
 0 300 l 1
 250 300 l 1
 250 50 l 1
 0 50 l 1
249.5 50 m 1
 249.5 49.5 l 1
 250 49.5 l 1
 500 49.5 l 1
 500.5 49.5 l 1
 500.5 50 l 1
 500.5 300 l 1
 500.5 300.5 l 1
 500 300.5 l 1
 250 300.5 l 1
 249.5 300.5 l 1
 249.5 300 l 1
 249.5 50 l 1
250.5 50.5 m 1
 250.5 299.5 l 1
 499.5 299.5 l 1
 499.5 50.5 l 1
 250.5 50.5 l 1
250 50 m 1
 250 300 l 1
 500 300 l 1
 500 50 l 1
 250 50 l 1
-0.5 -200 m 1
 -0.5 -200.5 l 1
 0 -200.5 l 1
 250 -200.5 l 1
 250.5 -200.5 l 1
 250.5 -200 l 1
 250.5 50 l 1
 250.5 50.5 l 1
 250 50.5 l 1
 0 50.5 l 1
 -0.5 50.5 l 1
 -0.5 50 l 1
 -0.5 -200 l 1
0.5 -199.5 m 1
 0.5 49.5 l 1
 249.5 49.5 l 1
 249.5 -199.5 l 1
 0.5 -199.5 l 1
0 -200 m 1
 0 50 l 1
 250 50 l 1
 250 -200 l 1
 0 -200 l 1
249.5 -200 m 1
 249.5 -200.5 l 1
 250 -200.5 l 1
 500 -200.5 l 1
 500.5 -200.5 l 1
 500.5 -200 l 1
 500.5 50 l 1
 500.5 50.5 l 1
 500 50.5 l 1
 250 50.5 l 1
 249.5 50.5 l 1
 249.5 50 l 1
 249.5 -200 l 1
250.5 -199.5 m 1
 250.5 49.5 l 1
 499.5 49.5 l 1
 499.5 -199.5 l 1
 250.5 -199.5 l 1
250 -200 m 1
 250 50 l 1
 500 50 l 1
 500 -200 l 1
 250 -200 l 1
EndSplineSet
EndChar

StartChar: glyph80
Encoding: 336 1093456 79
Width: 0
VWidth: 0
Flags: H
LayerCount: 2
Fore
SplineSet
249.5 550 m 1
 249.5 549.5 l 1
 250 549.5 l 1
 500 549.5 l 1
 500.5 549.5 l 1
 500.5 550 l 1
 500.5 800 l 1
 500.5 800.5 l 1
 500 800.5 l 1
 250 800.5 l 1
 249.5 800.5 l 1
 249.5 800 l 1
 249.5 550 l 1
250.5 550.5 m 1
 250.5 799.5 l 1
 499.5 799.5 l 1
 499.5 550.5 l 1
 250.5 550.5 l 1
250 550 m 1
 250 800 l 1
 500 800 l 1
 500 550 l 1
 250 550 l 1
249.5 300 m 1
 249.5 299.5 l 1
 250 299.5 l 1
 500 299.5 l 1
 500.5 299.5 l 1
 500.5 300 l 1
 500.5 550 l 1
 500.5 550.5 l 1
 500 550.5 l 1
 250 550.5 l 1
 249.5 550.5 l 1
 249.5 550 l 1
 249.5 300 l 1
250.5 300.5 m 1
 250.5 549.5 l 1
 499.5 549.5 l 1
 499.5 300.5 l 1
 250.5 300.5 l 1
250 300 m 1
 250 550 l 1
 500 550 l 1
 500 300 l 1
 250 300 l 1
EndSplineSet
EndChar

StartChar: glyph81
Encoding: 337 1093457 80
Width: 0
VWidth: 0
Flags: H
LayerCount: 2
Fore
SplineSet
249.5 550 m 1
 249.5 549.5 l 1
 250 549.5 l 1
 500 549.5 l 1
 500.5 549.5 l 1
 500.5 550 l 1
 500.5 800 l 1
 500.5 800.5 l 1
 500 800.5 l 1
 250 800.5 l 1
 249.5 800.5 l 1
 249.5 800 l 1
 249.5 550 l 1
250.5 550.5 m 1
 250.5 799.5 l 1
 499.5 799.5 l 1
 499.5 550.5 l 1
 250.5 550.5 l 1
250 550 m 1
 250 800 l 1
 500 800 l 1
 500 550 l 1
 250 550 l 1
249.5 300 m 1
 249.5 299.5 l 1
 250 299.5 l 1
 500 299.5 l 1
 500.5 299.5 l 1
 500.5 300 l 1
 500.5 550 l 1
 500.5 550.5 l 1
 500 550.5 l 1
 250 550.5 l 1
 249.5 550.5 l 1
 249.5 550 l 1
 249.5 300 l 1
250.5 300.5 m 1
 250.5 549.5 l 1
 499.5 549.5 l 1
 499.5 300.5 l 1
 250.5 300.5 l 1
250 300 m 1
 250 550 l 1
 500 550 l 1
 500 300 l 1
 250 300 l 1
249.5 -200 m 1
 249.5 -200.5 l 1
 250 -200.5 l 1
 500 -200.5 l 1
 500.5 -200.5 l 1
 500.5 -200 l 1
 500.5 50 l 1
 500.5 50.5 l 1
 500 50.5 l 1
 250 50.5 l 1
 249.5 50.5 l 1
 249.5 50 l 1
 249.5 -200 l 1
250.5 -199.5 m 1
 250.5 49.5 l 1
 499.5 49.5 l 1
 499.5 -199.5 l 1
 250.5 -199.5 l 1
250 -200 m 1
 250 50 l 1
 500 50 l 1
 500 -200 l 1
 250 -200 l 1
EndSplineSet
EndChar

StartChar: glyph82
Encoding: 338 1093458 81
Width: 0
VWidth: 0
Flags: H
LayerCount: 2
Fore
SplineSet
249.5 550 m 1
 249.5 549.5 l 1
 250 549.5 l 1
 500 549.5 l 1
 500.5 549.5 l 1
 500.5 550 l 1
 500.5 800 l 1
 500.5 800.5 l 1
 500 800.5 l 1
 250 800.5 l 1
 249.5 800.5 l 1
 249.5 800 l 1
 249.5 550 l 1
250.5 550.5 m 1
 250.5 799.5 l 1
 499.5 799.5 l 1
 499.5 550.5 l 1
 250.5 550.5 l 1
250 550 m 1
 250 800 l 1
 500 800 l 1
 500 550 l 1
 250 550 l 1
249.5 300 m 1
 249.5 299.5 l 1
 250 299.5 l 1
 500 299.5 l 1
 500.5 299.5 l 1
 500.5 300 l 1
 500.5 550 l 1
 500.5 550.5 l 1
 500 550.5 l 1
 250 550.5 l 1
 249.5 550.5 l 1
 249.5 550 l 1
 249.5 300 l 1
250.5 300.5 m 1
 250.5 549.5 l 1
 499.5 549.5 l 1
 499.5 300.5 l 1
 250.5 300.5 l 1
250 300 m 1
 250 550 l 1
 500 550 l 1
 500 300 l 1
 250 300 l 1
-0.5 -200 m 1
 -0.5 -200.5 l 1
 0 -200.5 l 1
 250 -200.5 l 1
 250.5 -200.5 l 1
 250.5 -200 l 1
 250.5 50 l 1
 250.5 50.5 l 1
 250 50.5 l 1
 0 50.5 l 1
 -0.5 50.5 l 1
 -0.5 50 l 1
 -0.5 -200 l 1
0.5 -199.5 m 1
 0.5 49.5 l 1
 249.5 49.5 l 1
 249.5 -199.5 l 1
 0.5 -199.5 l 1
0 -200 m 1
 0 50 l 1
 250 50 l 1
 250 -200 l 1
 0 -200 l 1
EndSplineSet
EndChar

StartChar: glyph83
Encoding: 339 1093459 82
Width: 0
VWidth: 0
Flags: H
LayerCount: 2
Fore
SplineSet
249.5 550 m 1
 249.5 549.5 l 1
 250 549.5 l 1
 500 549.5 l 1
 500.5 549.5 l 1
 500.5 550 l 1
 500.5 800 l 1
 500.5 800.5 l 1
 500 800.5 l 1
 250 800.5 l 1
 249.5 800.5 l 1
 249.5 800 l 1
 249.5 550 l 1
250.5 550.5 m 1
 250.5 799.5 l 1
 499.5 799.5 l 1
 499.5 550.5 l 1
 250.5 550.5 l 1
250 550 m 1
 250 800 l 1
 500 800 l 1
 500 550 l 1
 250 550 l 1
249.5 300 m 1
 249.5 299.5 l 1
 250 299.5 l 1
 500 299.5 l 1
 500.5 299.5 l 1
 500.5 300 l 1
 500.5 550 l 1
 500.5 550.5 l 1
 500 550.5 l 1
 250 550.5 l 1
 249.5 550.5 l 1
 249.5 550 l 1
 249.5 300 l 1
250.5 300.5 m 1
 250.5 549.5 l 1
 499.5 549.5 l 1
 499.5 300.5 l 1
 250.5 300.5 l 1
250 300 m 1
 250 550 l 1
 500 550 l 1
 500 300 l 1
 250 300 l 1
-0.5 -200 m 1
 -0.5 -200.5 l 1
 0 -200.5 l 1
 250 -200.5 l 1
 250.5 -200.5 l 1
 250.5 -200 l 1
 250.5 50 l 1
 250.5 50.5 l 1
 250 50.5 l 1
 0 50.5 l 1
 -0.5 50.5 l 1
 -0.5 50 l 1
 -0.5 -200 l 1
0.5 -199.5 m 1
 0.5 49.5 l 1
 249.5 49.5 l 1
 249.5 -199.5 l 1
 0.5 -199.5 l 1
0 -200 m 1
 0 50 l 1
 250 50 l 1
 250 -200 l 1
 0 -200 l 1
249.5 -200 m 1
 249.5 -200.5 l 1
 250 -200.5 l 1
 500 -200.5 l 1
 500.5 -200.5 l 1
 500.5 -200 l 1
 500.5 50 l 1
 500.5 50.5 l 1
 500 50.5 l 1
 250 50.5 l 1
 249.5 50.5 l 1
 249.5 50 l 1
 249.5 -200 l 1
250.5 -199.5 m 1
 250.5 49.5 l 1
 499.5 49.5 l 1
 499.5 -199.5 l 1
 250.5 -199.5 l 1
250 -200 m 1
 250 50 l 1
 500 50 l 1
 500 -200 l 1
 250 -200 l 1
EndSplineSet
EndChar

StartChar: glyph84
Encoding: 340 1093460 83
Width: 0
VWidth: 0
Flags: H
LayerCount: 2
Fore
SplineSet
249.5 550 m 1
 249.5 549.5 l 1
 250 549.5 l 1
 500 549.5 l 1
 500.5 549.5 l 1
 500.5 550 l 1
 500.5 800 l 1
 500.5 800.5 l 1
 500 800.5 l 1
 250 800.5 l 1
 249.5 800.5 l 1
 249.5 800 l 1
 249.5 550 l 1
250.5 550.5 m 1
 250.5 799.5 l 1
 499.5 799.5 l 1
 499.5 550.5 l 1
 250.5 550.5 l 1
250 550 m 1
 250 800 l 1
 500 800 l 1
 500 550 l 1
 250 550 l 1
249.5 300 m 1
 249.5 299.5 l 1
 250 299.5 l 1
 500 299.5 l 1
 500.5 299.5 l 1
 500.5 300 l 1
 500.5 550 l 1
 500.5 550.5 l 1
 500 550.5 l 1
 250 550.5 l 1
 249.5 550.5 l 1
 249.5 550 l 1
 249.5 300 l 1
250.5 300.5 m 1
 250.5 549.5 l 1
 499.5 549.5 l 1
 499.5 300.5 l 1
 250.5 300.5 l 1
250 300 m 1
 250 550 l 1
 500 550 l 1
 500 300 l 1
 250 300 l 1
249.5 50 m 1
 249.5 49.5 l 1
 250 49.5 l 1
 500 49.5 l 1
 500.5 49.5 l 1
 500.5 50 l 1
 500.5 300 l 1
 500.5 300.5 l 1
 500 300.5 l 1
 250 300.5 l 1
 249.5 300.5 l 1
 249.5 300 l 1
 249.5 50 l 1
250.5 50.5 m 1
 250.5 299.5 l 1
 499.5 299.5 l 1
 499.5 50.5 l 1
 250.5 50.5 l 1
250 50 m 1
 250 300 l 1
 500 300 l 1
 500 50 l 1
 250 50 l 1
EndSplineSet
EndChar

StartChar: glyph85
Encoding: 341 1093461 84
Width: 0
VWidth: 0
Flags: H
LayerCount: 2
Fore
SplineSet
249.5 550 m 1
 249.5 549.5 l 1
 250 549.5 l 1
 500 549.5 l 1
 500.5 549.5 l 1
 500.5 550 l 1
 500.5 800 l 1
 500.5 800.5 l 1
 500 800.5 l 1
 250 800.5 l 1
 249.5 800.5 l 1
 249.5 800 l 1
 249.5 550 l 1
250.5 550.5 m 1
 250.5 799.5 l 1
 499.5 799.5 l 1
 499.5 550.5 l 1
 250.5 550.5 l 1
250 550 m 1
 250 800 l 1
 500 800 l 1
 500 550 l 1
 250 550 l 1
249.5 300 m 1
 249.5 299.5 l 1
 250 299.5 l 1
 500 299.5 l 1
 500.5 299.5 l 1
 500.5 300 l 1
 500.5 550 l 1
 500.5 550.5 l 1
 500 550.5 l 1
 250 550.5 l 1
 249.5 550.5 l 1
 249.5 550 l 1
 249.5 300 l 1
250.5 300.5 m 1
 250.5 549.5 l 1
 499.5 549.5 l 1
 499.5 300.5 l 1
 250.5 300.5 l 1
250 300 m 1
 250 550 l 1
 500 550 l 1
 500 300 l 1
 250 300 l 1
249.5 50 m 1
 249.5 49.5 l 1
 250 49.5 l 1
 500 49.5 l 1
 500.5 49.5 l 1
 500.5 50 l 1
 500.5 300 l 1
 500.5 300.5 l 1
 500 300.5 l 1
 250 300.5 l 1
 249.5 300.5 l 1
 249.5 300 l 1
 249.5 50 l 1
250.5 50.5 m 1
 250.5 299.5 l 1
 499.5 299.5 l 1
 499.5 50.5 l 1
 250.5 50.5 l 1
250 50 m 1
 250 300 l 1
 500 300 l 1
 500 50 l 1
 250 50 l 1
249.5 -200 m 1
 249.5 -200.5 l 1
 250 -200.5 l 1
 500 -200.5 l 1
 500.5 -200.5 l 1
 500.5 -200 l 1
 500.5 50 l 1
 500.5 50.5 l 1
 500 50.5 l 1
 250 50.5 l 1
 249.5 50.5 l 1
 249.5 50 l 1
 249.5 -200 l 1
250.5 -199.5 m 1
 250.5 49.5 l 1
 499.5 49.5 l 1
 499.5 -199.5 l 1
 250.5 -199.5 l 1
250 -200 m 1
 250 50 l 1
 500 50 l 1
 500 -200 l 1
 250 -200 l 1
EndSplineSet
EndChar

StartChar: glyph86
Encoding: 342 1093462 85
Width: 0
VWidth: 0
Flags: H
LayerCount: 2
Fore
SplineSet
249.5 550 m 1
 249.5 549.5 l 1
 250 549.5 l 1
 500 549.5 l 1
 500.5 549.5 l 1
 500.5 550 l 1
 500.5 800 l 1
 500.5 800.5 l 1
 500 800.5 l 1
 250 800.5 l 1
 249.5 800.5 l 1
 249.5 800 l 1
 249.5 550 l 1
250.5 550.5 m 1
 250.5 799.5 l 1
 499.5 799.5 l 1
 499.5 550.5 l 1
 250.5 550.5 l 1
250 550 m 1
 250 800 l 1
 500 800 l 1
 500 550 l 1
 250 550 l 1
249.5 300 m 1
 249.5 299.5 l 1
 250 299.5 l 1
 500 299.5 l 1
 500.5 299.5 l 1
 500.5 300 l 1
 500.5 550 l 1
 500.5 550.5 l 1
 500 550.5 l 1
 250 550.5 l 1
 249.5 550.5 l 1
 249.5 550 l 1
 249.5 300 l 1
250.5 300.5 m 1
 250.5 549.5 l 1
 499.5 549.5 l 1
 499.5 300.5 l 1
 250.5 300.5 l 1
250 300 m 1
 250 550 l 1
 500 550 l 1
 500 300 l 1
 250 300 l 1
249.5 50 m 1
 249.5 49.5 l 1
 250 49.5 l 1
 500 49.5 l 1
 500.5 49.5 l 1
 500.5 50 l 1
 500.5 300 l 1
 500.5 300.5 l 1
 500 300.5 l 1
 250 300.5 l 1
 249.5 300.5 l 1
 249.5 300 l 1
 249.5 50 l 1
250.5 50.5 m 1
 250.5 299.5 l 1
 499.5 299.5 l 1
 499.5 50.5 l 1
 250.5 50.5 l 1
250 50 m 1
 250 300 l 1
 500 300 l 1
 500 50 l 1
 250 50 l 1
-0.5 -200 m 1
 -0.5 -200.5 l 1
 0 -200.5 l 1
 250 -200.5 l 1
 250.5 -200.5 l 1
 250.5 -200 l 1
 250.5 50 l 1
 250.5 50.5 l 1
 250 50.5 l 1
 0 50.5 l 1
 -0.5 50.5 l 1
 -0.5 50 l 1
 -0.5 -200 l 1
0.5 -199.5 m 1
 0.5 49.5 l 1
 249.5 49.5 l 1
 249.5 -199.5 l 1
 0.5 -199.5 l 1
0 -200 m 1
 0 50 l 1
 250 50 l 1
 250 -200 l 1
 0 -200 l 1
EndSplineSet
EndChar

StartChar: glyph87
Encoding: 343 1093463 86
Width: 0
VWidth: 0
Flags: H
LayerCount: 2
Fore
SplineSet
249.5 550 m 1
 249.5 549.5 l 1
 250 549.5 l 1
 500 549.5 l 1
 500.5 549.5 l 1
 500.5 550 l 1
 500.5 800 l 1
 500.5 800.5 l 1
 500 800.5 l 1
 250 800.5 l 1
 249.5 800.5 l 1
 249.5 800 l 1
 249.5 550 l 1
250.5 550.5 m 1
 250.5 799.5 l 1
 499.5 799.5 l 1
 499.5 550.5 l 1
 250.5 550.5 l 1
250 550 m 1
 250 800 l 1
 500 800 l 1
 500 550 l 1
 250 550 l 1
249.5 300 m 1
 249.5 299.5 l 1
 250 299.5 l 1
 500 299.5 l 1
 500.5 299.5 l 1
 500.5 300 l 1
 500.5 550 l 1
 500.5 550.5 l 1
 500 550.5 l 1
 250 550.5 l 1
 249.5 550.5 l 1
 249.5 550 l 1
 249.5 300 l 1
250.5 300.5 m 1
 250.5 549.5 l 1
 499.5 549.5 l 1
 499.5 300.5 l 1
 250.5 300.5 l 1
250 300 m 1
 250 550 l 1
 500 550 l 1
 500 300 l 1
 250 300 l 1
249.5 50 m 1
 249.5 49.5 l 1
 250 49.5 l 1
 500 49.5 l 1
 500.5 49.5 l 1
 500.5 50 l 1
 500.5 300 l 1
 500.5 300.5 l 1
 500 300.5 l 1
 250 300.5 l 1
 249.5 300.5 l 1
 249.5 300 l 1
 249.5 50 l 1
250.5 50.5 m 1
 250.5 299.5 l 1
 499.5 299.5 l 1
 499.5 50.5 l 1
 250.5 50.5 l 1
250 50 m 1
 250 300 l 1
 500 300 l 1
 500 50 l 1
 250 50 l 1
-0.5 -200 m 1
 -0.5 -200.5 l 1
 0 -200.5 l 1
 250 -200.5 l 1
 250.5 -200.5 l 1
 250.5 -200 l 1
 250.5 50 l 1
 250.5 50.5 l 1
 250 50.5 l 1
 0 50.5 l 1
 -0.5 50.5 l 1
 -0.5 50 l 1
 -0.5 -200 l 1
0.5 -199.5 m 1
 0.5 49.5 l 1
 249.5 49.5 l 1
 249.5 -199.5 l 1
 0.5 -199.5 l 1
0 -200 m 1
 0 50 l 1
 250 50 l 1
 250 -200 l 1
 0 -200 l 1
249.5 -200 m 1
 249.5 -200.5 l 1
 250 -200.5 l 1
 500 -200.5 l 1
 500.5 -200.5 l 1
 500.5 -200 l 1
 500.5 50 l 1
 500.5 50.5 l 1
 500 50.5 l 1
 250 50.5 l 1
 249.5 50.5 l 1
 249.5 50 l 1
 249.5 -200 l 1
250.5 -199.5 m 1
 250.5 49.5 l 1
 499.5 49.5 l 1
 499.5 -199.5 l 1
 250.5 -199.5 l 1
250 -200 m 1
 250 50 l 1
 500 50 l 1
 500 -200 l 1
 250 -200 l 1
EndSplineSet
EndChar

StartChar: glyph88
Encoding: 344 1093464 87
Width: 0
VWidth: 0
Flags: H
LayerCount: 2
Fore
SplineSet
249.5 550 m 1
 249.5 549.5 l 1
 250 549.5 l 1
 500 549.5 l 1
 500.5 549.5 l 1
 500.5 550 l 1
 500.5 800 l 1
 500.5 800.5 l 1
 500 800.5 l 1
 250 800.5 l 1
 249.5 800.5 l 1
 249.5 800 l 1
 249.5 550 l 1
250.5 550.5 m 1
 250.5 799.5 l 1
 499.5 799.5 l 1
 499.5 550.5 l 1
 250.5 550.5 l 1
250 550 m 1
 250 800 l 1
 500 800 l 1
 500 550 l 1
 250 550 l 1
249.5 300 m 1
 249.5 299.5 l 1
 250 299.5 l 1
 500 299.5 l 1
 500.5 299.5 l 1
 500.5 300 l 1
 500.5 550 l 1
 500.5 550.5 l 1
 500 550.5 l 1
 250 550.5 l 1
 249.5 550.5 l 1
 249.5 550 l 1
 249.5 300 l 1
250.5 300.5 m 1
 250.5 549.5 l 1
 499.5 549.5 l 1
 499.5 300.5 l 1
 250.5 300.5 l 1
250 300 m 1
 250 550 l 1
 500 550 l 1
 500 300 l 1
 250 300 l 1
-0.5 50 m 1
 -0.5 49.5 l 1
 0 49.5 l 1
 250 49.5 l 1
 250.5 49.5 l 1
 250.5 50 l 1
 250.5 300 l 1
 250.5 300.5 l 1
 250 300.5 l 1
 0 300.5 l 1
 -0.5 300.5 l 1
 -0.5 300 l 1
 -0.5 50 l 1
0.5 50.5 m 1
 0.5 299.5 l 1
 249.5 299.5 l 1
 249.5 50.5 l 1
 0.5 50.5 l 1
0 50 m 1
 0 300 l 1
 250 300 l 1
 250 50 l 1
 0 50 l 1
EndSplineSet
EndChar

StartChar: glyph89
Encoding: 345 1093465 88
Width: 0
VWidth: 0
Flags: H
LayerCount: 2
Fore
SplineSet
249.5 550 m 1
 249.5 549.5 l 1
 250 549.5 l 1
 500 549.5 l 1
 500.5 549.5 l 1
 500.5 550 l 1
 500.5 800 l 1
 500.5 800.5 l 1
 500 800.5 l 1
 250 800.5 l 1
 249.5 800.5 l 1
 249.5 800 l 1
 249.5 550 l 1
250.5 550.5 m 1
 250.5 799.5 l 1
 499.5 799.5 l 1
 499.5 550.5 l 1
 250.5 550.5 l 1
250 550 m 1
 250 800 l 1
 500 800 l 1
 500 550 l 1
 250 550 l 1
249.5 300 m 1
 249.5 299.5 l 1
 250 299.5 l 1
 500 299.5 l 1
 500.5 299.5 l 1
 500.5 300 l 1
 500.5 550 l 1
 500.5 550.5 l 1
 500 550.5 l 1
 250 550.5 l 1
 249.5 550.5 l 1
 249.5 550 l 1
 249.5 300 l 1
250.5 300.5 m 1
 250.5 549.5 l 1
 499.5 549.5 l 1
 499.5 300.5 l 1
 250.5 300.5 l 1
250 300 m 1
 250 550 l 1
 500 550 l 1
 500 300 l 1
 250 300 l 1
-0.5 50 m 1
 -0.5 49.5 l 1
 0 49.5 l 1
 250 49.5 l 1
 250.5 49.5 l 1
 250.5 50 l 1
 250.5 300 l 1
 250.5 300.5 l 1
 250 300.5 l 1
 0 300.5 l 1
 -0.5 300.5 l 1
 -0.5 300 l 1
 -0.5 50 l 1
0.5 50.5 m 1
 0.5 299.5 l 1
 249.5 299.5 l 1
 249.5 50.5 l 1
 0.5 50.5 l 1
0 50 m 1
 0 300 l 1
 250 300 l 1
 250 50 l 1
 0 50 l 1
249.5 -200 m 1
 249.5 -200.5 l 1
 250 -200.5 l 1
 500 -200.5 l 1
 500.5 -200.5 l 1
 500.5 -200 l 1
 500.5 50 l 1
 500.5 50.5 l 1
 500 50.5 l 1
 250 50.5 l 1
 249.5 50.5 l 1
 249.5 50 l 1
 249.5 -200 l 1
250.5 -199.5 m 1
 250.5 49.5 l 1
 499.5 49.5 l 1
 499.5 -199.5 l 1
 250.5 -199.5 l 1
250 -200 m 1
 250 50 l 1
 500 50 l 1
 500 -200 l 1
 250 -200 l 1
EndSplineSet
EndChar

StartChar: glyph90
Encoding: 346 1093466 89
Width: 0
VWidth: 0
Flags: H
LayerCount: 2
Fore
SplineSet
249.5 550 m 1
 249.5 549.5 l 1
 250 549.5 l 1
 500 549.5 l 1
 500.5 549.5 l 1
 500.5 550 l 1
 500.5 800 l 1
 500.5 800.5 l 1
 500 800.5 l 1
 250 800.5 l 1
 249.5 800.5 l 1
 249.5 800 l 1
 249.5 550 l 1
250.5 550.5 m 1
 250.5 799.5 l 1
 499.5 799.5 l 1
 499.5 550.5 l 1
 250.5 550.5 l 1
250 550 m 1
 250 800 l 1
 500 800 l 1
 500 550 l 1
 250 550 l 1
249.5 300 m 1
 249.5 299.5 l 1
 250 299.5 l 1
 500 299.5 l 1
 500.5 299.5 l 1
 500.5 300 l 1
 500.5 550 l 1
 500.5 550.5 l 1
 500 550.5 l 1
 250 550.5 l 1
 249.5 550.5 l 1
 249.5 550 l 1
 249.5 300 l 1
250.5 300.5 m 1
 250.5 549.5 l 1
 499.5 549.5 l 1
 499.5 300.5 l 1
 250.5 300.5 l 1
250 300 m 1
 250 550 l 1
 500 550 l 1
 500 300 l 1
 250 300 l 1
-0.5 50 m 1
 -0.5 49.5 l 1
 0 49.5 l 1
 250 49.5 l 1
 250.5 49.5 l 1
 250.5 50 l 1
 250.5 300 l 1
 250.5 300.5 l 1
 250 300.5 l 1
 0 300.5 l 1
 -0.5 300.5 l 1
 -0.5 300 l 1
 -0.5 50 l 1
0.5 50.5 m 1
 0.5 299.5 l 1
 249.5 299.5 l 1
 249.5 50.5 l 1
 0.5 50.5 l 1
0 50 m 1
 0 300 l 1
 250 300 l 1
 250 50 l 1
 0 50 l 1
-0.5 -200 m 1
 -0.5 -200.5 l 1
 0 -200.5 l 1
 250 -200.5 l 1
 250.5 -200.5 l 1
 250.5 -200 l 1
 250.5 50 l 1
 250.5 50.5 l 1
 250 50.5 l 1
 0 50.5 l 1
 -0.5 50.5 l 1
 -0.5 50 l 1
 -0.5 -200 l 1
0.5 -199.5 m 1
 0.5 49.5 l 1
 249.5 49.5 l 1
 249.5 -199.5 l 1
 0.5 -199.5 l 1
0 -200 m 1
 0 50 l 1
 250 50 l 1
 250 -200 l 1
 0 -200 l 1
EndSplineSet
EndChar

StartChar: glyph91
Encoding: 347 1093467 90
Width: 0
VWidth: 0
Flags: H
LayerCount: 2
Fore
SplineSet
249.5 550 m 1
 249.5 549.5 l 1
 250 549.5 l 1
 500 549.5 l 1
 500.5 549.5 l 1
 500.5 550 l 1
 500.5 800 l 1
 500.5 800.5 l 1
 500 800.5 l 1
 250 800.5 l 1
 249.5 800.5 l 1
 249.5 800 l 1
 249.5 550 l 1
250.5 550.5 m 1
 250.5 799.5 l 1
 499.5 799.5 l 1
 499.5 550.5 l 1
 250.5 550.5 l 1
250 550 m 1
 250 800 l 1
 500 800 l 1
 500 550 l 1
 250 550 l 1
249.5 300 m 1
 249.5 299.5 l 1
 250 299.5 l 1
 500 299.5 l 1
 500.5 299.5 l 1
 500.5 300 l 1
 500.5 550 l 1
 500.5 550.5 l 1
 500 550.5 l 1
 250 550.5 l 1
 249.5 550.5 l 1
 249.5 550 l 1
 249.5 300 l 1
250.5 300.5 m 1
 250.5 549.5 l 1
 499.5 549.5 l 1
 499.5 300.5 l 1
 250.5 300.5 l 1
250 300 m 1
 250 550 l 1
 500 550 l 1
 500 300 l 1
 250 300 l 1
-0.5 50 m 1
 -0.5 49.5 l 1
 0 49.5 l 1
 250 49.5 l 1
 250.5 49.5 l 1
 250.5 50 l 1
 250.5 300 l 1
 250.5 300.5 l 1
 250 300.5 l 1
 0 300.5 l 1
 -0.5 300.5 l 1
 -0.5 300 l 1
 -0.5 50 l 1
0.5 50.5 m 1
 0.5 299.5 l 1
 249.5 299.5 l 1
 249.5 50.5 l 1
 0.5 50.5 l 1
0 50 m 1
 0 300 l 1
 250 300 l 1
 250 50 l 1
 0 50 l 1
-0.5 -200 m 1
 -0.5 -200.5 l 1
 0 -200.5 l 1
 250 -200.5 l 1
 250.5 -200.5 l 1
 250.5 -200 l 1
 250.5 50 l 1
 250.5 50.5 l 1
 250 50.5 l 1
 0 50.5 l 1
 -0.5 50.5 l 1
 -0.5 50 l 1
 -0.5 -200 l 1
0.5 -199.5 m 1
 0.5 49.5 l 1
 249.5 49.5 l 1
 249.5 -199.5 l 1
 0.5 -199.5 l 1
0 -200 m 1
 0 50 l 1
 250 50 l 1
 250 -200 l 1
 0 -200 l 1
249.5 -200 m 1
 249.5 -200.5 l 1
 250 -200.5 l 1
 500 -200.5 l 1
 500.5 -200.5 l 1
 500.5 -200 l 1
 500.5 50 l 1
 500.5 50.5 l 1
 500 50.5 l 1
 250 50.5 l 1
 249.5 50.5 l 1
 249.5 50 l 1
 249.5 -200 l 1
250.5 -199.5 m 1
 250.5 49.5 l 1
 499.5 49.5 l 1
 499.5 -199.5 l 1
 250.5 -199.5 l 1
250 -200 m 1
 250 50 l 1
 500 50 l 1
 500 -200 l 1
 250 -200 l 1
EndSplineSet
EndChar

StartChar: glyph92
Encoding: 348 1093468 91
Width: 0
VWidth: 0
Flags: H
LayerCount: 2
Fore
SplineSet
249.5 550 m 1
 249.5 549.5 l 1
 250 549.5 l 1
 500 549.5 l 1
 500.5 549.5 l 1
 500.5 550 l 1
 500.5 800 l 1
 500.5 800.5 l 1
 500 800.5 l 1
 250 800.5 l 1
 249.5 800.5 l 1
 249.5 800 l 1
 249.5 550 l 1
250.5 550.5 m 1
 250.5 799.5 l 1
 499.5 799.5 l 1
 499.5 550.5 l 1
 250.5 550.5 l 1
250 550 m 1
 250 800 l 1
 500 800 l 1
 500 550 l 1
 250 550 l 1
249.5 300 m 1
 249.5 299.5 l 1
 250 299.5 l 1
 500 299.5 l 1
 500.5 299.5 l 1
 500.5 300 l 1
 500.5 550 l 1
 500.5 550.5 l 1
 500 550.5 l 1
 250 550.5 l 1
 249.5 550.5 l 1
 249.5 550 l 1
 249.5 300 l 1
250.5 300.5 m 1
 250.5 549.5 l 1
 499.5 549.5 l 1
 499.5 300.5 l 1
 250.5 300.5 l 1
250 300 m 1
 250 550 l 1
 500 550 l 1
 500 300 l 1
 250 300 l 1
-0.5 50 m 1
 -0.5 49.5 l 1
 0 49.5 l 1
 250 49.5 l 1
 250.5 49.5 l 1
 250.5 50 l 1
 250.5 300 l 1
 250.5 300.5 l 1
 250 300.5 l 1
 0 300.5 l 1
 -0.5 300.5 l 1
 -0.5 300 l 1
 -0.5 50 l 1
0.5 50.5 m 1
 0.5 299.5 l 1
 249.5 299.5 l 1
 249.5 50.5 l 1
 0.5 50.5 l 1
0 50 m 1
 0 300 l 1
 250 300 l 1
 250 50 l 1
 0 50 l 1
249.5 50 m 1
 249.5 49.5 l 1
 250 49.5 l 1
 500 49.5 l 1
 500.5 49.5 l 1
 500.5 50 l 1
 500.5 300 l 1
 500.5 300.5 l 1
 500 300.5 l 1
 250 300.5 l 1
 249.5 300.5 l 1
 249.5 300 l 1
 249.5 50 l 1
250.5 50.5 m 1
 250.5 299.5 l 1
 499.5 299.5 l 1
 499.5 50.5 l 1
 250.5 50.5 l 1
250 50 m 1
 250 300 l 1
 500 300 l 1
 500 50 l 1
 250 50 l 1
EndSplineSet
EndChar

StartChar: glyph93
Encoding: 349 1093469 92
Width: 0
VWidth: 0
Flags: H
LayerCount: 2
Fore
SplineSet
249.5 550 m 1
 249.5 549.5 l 1
 250 549.5 l 1
 500 549.5 l 1
 500.5 549.5 l 1
 500.5 550 l 1
 500.5 800 l 1
 500.5 800.5 l 1
 500 800.5 l 1
 250 800.5 l 1
 249.5 800.5 l 1
 249.5 800 l 1
 249.5 550 l 1
250.5 550.5 m 1
 250.5 799.5 l 1
 499.5 799.5 l 1
 499.5 550.5 l 1
 250.5 550.5 l 1
250 550 m 1
 250 800 l 1
 500 800 l 1
 500 550 l 1
 250 550 l 1
249.5 300 m 1
 249.5 299.5 l 1
 250 299.5 l 1
 500 299.5 l 1
 500.5 299.5 l 1
 500.5 300 l 1
 500.5 550 l 1
 500.5 550.5 l 1
 500 550.5 l 1
 250 550.5 l 1
 249.5 550.5 l 1
 249.5 550 l 1
 249.5 300 l 1
250.5 300.5 m 1
 250.5 549.5 l 1
 499.5 549.5 l 1
 499.5 300.5 l 1
 250.5 300.5 l 1
250 300 m 1
 250 550 l 1
 500 550 l 1
 500 300 l 1
 250 300 l 1
-0.5 50 m 1
 -0.5 49.5 l 1
 0 49.5 l 1
 250 49.5 l 1
 250.5 49.5 l 1
 250.5 50 l 1
 250.5 300 l 1
 250.5 300.5 l 1
 250 300.5 l 1
 0 300.5 l 1
 -0.5 300.5 l 1
 -0.5 300 l 1
 -0.5 50 l 1
0.5 50.5 m 1
 0.5 299.5 l 1
 249.5 299.5 l 1
 249.5 50.5 l 1
 0.5 50.5 l 1
0 50 m 1
 0 300 l 1
 250 300 l 1
 250 50 l 1
 0 50 l 1
249.5 50 m 1
 249.5 49.5 l 1
 250 49.5 l 1
 500 49.5 l 1
 500.5 49.5 l 1
 500.5 50 l 1
 500.5 300 l 1
 500.5 300.5 l 1
 500 300.5 l 1
 250 300.5 l 1
 249.5 300.5 l 1
 249.5 300 l 1
 249.5 50 l 1
250.5 50.5 m 1
 250.5 299.5 l 1
 499.5 299.5 l 1
 499.5 50.5 l 1
 250.5 50.5 l 1
250 50 m 1
 250 300 l 1
 500 300 l 1
 500 50 l 1
 250 50 l 1
249.5 -200 m 1
 249.5 -200.5 l 1
 250 -200.5 l 1
 500 -200.5 l 1
 500.5 -200.5 l 1
 500.5 -200 l 1
 500.5 50 l 1
 500.5 50.5 l 1
 500 50.5 l 1
 250 50.5 l 1
 249.5 50.5 l 1
 249.5 50 l 1
 249.5 -200 l 1
250.5 -199.5 m 1
 250.5 49.5 l 1
 499.5 49.5 l 1
 499.5 -199.5 l 1
 250.5 -199.5 l 1
250 -200 m 1
 250 50 l 1
 500 50 l 1
 500 -200 l 1
 250 -200 l 1
EndSplineSet
EndChar

StartChar: glyph94
Encoding: 350 1093470 93
Width: 0
VWidth: 0
Flags: H
LayerCount: 2
Fore
SplineSet
249.5 550 m 1
 249.5 549.5 l 1
 250 549.5 l 1
 500 549.5 l 1
 500.5 549.5 l 1
 500.5 550 l 1
 500.5 800 l 1
 500.5 800.5 l 1
 500 800.5 l 1
 250 800.5 l 1
 249.5 800.5 l 1
 249.5 800 l 1
 249.5 550 l 1
250.5 550.5 m 1
 250.5 799.5 l 1
 499.5 799.5 l 1
 499.5 550.5 l 1
 250.5 550.5 l 1
250 550 m 1
 250 800 l 1
 500 800 l 1
 500 550 l 1
 250 550 l 1
249.5 300 m 1
 249.5 299.5 l 1
 250 299.5 l 1
 500 299.5 l 1
 500.5 299.5 l 1
 500.5 300 l 1
 500.5 550 l 1
 500.5 550.5 l 1
 500 550.5 l 1
 250 550.5 l 1
 249.5 550.5 l 1
 249.5 550 l 1
 249.5 300 l 1
250.5 300.5 m 1
 250.5 549.5 l 1
 499.5 549.5 l 1
 499.5 300.5 l 1
 250.5 300.5 l 1
250 300 m 1
 250 550 l 1
 500 550 l 1
 500 300 l 1
 250 300 l 1
-0.5 50 m 1
 -0.5 49.5 l 1
 0 49.5 l 1
 250 49.5 l 1
 250.5 49.5 l 1
 250.5 50 l 1
 250.5 300 l 1
 250.5 300.5 l 1
 250 300.5 l 1
 0 300.5 l 1
 -0.5 300.5 l 1
 -0.5 300 l 1
 -0.5 50 l 1
0.5 50.5 m 1
 0.5 299.5 l 1
 249.5 299.5 l 1
 249.5 50.5 l 1
 0.5 50.5 l 1
0 50 m 1
 0 300 l 1
 250 300 l 1
 250 50 l 1
 0 50 l 1
249.5 50 m 1
 249.5 49.5 l 1
 250 49.5 l 1
 500 49.5 l 1
 500.5 49.5 l 1
 500.5 50 l 1
 500.5 300 l 1
 500.5 300.5 l 1
 500 300.5 l 1
 250 300.5 l 1
 249.5 300.5 l 1
 249.5 300 l 1
 249.5 50 l 1
250.5 50.5 m 1
 250.5 299.5 l 1
 499.5 299.5 l 1
 499.5 50.5 l 1
 250.5 50.5 l 1
250 50 m 1
 250 300 l 1
 500 300 l 1
 500 50 l 1
 250 50 l 1
-0.5 -200 m 1
 -0.5 -200.5 l 1
 0 -200.5 l 1
 250 -200.5 l 1
 250.5 -200.5 l 1
 250.5 -200 l 1
 250.5 50 l 1
 250.5 50.5 l 1
 250 50.5 l 1
 0 50.5 l 1
 -0.5 50.5 l 1
 -0.5 50 l 1
 -0.5 -200 l 1
0.5 -199.5 m 1
 0.5 49.5 l 1
 249.5 49.5 l 1
 249.5 -199.5 l 1
 0.5 -199.5 l 1
0 -200 m 1
 0 50 l 1
 250 50 l 1
 250 -200 l 1
 0 -200 l 1
EndSplineSet
EndChar

StartChar: glyph95
Encoding: 351 1093471 94
Width: 0
VWidth: 0
Flags: H
LayerCount: 2
Fore
SplineSet
249.5 550 m 1
 249.5 549.5 l 1
 250 549.5 l 1
 500 549.5 l 1
 500.5 549.5 l 1
 500.5 550 l 1
 500.5 800 l 1
 500.5 800.5 l 1
 500 800.5 l 1
 250 800.5 l 1
 249.5 800.5 l 1
 249.5 800 l 1
 249.5 550 l 1
250.5 550.5 m 1
 250.5 799.5 l 1
 499.5 799.5 l 1
 499.5 550.5 l 1
 250.5 550.5 l 1
250 550 m 1
 250 800 l 1
 500 800 l 1
 500 550 l 1
 250 550 l 1
249.5 300 m 1
 249.5 299.5 l 1
 250 299.5 l 1
 500 299.5 l 1
 500.5 299.5 l 1
 500.5 300 l 1
 500.5 550 l 1
 500.5 550.5 l 1
 500 550.5 l 1
 250 550.5 l 1
 249.5 550.5 l 1
 249.5 550 l 1
 249.5 300 l 1
250.5 300.5 m 1
 250.5 549.5 l 1
 499.5 549.5 l 1
 499.5 300.5 l 1
 250.5 300.5 l 1
250 300 m 1
 250 550 l 1
 500 550 l 1
 500 300 l 1
 250 300 l 1
-0.5 50 m 1
 -0.5 49.5 l 1
 0 49.5 l 1
 250 49.5 l 1
 250.5 49.5 l 1
 250.5 50 l 1
 250.5 300 l 1
 250.5 300.5 l 1
 250 300.5 l 1
 0 300.5 l 1
 -0.5 300.5 l 1
 -0.5 300 l 1
 -0.5 50 l 1
0.5 50.5 m 1
 0.5 299.5 l 1
 249.5 299.5 l 1
 249.5 50.5 l 1
 0.5 50.5 l 1
0 50 m 1
 0 300 l 1
 250 300 l 1
 250 50 l 1
 0 50 l 1
249.5 50 m 1
 249.5 49.5 l 1
 250 49.5 l 1
 500 49.5 l 1
 500.5 49.5 l 1
 500.5 50 l 1
 500.5 300 l 1
 500.5 300.5 l 1
 500 300.5 l 1
 250 300.5 l 1
 249.5 300.5 l 1
 249.5 300 l 1
 249.5 50 l 1
250.5 50.5 m 1
 250.5 299.5 l 1
 499.5 299.5 l 1
 499.5 50.5 l 1
 250.5 50.5 l 1
250 50 m 1
 250 300 l 1
 500 300 l 1
 500 50 l 1
 250 50 l 1
-0.5 -200 m 1
 -0.5 -200.5 l 1
 0 -200.5 l 1
 250 -200.5 l 1
 250.5 -200.5 l 1
 250.5 -200 l 1
 250.5 50 l 1
 250.5 50.5 l 1
 250 50.5 l 1
 0 50.5 l 1
 -0.5 50.5 l 1
 -0.5 50 l 1
 -0.5 -200 l 1
0.5 -199.5 m 1
 0.5 49.5 l 1
 249.5 49.5 l 1
 249.5 -199.5 l 1
 0.5 -199.5 l 1
0 -200 m 1
 0 50 l 1
 250 50 l 1
 250 -200 l 1
 0 -200 l 1
249.5 -200 m 1
 249.5 -200.5 l 1
 250 -200.5 l 1
 500 -200.5 l 1
 500.5 -200.5 l 1
 500.5 -200 l 1
 500.5 50 l 1
 500.5 50.5 l 1
 500 50.5 l 1
 250 50.5 l 1
 249.5 50.5 l 1
 249.5 50 l 1
 249.5 -200 l 1
250.5 -199.5 m 1
 250.5 49.5 l 1
 499.5 49.5 l 1
 499.5 -199.5 l 1
 250.5 -199.5 l 1
250 -200 m 1
 250 50 l 1
 500 50 l 1
 500 -200 l 1
 250 -200 l 1
EndSplineSet
EndChar

StartChar: glyph96
Encoding: 352 1093472 95
Width: 0
VWidth: 0
Flags: H
LayerCount: 2
Fore
SplineSet
249.5 550 m 1
 249.5 549.5 l 1
 250 549.5 l 1
 500 549.5 l 1
 500.5 549.5 l 1
 500.5 550 l 1
 500.5 800 l 1
 500.5 800.5 l 1
 500 800.5 l 1
 250 800.5 l 1
 249.5 800.5 l 1
 249.5 800 l 1
 249.5 550 l 1
250.5 550.5 m 1
 250.5 799.5 l 1
 499.5 799.5 l 1
 499.5 550.5 l 1
 250.5 550.5 l 1
250 550 m 1
 250 800 l 1
 500 800 l 1
 500 550 l 1
 250 550 l 1
-0.5 300 m 1
 -0.5 299.5 l 1
 0 299.5 l 1
 250 299.5 l 1
 250.5 299.5 l 1
 250.5 300 l 1
 250.5 550 l 1
 250.5 550.5 l 1
 250 550.5 l 1
 0 550.5 l 1
 -0.5 550.5 l 1
 -0.5 550 l 1
 -0.5 300 l 1
0.5 300.5 m 1
 0.5 549.5 l 1
 249.5 549.5 l 1
 249.5 300.5 l 1
 0.5 300.5 l 1
0 300 m 1
 0 550 l 1
 250 550 l 1
 250 300 l 1
 0 300 l 1
EndSplineSet
EndChar

StartChar: glyph97
Encoding: 353 1093473 96
Width: 0
VWidth: 0
Flags: H
LayerCount: 2
Fore
SplineSet
249.5 550 m 1
 249.5 549.5 l 1
 250 549.5 l 1
 500 549.5 l 1
 500.5 549.5 l 1
 500.5 550 l 1
 500.5 800 l 1
 500.5 800.5 l 1
 500 800.5 l 1
 250 800.5 l 1
 249.5 800.5 l 1
 249.5 800 l 1
 249.5 550 l 1
250.5 550.5 m 1
 250.5 799.5 l 1
 499.5 799.5 l 1
 499.5 550.5 l 1
 250.5 550.5 l 1
250 550 m 1
 250 800 l 1
 500 800 l 1
 500 550 l 1
 250 550 l 1
-0.5 300 m 1
 -0.5 299.5 l 1
 0 299.5 l 1
 250 299.5 l 1
 250.5 299.5 l 1
 250.5 300 l 1
 250.5 550 l 1
 250.5 550.5 l 1
 250 550.5 l 1
 0 550.5 l 1
 -0.5 550.5 l 1
 -0.5 550 l 1
 -0.5 300 l 1
0.5 300.5 m 1
 0.5 549.5 l 1
 249.5 549.5 l 1
 249.5 300.5 l 1
 0.5 300.5 l 1
0 300 m 1
 0 550 l 1
 250 550 l 1
 250 300 l 1
 0 300 l 1
249.5 -200 m 1
 249.5 -200.5 l 1
 250 -200.5 l 1
 500 -200.5 l 1
 500.5 -200.5 l 1
 500.5 -200 l 1
 500.5 50 l 1
 500.5 50.5 l 1
 500 50.5 l 1
 250 50.5 l 1
 249.5 50.5 l 1
 249.5 50 l 1
 249.5 -200 l 1
250.5 -199.5 m 1
 250.5 49.5 l 1
 499.5 49.5 l 1
 499.5 -199.5 l 1
 250.5 -199.5 l 1
250 -200 m 1
 250 50 l 1
 500 50 l 1
 500 -200 l 1
 250 -200 l 1
EndSplineSet
EndChar

StartChar: glyph98
Encoding: 354 1093474 97
Width: 0
VWidth: 0
Flags: H
LayerCount: 2
Fore
SplineSet
249.5 550 m 1
 249.5 549.5 l 1
 250 549.5 l 1
 500 549.5 l 1
 500.5 549.5 l 1
 500.5 550 l 1
 500.5 800 l 1
 500.5 800.5 l 1
 500 800.5 l 1
 250 800.5 l 1
 249.5 800.5 l 1
 249.5 800 l 1
 249.5 550 l 1
250.5 550.5 m 1
 250.5 799.5 l 1
 499.5 799.5 l 1
 499.5 550.5 l 1
 250.5 550.5 l 1
250 550 m 1
 250 800 l 1
 500 800 l 1
 500 550 l 1
 250 550 l 1
-0.5 300 m 1
 -0.5 299.5 l 1
 0 299.5 l 1
 250 299.5 l 1
 250.5 299.5 l 1
 250.5 300 l 1
 250.5 550 l 1
 250.5 550.5 l 1
 250 550.5 l 1
 0 550.5 l 1
 -0.5 550.5 l 1
 -0.5 550 l 1
 -0.5 300 l 1
0.5 300.5 m 1
 0.5 549.5 l 1
 249.5 549.5 l 1
 249.5 300.5 l 1
 0.5 300.5 l 1
0 300 m 1
 0 550 l 1
 250 550 l 1
 250 300 l 1
 0 300 l 1
-0.5 -200 m 1
 -0.5 -200.5 l 1
 0 -200.5 l 1
 250 -200.5 l 1
 250.5 -200.5 l 1
 250.5 -200 l 1
 250.5 50 l 1
 250.5 50.5 l 1
 250 50.5 l 1
 0 50.5 l 1
 -0.5 50.5 l 1
 -0.5 50 l 1
 -0.5 -200 l 1
0.5 -199.5 m 1
 0.5 49.5 l 1
 249.5 49.5 l 1
 249.5 -199.5 l 1
 0.5 -199.5 l 1
0 -200 m 1
 0 50 l 1
 250 50 l 1
 250 -200 l 1
 0 -200 l 1
EndSplineSet
EndChar

StartChar: glyph99
Encoding: 355 1093475 98
Width: 0
VWidth: 0
Flags: H
LayerCount: 2
Fore
SplineSet
249.5 550 m 1
 249.5 549.5 l 1
 250 549.5 l 1
 500 549.5 l 1
 500.5 549.5 l 1
 500.5 550 l 1
 500.5 800 l 1
 500.5 800.5 l 1
 500 800.5 l 1
 250 800.5 l 1
 249.5 800.5 l 1
 249.5 800 l 1
 249.5 550 l 1
250.5 550.5 m 1
 250.5 799.5 l 1
 499.5 799.5 l 1
 499.5 550.5 l 1
 250.5 550.5 l 1
250 550 m 1
 250 800 l 1
 500 800 l 1
 500 550 l 1
 250 550 l 1
-0.5 300 m 1
 -0.5 299.5 l 1
 0 299.5 l 1
 250 299.5 l 1
 250.5 299.5 l 1
 250.5 300 l 1
 250.5 550 l 1
 250.5 550.5 l 1
 250 550.5 l 1
 0 550.5 l 1
 -0.5 550.5 l 1
 -0.5 550 l 1
 -0.5 300 l 1
0.5 300.5 m 1
 0.5 549.5 l 1
 249.5 549.5 l 1
 249.5 300.5 l 1
 0.5 300.5 l 1
0 300 m 1
 0 550 l 1
 250 550 l 1
 250 300 l 1
 0 300 l 1
-0.5 -200 m 1
 -0.5 -200.5 l 1
 0 -200.5 l 1
 250 -200.5 l 1
 250.5 -200.5 l 1
 250.5 -200 l 1
 250.5 50 l 1
 250.5 50.5 l 1
 250 50.5 l 1
 0 50.5 l 1
 -0.5 50.5 l 1
 -0.5 50 l 1
 -0.5 -200 l 1
0.5 -199.5 m 1
 0.5 49.5 l 1
 249.5 49.5 l 1
 249.5 -199.5 l 1
 0.5 -199.5 l 1
0 -200 m 1
 0 50 l 1
 250 50 l 1
 250 -200 l 1
 0 -200 l 1
249.5 -200 m 1
 249.5 -200.5 l 1
 250 -200.5 l 1
 500 -200.5 l 1
 500.5 -200.5 l 1
 500.5 -200 l 1
 500.5 50 l 1
 500.5 50.5 l 1
 500 50.5 l 1
 250 50.5 l 1
 249.5 50.5 l 1
 249.5 50 l 1
 249.5 -200 l 1
250.5 -199.5 m 1
 250.5 49.5 l 1
 499.5 49.5 l 1
 499.5 -199.5 l 1
 250.5 -199.5 l 1
250 -200 m 1
 250 50 l 1
 500 50 l 1
 500 -200 l 1
 250 -200 l 1
EndSplineSet
EndChar

StartChar: glyph100
Encoding: 356 1093476 99
Width: 0
VWidth: 0
Flags: H
LayerCount: 2
Fore
SplineSet
249.5 550 m 1
 249.5 549.5 l 1
 250 549.5 l 1
 500 549.5 l 1
 500.5 549.5 l 1
 500.5 550 l 1
 500.5 800 l 1
 500.5 800.5 l 1
 500 800.5 l 1
 250 800.5 l 1
 249.5 800.5 l 1
 249.5 800 l 1
 249.5 550 l 1
250.5 550.5 m 1
 250.5 799.5 l 1
 499.5 799.5 l 1
 499.5 550.5 l 1
 250.5 550.5 l 1
250 550 m 1
 250 800 l 1
 500 800 l 1
 500 550 l 1
 250 550 l 1
-0.5 300 m 1
 -0.5 299.5 l 1
 0 299.5 l 1
 250 299.5 l 1
 250.5 299.5 l 1
 250.5 300 l 1
 250.5 550 l 1
 250.5 550.5 l 1
 250 550.5 l 1
 0 550.5 l 1
 -0.5 550.5 l 1
 -0.5 550 l 1
 -0.5 300 l 1
0.5 300.5 m 1
 0.5 549.5 l 1
 249.5 549.5 l 1
 249.5 300.5 l 1
 0.5 300.5 l 1
0 300 m 1
 0 550 l 1
 250 550 l 1
 250 300 l 1
 0 300 l 1
249.5 50 m 1
 249.5 49.5 l 1
 250 49.5 l 1
 500 49.5 l 1
 500.5 49.5 l 1
 500.5 50 l 1
 500.5 300 l 1
 500.5 300.5 l 1
 500 300.5 l 1
 250 300.5 l 1
 249.5 300.5 l 1
 249.5 300 l 1
 249.5 50 l 1
250.5 50.5 m 1
 250.5 299.5 l 1
 499.5 299.5 l 1
 499.5 50.5 l 1
 250.5 50.5 l 1
250 50 m 1
 250 300 l 1
 500 300 l 1
 500 50 l 1
 250 50 l 1
EndSplineSet
EndChar

StartChar: glyph101
Encoding: 357 1093477 100
Width: 0
VWidth: 0
Flags: H
LayerCount: 2
Fore
SplineSet
249.5 550 m 1
 249.5 549.5 l 1
 250 549.5 l 1
 500 549.5 l 1
 500.5 549.5 l 1
 500.5 550 l 1
 500.5 800 l 1
 500.5 800.5 l 1
 500 800.5 l 1
 250 800.5 l 1
 249.5 800.5 l 1
 249.5 800 l 1
 249.5 550 l 1
250.5 550.5 m 1
 250.5 799.5 l 1
 499.5 799.5 l 1
 499.5 550.5 l 1
 250.5 550.5 l 1
250 550 m 1
 250 800 l 1
 500 800 l 1
 500 550 l 1
 250 550 l 1
-0.5 300 m 1
 -0.5 299.5 l 1
 0 299.5 l 1
 250 299.5 l 1
 250.5 299.5 l 1
 250.5 300 l 1
 250.5 550 l 1
 250.5 550.5 l 1
 250 550.5 l 1
 0 550.5 l 1
 -0.5 550.5 l 1
 -0.5 550 l 1
 -0.5 300 l 1
0.5 300.5 m 1
 0.5 549.5 l 1
 249.5 549.5 l 1
 249.5 300.5 l 1
 0.5 300.5 l 1
0 300 m 1
 0 550 l 1
 250 550 l 1
 250 300 l 1
 0 300 l 1
249.5 50 m 1
 249.5 49.5 l 1
 250 49.5 l 1
 500 49.5 l 1
 500.5 49.5 l 1
 500.5 50 l 1
 500.5 300 l 1
 500.5 300.5 l 1
 500 300.5 l 1
 250 300.5 l 1
 249.5 300.5 l 1
 249.5 300 l 1
 249.5 50 l 1
250.5 50.5 m 1
 250.5 299.5 l 1
 499.5 299.5 l 1
 499.5 50.5 l 1
 250.5 50.5 l 1
250 50 m 1
 250 300 l 1
 500 300 l 1
 500 50 l 1
 250 50 l 1
249.5 -200 m 1
 249.5 -200.5 l 1
 250 -200.5 l 1
 500 -200.5 l 1
 500.5 -200.5 l 1
 500.5 -200 l 1
 500.5 50 l 1
 500.5 50.5 l 1
 500 50.5 l 1
 250 50.5 l 1
 249.5 50.5 l 1
 249.5 50 l 1
 249.5 -200 l 1
250.5 -199.5 m 1
 250.5 49.5 l 1
 499.5 49.5 l 1
 499.5 -199.5 l 1
 250.5 -199.5 l 1
250 -200 m 1
 250 50 l 1
 500 50 l 1
 500 -200 l 1
 250 -200 l 1
EndSplineSet
EndChar

StartChar: glyph102
Encoding: 358 1093478 101
Width: 0
VWidth: 0
Flags: H
LayerCount: 2
Fore
SplineSet
249.5 550 m 1
 249.5 549.5 l 1
 250 549.5 l 1
 500 549.5 l 1
 500.5 549.5 l 1
 500.5 550 l 1
 500.5 800 l 1
 500.5 800.5 l 1
 500 800.5 l 1
 250 800.5 l 1
 249.5 800.5 l 1
 249.5 800 l 1
 249.5 550 l 1
250.5 550.5 m 1
 250.5 799.5 l 1
 499.5 799.5 l 1
 499.5 550.5 l 1
 250.5 550.5 l 1
250 550 m 1
 250 800 l 1
 500 800 l 1
 500 550 l 1
 250 550 l 1
-0.5 300 m 1
 -0.5 299.5 l 1
 0 299.5 l 1
 250 299.5 l 1
 250.5 299.5 l 1
 250.5 300 l 1
 250.5 550 l 1
 250.5 550.5 l 1
 250 550.5 l 1
 0 550.5 l 1
 -0.5 550.5 l 1
 -0.5 550 l 1
 -0.5 300 l 1
0.5 300.5 m 1
 0.5 549.5 l 1
 249.5 549.5 l 1
 249.5 300.5 l 1
 0.5 300.5 l 1
0 300 m 1
 0 550 l 1
 250 550 l 1
 250 300 l 1
 0 300 l 1
249.5 50 m 1
 249.5 49.5 l 1
 250 49.5 l 1
 500 49.5 l 1
 500.5 49.5 l 1
 500.5 50 l 1
 500.5 300 l 1
 500.5 300.5 l 1
 500 300.5 l 1
 250 300.5 l 1
 249.5 300.5 l 1
 249.5 300 l 1
 249.5 50 l 1
250.5 50.5 m 1
 250.5 299.5 l 1
 499.5 299.5 l 1
 499.5 50.5 l 1
 250.5 50.5 l 1
250 50 m 1
 250 300 l 1
 500 300 l 1
 500 50 l 1
 250 50 l 1
-0.5 -200 m 1
 -0.5 -200.5 l 1
 0 -200.5 l 1
 250 -200.5 l 1
 250.5 -200.5 l 1
 250.5 -200 l 1
 250.5 50 l 1
 250.5 50.5 l 1
 250 50.5 l 1
 0 50.5 l 1
 -0.5 50.5 l 1
 -0.5 50 l 1
 -0.5 -200 l 1
0.5 -199.5 m 1
 0.5 49.5 l 1
 249.5 49.5 l 1
 249.5 -199.5 l 1
 0.5 -199.5 l 1
0 -200 m 1
 0 50 l 1
 250 50 l 1
 250 -200 l 1
 0 -200 l 1
EndSplineSet
EndChar

StartChar: glyph103
Encoding: 359 1093479 102
Width: 0
VWidth: 0
Flags: H
LayerCount: 2
Fore
SplineSet
249.5 550 m 1
 249.5 549.5 l 1
 250 549.5 l 1
 500 549.5 l 1
 500.5 549.5 l 1
 500.5 550 l 1
 500.5 800 l 1
 500.5 800.5 l 1
 500 800.5 l 1
 250 800.5 l 1
 249.5 800.5 l 1
 249.5 800 l 1
 249.5 550 l 1
250.5 550.5 m 1
 250.5 799.5 l 1
 499.5 799.5 l 1
 499.5 550.5 l 1
 250.5 550.5 l 1
250 550 m 1
 250 800 l 1
 500 800 l 1
 500 550 l 1
 250 550 l 1
-0.5 300 m 1
 -0.5 299.5 l 1
 0 299.5 l 1
 250 299.5 l 1
 250.5 299.5 l 1
 250.5 300 l 1
 250.5 550 l 1
 250.5 550.5 l 1
 250 550.5 l 1
 0 550.5 l 1
 -0.5 550.5 l 1
 -0.5 550 l 1
 -0.5 300 l 1
0.5 300.5 m 1
 0.5 549.5 l 1
 249.5 549.5 l 1
 249.5 300.5 l 1
 0.5 300.5 l 1
0 300 m 1
 0 550 l 1
 250 550 l 1
 250 300 l 1
 0 300 l 1
249.5 50 m 1
 249.5 49.5 l 1
 250 49.5 l 1
 500 49.5 l 1
 500.5 49.5 l 1
 500.5 50 l 1
 500.5 300 l 1
 500.5 300.5 l 1
 500 300.5 l 1
 250 300.5 l 1
 249.5 300.5 l 1
 249.5 300 l 1
 249.5 50 l 1
250.5 50.5 m 1
 250.5 299.5 l 1
 499.5 299.5 l 1
 499.5 50.5 l 1
 250.5 50.5 l 1
250 50 m 1
 250 300 l 1
 500 300 l 1
 500 50 l 1
 250 50 l 1
-0.5 -200 m 1
 -0.5 -200.5 l 1
 0 -200.5 l 1
 250 -200.5 l 1
 250.5 -200.5 l 1
 250.5 -200 l 1
 250.5 50 l 1
 250.5 50.5 l 1
 250 50.5 l 1
 0 50.5 l 1
 -0.5 50.5 l 1
 -0.5 50 l 1
 -0.5 -200 l 1
0.5 -199.5 m 1
 0.5 49.5 l 1
 249.5 49.5 l 1
 249.5 -199.5 l 1
 0.5 -199.5 l 1
0 -200 m 1
 0 50 l 1
 250 50 l 1
 250 -200 l 1
 0 -200 l 1
249.5 -200 m 1
 249.5 -200.5 l 1
 250 -200.5 l 1
 500 -200.5 l 1
 500.5 -200.5 l 1
 500.5 -200 l 1
 500.5 50 l 1
 500.5 50.5 l 1
 500 50.5 l 1
 250 50.5 l 1
 249.5 50.5 l 1
 249.5 50 l 1
 249.5 -200 l 1
250.5 -199.5 m 1
 250.5 49.5 l 1
 499.5 49.5 l 1
 499.5 -199.5 l 1
 250.5 -199.5 l 1
250 -200 m 1
 250 50 l 1
 500 50 l 1
 500 -200 l 1
 250 -200 l 1
EndSplineSet
EndChar

StartChar: glyph104
Encoding: 360 1093480 103
Width: 0
VWidth: 0
Flags: H
LayerCount: 2
Fore
SplineSet
249.5 550 m 1
 249.5 549.5 l 1
 250 549.5 l 1
 500 549.5 l 1
 500.5 549.5 l 1
 500.5 550 l 1
 500.5 800 l 1
 500.5 800.5 l 1
 500 800.5 l 1
 250 800.5 l 1
 249.5 800.5 l 1
 249.5 800 l 1
 249.5 550 l 1
250.5 550.5 m 1
 250.5 799.5 l 1
 499.5 799.5 l 1
 499.5 550.5 l 1
 250.5 550.5 l 1
250 550 m 1
 250 800 l 1
 500 800 l 1
 500 550 l 1
 250 550 l 1
-0.5 300 m 1
 -0.5 299.5 l 1
 0 299.5 l 1
 250 299.5 l 1
 250.5 299.5 l 1
 250.5 300 l 1
 250.5 550 l 1
 250.5 550.5 l 1
 250 550.5 l 1
 0 550.5 l 1
 -0.5 550.5 l 1
 -0.5 550 l 1
 -0.5 300 l 1
0.5 300.5 m 1
 0.5 549.5 l 1
 249.5 549.5 l 1
 249.5 300.5 l 1
 0.5 300.5 l 1
0 300 m 1
 0 550 l 1
 250 550 l 1
 250 300 l 1
 0 300 l 1
-0.5 50 m 1
 -0.5 49.5 l 1
 0 49.5 l 1
 250 49.5 l 1
 250.5 49.5 l 1
 250.5 50 l 1
 250.5 300 l 1
 250.5 300.5 l 1
 250 300.5 l 1
 0 300.5 l 1
 -0.5 300.5 l 1
 -0.5 300 l 1
 -0.5 50 l 1
0.5 50.5 m 1
 0.5 299.5 l 1
 249.5 299.5 l 1
 249.5 50.5 l 1
 0.5 50.5 l 1
0 50 m 1
 0 300 l 1
 250 300 l 1
 250 50 l 1
 0 50 l 1
EndSplineSet
EndChar

StartChar: glyph105
Encoding: 361 1093481 104
Width: 0
VWidth: 0
Flags: H
LayerCount: 2
Fore
SplineSet
249.5 550 m 1
 249.5 549.5 l 1
 250 549.5 l 1
 500 549.5 l 1
 500.5 549.5 l 1
 500.5 550 l 1
 500.5 800 l 1
 500.5 800.5 l 1
 500 800.5 l 1
 250 800.5 l 1
 249.5 800.5 l 1
 249.5 800 l 1
 249.5 550 l 1
250.5 550.5 m 1
 250.5 799.5 l 1
 499.5 799.5 l 1
 499.5 550.5 l 1
 250.5 550.5 l 1
250 550 m 1
 250 800 l 1
 500 800 l 1
 500 550 l 1
 250 550 l 1
-0.5 300 m 1
 -0.5 299.5 l 1
 0 299.5 l 1
 250 299.5 l 1
 250.5 299.5 l 1
 250.5 300 l 1
 250.5 550 l 1
 250.5 550.5 l 1
 250 550.5 l 1
 0 550.5 l 1
 -0.5 550.5 l 1
 -0.5 550 l 1
 -0.5 300 l 1
0.5 300.5 m 1
 0.5 549.5 l 1
 249.5 549.5 l 1
 249.5 300.5 l 1
 0.5 300.5 l 1
0 300 m 1
 0 550 l 1
 250 550 l 1
 250 300 l 1
 0 300 l 1
-0.5 50 m 1
 -0.5 49.5 l 1
 0 49.5 l 1
 250 49.5 l 1
 250.5 49.5 l 1
 250.5 50 l 1
 250.5 300 l 1
 250.5 300.5 l 1
 250 300.5 l 1
 0 300.5 l 1
 -0.5 300.5 l 1
 -0.5 300 l 1
 -0.5 50 l 1
0.5 50.5 m 1
 0.5 299.5 l 1
 249.5 299.5 l 1
 249.5 50.5 l 1
 0.5 50.5 l 1
0 50 m 1
 0 300 l 1
 250 300 l 1
 250 50 l 1
 0 50 l 1
249.5 -200 m 1
 249.5 -200.5 l 1
 250 -200.5 l 1
 500 -200.5 l 1
 500.5 -200.5 l 1
 500.5 -200 l 1
 500.5 50 l 1
 500.5 50.5 l 1
 500 50.5 l 1
 250 50.5 l 1
 249.5 50.5 l 1
 249.5 50 l 1
 249.5 -200 l 1
250.5 -199.5 m 1
 250.5 49.5 l 1
 499.5 49.5 l 1
 499.5 -199.5 l 1
 250.5 -199.5 l 1
250 -200 m 1
 250 50 l 1
 500 50 l 1
 500 -200 l 1
 250 -200 l 1
EndSplineSet
EndChar

StartChar: glyph106
Encoding: 362 1093482 105
Width: 0
VWidth: 0
Flags: H
LayerCount: 2
Fore
SplineSet
249.5 550 m 1
 249.5 549.5 l 1
 250 549.5 l 1
 500 549.5 l 1
 500.5 549.5 l 1
 500.5 550 l 1
 500.5 800 l 1
 500.5 800.5 l 1
 500 800.5 l 1
 250 800.5 l 1
 249.5 800.5 l 1
 249.5 800 l 1
 249.5 550 l 1
250.5 550.5 m 1
 250.5 799.5 l 1
 499.5 799.5 l 1
 499.5 550.5 l 1
 250.5 550.5 l 1
250 550 m 1
 250 800 l 1
 500 800 l 1
 500 550 l 1
 250 550 l 1
-0.5 300 m 1
 -0.5 299.5 l 1
 0 299.5 l 1
 250 299.5 l 1
 250.5 299.5 l 1
 250.5 300 l 1
 250.5 550 l 1
 250.5 550.5 l 1
 250 550.5 l 1
 0 550.5 l 1
 -0.5 550.5 l 1
 -0.5 550 l 1
 -0.5 300 l 1
0.5 300.5 m 1
 0.5 549.5 l 1
 249.5 549.5 l 1
 249.5 300.5 l 1
 0.5 300.5 l 1
0 300 m 1
 0 550 l 1
 250 550 l 1
 250 300 l 1
 0 300 l 1
-0.5 50 m 1
 -0.5 49.5 l 1
 0 49.5 l 1
 250 49.5 l 1
 250.5 49.5 l 1
 250.5 50 l 1
 250.5 300 l 1
 250.5 300.5 l 1
 250 300.5 l 1
 0 300.5 l 1
 -0.5 300.5 l 1
 -0.5 300 l 1
 -0.5 50 l 1
0.5 50.5 m 1
 0.5 299.5 l 1
 249.5 299.5 l 1
 249.5 50.5 l 1
 0.5 50.5 l 1
0 50 m 1
 0 300 l 1
 250 300 l 1
 250 50 l 1
 0 50 l 1
-0.5 -200 m 1
 -0.5 -200.5 l 1
 0 -200.5 l 1
 250 -200.5 l 1
 250.5 -200.5 l 1
 250.5 -200 l 1
 250.5 50 l 1
 250.5 50.5 l 1
 250 50.5 l 1
 0 50.5 l 1
 -0.5 50.5 l 1
 -0.5 50 l 1
 -0.5 -200 l 1
0.5 -199.5 m 1
 0.5 49.5 l 1
 249.5 49.5 l 1
 249.5 -199.5 l 1
 0.5 -199.5 l 1
0 -200 m 1
 0 50 l 1
 250 50 l 1
 250 -200 l 1
 0 -200 l 1
EndSplineSet
EndChar

StartChar: glyph107
Encoding: 363 1093483 106
Width: 0
VWidth: 0
Flags: H
LayerCount: 2
Fore
SplineSet
249.5 550 m 1
 249.5 549.5 l 1
 250 549.5 l 1
 500 549.5 l 1
 500.5 549.5 l 1
 500.5 550 l 1
 500.5 800 l 1
 500.5 800.5 l 1
 500 800.5 l 1
 250 800.5 l 1
 249.5 800.5 l 1
 249.5 800 l 1
 249.5 550 l 1
250.5 550.5 m 1
 250.5 799.5 l 1
 499.5 799.5 l 1
 499.5 550.5 l 1
 250.5 550.5 l 1
250 550 m 1
 250 800 l 1
 500 800 l 1
 500 550 l 1
 250 550 l 1
-0.5 300 m 1
 -0.5 299.5 l 1
 0 299.5 l 1
 250 299.5 l 1
 250.5 299.5 l 1
 250.5 300 l 1
 250.5 550 l 1
 250.5 550.5 l 1
 250 550.5 l 1
 0 550.5 l 1
 -0.5 550.5 l 1
 -0.5 550 l 1
 -0.5 300 l 1
0.5 300.5 m 1
 0.5 549.5 l 1
 249.5 549.5 l 1
 249.5 300.5 l 1
 0.5 300.5 l 1
0 300 m 1
 0 550 l 1
 250 550 l 1
 250 300 l 1
 0 300 l 1
-0.5 50 m 1
 -0.5 49.5 l 1
 0 49.5 l 1
 250 49.5 l 1
 250.5 49.5 l 1
 250.5 50 l 1
 250.5 300 l 1
 250.5 300.5 l 1
 250 300.5 l 1
 0 300.5 l 1
 -0.5 300.5 l 1
 -0.5 300 l 1
 -0.5 50 l 1
0.5 50.5 m 1
 0.5 299.5 l 1
 249.5 299.5 l 1
 249.5 50.5 l 1
 0.5 50.5 l 1
0 50 m 1
 0 300 l 1
 250 300 l 1
 250 50 l 1
 0 50 l 1
-0.5 -200 m 1
 -0.5 -200.5 l 1
 0 -200.5 l 1
 250 -200.5 l 1
 250.5 -200.5 l 1
 250.5 -200 l 1
 250.5 50 l 1
 250.5 50.5 l 1
 250 50.5 l 1
 0 50.5 l 1
 -0.5 50.5 l 1
 -0.5 50 l 1
 -0.5 -200 l 1
0.5 -199.5 m 1
 0.5 49.5 l 1
 249.5 49.5 l 1
 249.5 -199.5 l 1
 0.5 -199.5 l 1
0 -200 m 1
 0 50 l 1
 250 50 l 1
 250 -200 l 1
 0 -200 l 1
249.5 -200 m 1
 249.5 -200.5 l 1
 250 -200.5 l 1
 500 -200.5 l 1
 500.5 -200.5 l 1
 500.5 -200 l 1
 500.5 50 l 1
 500.5 50.5 l 1
 500 50.5 l 1
 250 50.5 l 1
 249.5 50.5 l 1
 249.5 50 l 1
 249.5 -200 l 1
250.5 -199.5 m 1
 250.5 49.5 l 1
 499.5 49.5 l 1
 499.5 -199.5 l 1
 250.5 -199.5 l 1
250 -200 m 1
 250 50 l 1
 500 50 l 1
 500 -200 l 1
 250 -200 l 1
EndSplineSet
EndChar

StartChar: glyph108
Encoding: 364 1093484 107
Width: 0
VWidth: 0
Flags: H
LayerCount: 2
Fore
SplineSet
249.5 550 m 1
 249.5 549.5 l 1
 250 549.5 l 1
 500 549.5 l 1
 500.5 549.5 l 1
 500.5 550 l 1
 500.5 800 l 1
 500.5 800.5 l 1
 500 800.5 l 1
 250 800.5 l 1
 249.5 800.5 l 1
 249.5 800 l 1
 249.5 550 l 1
250.5 550.5 m 1
 250.5 799.5 l 1
 499.5 799.5 l 1
 499.5 550.5 l 1
 250.5 550.5 l 1
250 550 m 1
 250 800 l 1
 500 800 l 1
 500 550 l 1
 250 550 l 1
-0.5 300 m 1
 -0.5 299.5 l 1
 0 299.5 l 1
 250 299.5 l 1
 250.5 299.5 l 1
 250.5 300 l 1
 250.5 550 l 1
 250.5 550.5 l 1
 250 550.5 l 1
 0 550.5 l 1
 -0.5 550.5 l 1
 -0.5 550 l 1
 -0.5 300 l 1
0.5 300.5 m 1
 0.5 549.5 l 1
 249.5 549.5 l 1
 249.5 300.5 l 1
 0.5 300.5 l 1
0 300 m 1
 0 550 l 1
 250 550 l 1
 250 300 l 1
 0 300 l 1
-0.5 50 m 1
 -0.5 49.5 l 1
 0 49.5 l 1
 250 49.5 l 1
 250.5 49.5 l 1
 250.5 50 l 1
 250.5 300 l 1
 250.5 300.5 l 1
 250 300.5 l 1
 0 300.5 l 1
 -0.5 300.5 l 1
 -0.5 300 l 1
 -0.5 50 l 1
0.5 50.5 m 1
 0.5 299.5 l 1
 249.5 299.5 l 1
 249.5 50.5 l 1
 0.5 50.5 l 1
0 50 m 1
 0 300 l 1
 250 300 l 1
 250 50 l 1
 0 50 l 1
249.5 50 m 1
 249.5 49.5 l 1
 250 49.5 l 1
 500 49.5 l 1
 500.5 49.5 l 1
 500.5 50 l 1
 500.5 300 l 1
 500.5 300.5 l 1
 500 300.5 l 1
 250 300.5 l 1
 249.5 300.5 l 1
 249.5 300 l 1
 249.5 50 l 1
250.5 50.5 m 1
 250.5 299.5 l 1
 499.5 299.5 l 1
 499.5 50.5 l 1
 250.5 50.5 l 1
250 50 m 1
 250 300 l 1
 500 300 l 1
 500 50 l 1
 250 50 l 1
EndSplineSet
EndChar

StartChar: glyph109
Encoding: 365 1093485 108
Width: 0
VWidth: 0
Flags: H
LayerCount: 2
Fore
SplineSet
249.5 550 m 1
 249.5 549.5 l 1
 250 549.5 l 1
 500 549.5 l 1
 500.5 549.5 l 1
 500.5 550 l 1
 500.5 800 l 1
 500.5 800.5 l 1
 500 800.5 l 1
 250 800.5 l 1
 249.5 800.5 l 1
 249.5 800 l 1
 249.5 550 l 1
250.5 550.5 m 1
 250.5 799.5 l 1
 499.5 799.5 l 1
 499.5 550.5 l 1
 250.5 550.5 l 1
250 550 m 1
 250 800 l 1
 500 800 l 1
 500 550 l 1
 250 550 l 1
-0.5 300 m 1
 -0.5 299.5 l 1
 0 299.5 l 1
 250 299.5 l 1
 250.5 299.5 l 1
 250.5 300 l 1
 250.5 550 l 1
 250.5 550.5 l 1
 250 550.5 l 1
 0 550.5 l 1
 -0.5 550.5 l 1
 -0.5 550 l 1
 -0.5 300 l 1
0.5 300.5 m 1
 0.5 549.5 l 1
 249.5 549.5 l 1
 249.5 300.5 l 1
 0.5 300.5 l 1
0 300 m 1
 0 550 l 1
 250 550 l 1
 250 300 l 1
 0 300 l 1
-0.5 50 m 1
 -0.5 49.5 l 1
 0 49.5 l 1
 250 49.5 l 1
 250.5 49.5 l 1
 250.5 50 l 1
 250.5 300 l 1
 250.5 300.5 l 1
 250 300.5 l 1
 0 300.5 l 1
 -0.5 300.5 l 1
 -0.5 300 l 1
 -0.5 50 l 1
0.5 50.5 m 1
 0.5 299.5 l 1
 249.5 299.5 l 1
 249.5 50.5 l 1
 0.5 50.5 l 1
0 50 m 1
 0 300 l 1
 250 300 l 1
 250 50 l 1
 0 50 l 1
249.5 50 m 1
 249.5 49.5 l 1
 250 49.5 l 1
 500 49.5 l 1
 500.5 49.5 l 1
 500.5 50 l 1
 500.5 300 l 1
 500.5 300.5 l 1
 500 300.5 l 1
 250 300.5 l 1
 249.5 300.5 l 1
 249.5 300 l 1
 249.5 50 l 1
250.5 50.5 m 1
 250.5 299.5 l 1
 499.5 299.5 l 1
 499.5 50.5 l 1
 250.5 50.5 l 1
250 50 m 1
 250 300 l 1
 500 300 l 1
 500 50 l 1
 250 50 l 1
249.5 -200 m 1
 249.5 -200.5 l 1
 250 -200.5 l 1
 500 -200.5 l 1
 500.5 -200.5 l 1
 500.5 -200 l 1
 500.5 50 l 1
 500.5 50.5 l 1
 500 50.5 l 1
 250 50.5 l 1
 249.5 50.5 l 1
 249.5 50 l 1
 249.5 -200 l 1
250.5 -199.5 m 1
 250.5 49.5 l 1
 499.5 49.5 l 1
 499.5 -199.5 l 1
 250.5 -199.5 l 1
250 -200 m 1
 250 50 l 1
 500 50 l 1
 500 -200 l 1
 250 -200 l 1
EndSplineSet
EndChar

StartChar: glyph110
Encoding: 366 1093486 109
Width: 0
VWidth: 0
Flags: H
LayerCount: 2
Fore
SplineSet
249.5 550 m 1
 249.5 549.5 l 1
 250 549.5 l 1
 500 549.5 l 1
 500.5 549.5 l 1
 500.5 550 l 1
 500.5 800 l 1
 500.5 800.5 l 1
 500 800.5 l 1
 250 800.5 l 1
 249.5 800.5 l 1
 249.5 800 l 1
 249.5 550 l 1
250.5 550.5 m 1
 250.5 799.5 l 1
 499.5 799.5 l 1
 499.5 550.5 l 1
 250.5 550.5 l 1
250 550 m 1
 250 800 l 1
 500 800 l 1
 500 550 l 1
 250 550 l 1
-0.5 300 m 1
 -0.5 299.5 l 1
 0 299.5 l 1
 250 299.5 l 1
 250.5 299.5 l 1
 250.5 300 l 1
 250.5 550 l 1
 250.5 550.5 l 1
 250 550.5 l 1
 0 550.5 l 1
 -0.5 550.5 l 1
 -0.5 550 l 1
 -0.5 300 l 1
0.5 300.5 m 1
 0.5 549.5 l 1
 249.5 549.5 l 1
 249.5 300.5 l 1
 0.5 300.5 l 1
0 300 m 1
 0 550 l 1
 250 550 l 1
 250 300 l 1
 0 300 l 1
-0.5 50 m 1
 -0.5 49.5 l 1
 0 49.5 l 1
 250 49.5 l 1
 250.5 49.5 l 1
 250.5 50 l 1
 250.5 300 l 1
 250.5 300.5 l 1
 250 300.5 l 1
 0 300.5 l 1
 -0.5 300.5 l 1
 -0.5 300 l 1
 -0.5 50 l 1
0.5 50.5 m 1
 0.5 299.5 l 1
 249.5 299.5 l 1
 249.5 50.5 l 1
 0.5 50.5 l 1
0 50 m 1
 0 300 l 1
 250 300 l 1
 250 50 l 1
 0 50 l 1
249.5 50 m 1
 249.5 49.5 l 1
 250 49.5 l 1
 500 49.5 l 1
 500.5 49.5 l 1
 500.5 50 l 1
 500.5 300 l 1
 500.5 300.5 l 1
 500 300.5 l 1
 250 300.5 l 1
 249.5 300.5 l 1
 249.5 300 l 1
 249.5 50 l 1
250.5 50.5 m 1
 250.5 299.5 l 1
 499.5 299.5 l 1
 499.5 50.5 l 1
 250.5 50.5 l 1
250 50 m 1
 250 300 l 1
 500 300 l 1
 500 50 l 1
 250 50 l 1
-0.5 -200 m 1
 -0.5 -200.5 l 1
 0 -200.5 l 1
 250 -200.5 l 1
 250.5 -200.5 l 1
 250.5 -200 l 1
 250.5 50 l 1
 250.5 50.5 l 1
 250 50.5 l 1
 0 50.5 l 1
 -0.5 50.5 l 1
 -0.5 50 l 1
 -0.5 -200 l 1
0.5 -199.5 m 1
 0.5 49.5 l 1
 249.5 49.5 l 1
 249.5 -199.5 l 1
 0.5 -199.5 l 1
0 -200 m 1
 0 50 l 1
 250 50 l 1
 250 -200 l 1
 0 -200 l 1
EndSplineSet
EndChar

StartChar: glyph111
Encoding: 367 1093487 110
Width: 0
VWidth: 0
Flags: H
LayerCount: 2
Fore
SplineSet
249.5 550 m 1
 249.5 549.5 l 1
 250 549.5 l 1
 500 549.5 l 1
 500.5 549.5 l 1
 500.5 550 l 1
 500.5 800 l 1
 500.5 800.5 l 1
 500 800.5 l 1
 250 800.5 l 1
 249.5 800.5 l 1
 249.5 800 l 1
 249.5 550 l 1
250.5 550.5 m 1
 250.5 799.5 l 1
 499.5 799.5 l 1
 499.5 550.5 l 1
 250.5 550.5 l 1
250 550 m 1
 250 800 l 1
 500 800 l 1
 500 550 l 1
 250 550 l 1
-0.5 300 m 1
 -0.5 299.5 l 1
 0 299.5 l 1
 250 299.5 l 1
 250.5 299.5 l 1
 250.5 300 l 1
 250.5 550 l 1
 250.5 550.5 l 1
 250 550.5 l 1
 0 550.5 l 1
 -0.5 550.5 l 1
 -0.5 550 l 1
 -0.5 300 l 1
0.5 300.5 m 1
 0.5 549.5 l 1
 249.5 549.5 l 1
 249.5 300.5 l 1
 0.5 300.5 l 1
0 300 m 1
 0 550 l 1
 250 550 l 1
 250 300 l 1
 0 300 l 1
-0.5 50 m 1
 -0.5 49.5 l 1
 0 49.5 l 1
 250 49.5 l 1
 250.5 49.5 l 1
 250.5 50 l 1
 250.5 300 l 1
 250.5 300.5 l 1
 250 300.5 l 1
 0 300.5 l 1
 -0.5 300.5 l 1
 -0.5 300 l 1
 -0.5 50 l 1
0.5 50.5 m 1
 0.5 299.5 l 1
 249.5 299.5 l 1
 249.5 50.5 l 1
 0.5 50.5 l 1
0 50 m 1
 0 300 l 1
 250 300 l 1
 250 50 l 1
 0 50 l 1
249.5 50 m 1
 249.5 49.5 l 1
 250 49.5 l 1
 500 49.5 l 1
 500.5 49.5 l 1
 500.5 50 l 1
 500.5 300 l 1
 500.5 300.5 l 1
 500 300.5 l 1
 250 300.5 l 1
 249.5 300.5 l 1
 249.5 300 l 1
 249.5 50 l 1
250.5 50.5 m 1
 250.5 299.5 l 1
 499.5 299.5 l 1
 499.5 50.5 l 1
 250.5 50.5 l 1
250 50 m 1
 250 300 l 1
 500 300 l 1
 500 50 l 1
 250 50 l 1
-0.5 -200 m 1
 -0.5 -200.5 l 1
 0 -200.5 l 1
 250 -200.5 l 1
 250.5 -200.5 l 1
 250.5 -200 l 1
 250.5 50 l 1
 250.5 50.5 l 1
 250 50.5 l 1
 0 50.5 l 1
 -0.5 50.5 l 1
 -0.5 50 l 1
 -0.5 -200 l 1
0.5 -199.5 m 1
 0.5 49.5 l 1
 249.5 49.5 l 1
 249.5 -199.5 l 1
 0.5 -199.5 l 1
0 -200 m 1
 0 50 l 1
 250 50 l 1
 250 -200 l 1
 0 -200 l 1
249.5 -200 m 1
 249.5 -200.5 l 1
 250 -200.5 l 1
 500 -200.5 l 1
 500.5 -200.5 l 1
 500.5 -200 l 1
 500.5 50 l 1
 500.5 50.5 l 1
 500 50.5 l 1
 250 50.5 l 1
 249.5 50.5 l 1
 249.5 50 l 1
 249.5 -200 l 1
250.5 -199.5 m 1
 250.5 49.5 l 1
 499.5 49.5 l 1
 499.5 -199.5 l 1
 250.5 -199.5 l 1
250 -200 m 1
 250 50 l 1
 500 50 l 1
 500 -200 l 1
 250 -200 l 1
EndSplineSet
EndChar

StartChar: glyph112
Encoding: 368 1093488 111
Width: 0
VWidth: 0
Flags: H
LayerCount: 2
Fore
SplineSet
249.5 550 m 1
 249.5 549.5 l 1
 250 549.5 l 1
 500 549.5 l 1
 500.5 549.5 l 1
 500.5 550 l 1
 500.5 800 l 1
 500.5 800.5 l 1
 500 800.5 l 1
 250 800.5 l 1
 249.5 800.5 l 1
 249.5 800 l 1
 249.5 550 l 1
250.5 550.5 m 1
 250.5 799.5 l 1
 499.5 799.5 l 1
 499.5 550.5 l 1
 250.5 550.5 l 1
250 550 m 1
 250 800 l 1
 500 800 l 1
 500 550 l 1
 250 550 l 1
-0.5 300 m 1
 -0.5 299.5 l 1
 0 299.5 l 1
 250 299.5 l 1
 250.5 299.5 l 1
 250.5 300 l 1
 250.5 550 l 1
 250.5 550.5 l 1
 250 550.5 l 1
 0 550.5 l 1
 -0.5 550.5 l 1
 -0.5 550 l 1
 -0.5 300 l 1
0.5 300.5 m 1
 0.5 549.5 l 1
 249.5 549.5 l 1
 249.5 300.5 l 1
 0.5 300.5 l 1
0 300 m 1
 0 550 l 1
 250 550 l 1
 250 300 l 1
 0 300 l 1
249.5 300 m 1
 249.5 299.5 l 1
 250 299.5 l 1
 500 299.5 l 1
 500.5 299.5 l 1
 500.5 300 l 1
 500.5 550 l 1
 500.5 550.5 l 1
 500 550.5 l 1
 250 550.5 l 1
 249.5 550.5 l 1
 249.5 550 l 1
 249.5 300 l 1
250.5 300.5 m 1
 250.5 549.5 l 1
 499.5 549.5 l 1
 499.5 300.5 l 1
 250.5 300.5 l 1
250 300 m 1
 250 550 l 1
 500 550 l 1
 500 300 l 1
 250 300 l 1
EndSplineSet
EndChar

StartChar: glyph113
Encoding: 369 1093489 112
Width: 0
VWidth: 0
Flags: H
LayerCount: 2
Fore
SplineSet
249.5 550 m 1
 249.5 549.5 l 1
 250 549.5 l 1
 500 549.5 l 1
 500.5 549.5 l 1
 500.5 550 l 1
 500.5 800 l 1
 500.5 800.5 l 1
 500 800.5 l 1
 250 800.5 l 1
 249.5 800.5 l 1
 249.5 800 l 1
 249.5 550 l 1
250.5 550.5 m 1
 250.5 799.5 l 1
 499.5 799.5 l 1
 499.5 550.5 l 1
 250.5 550.5 l 1
250 550 m 1
 250 800 l 1
 500 800 l 1
 500 550 l 1
 250 550 l 1
-0.5 300 m 1
 -0.5 299.5 l 1
 0 299.5 l 1
 250 299.5 l 1
 250.5 299.5 l 1
 250.5 300 l 1
 250.5 550 l 1
 250.5 550.5 l 1
 250 550.5 l 1
 0 550.5 l 1
 -0.5 550.5 l 1
 -0.5 550 l 1
 -0.5 300 l 1
0.5 300.5 m 1
 0.5 549.5 l 1
 249.5 549.5 l 1
 249.5 300.5 l 1
 0.5 300.5 l 1
0 300 m 1
 0 550 l 1
 250 550 l 1
 250 300 l 1
 0 300 l 1
249.5 300 m 1
 249.5 299.5 l 1
 250 299.5 l 1
 500 299.5 l 1
 500.5 299.5 l 1
 500.5 300 l 1
 500.5 550 l 1
 500.5 550.5 l 1
 500 550.5 l 1
 250 550.5 l 1
 249.5 550.5 l 1
 249.5 550 l 1
 249.5 300 l 1
250.5 300.5 m 1
 250.5 549.5 l 1
 499.5 549.5 l 1
 499.5 300.5 l 1
 250.5 300.5 l 1
250 300 m 1
 250 550 l 1
 500 550 l 1
 500 300 l 1
 250 300 l 1
249.5 -200 m 1
 249.5 -200.5 l 1
 250 -200.5 l 1
 500 -200.5 l 1
 500.5 -200.5 l 1
 500.5 -200 l 1
 500.5 50 l 1
 500.5 50.5 l 1
 500 50.5 l 1
 250 50.5 l 1
 249.5 50.5 l 1
 249.5 50 l 1
 249.5 -200 l 1
250.5 -199.5 m 1
 250.5 49.5 l 1
 499.5 49.5 l 1
 499.5 -199.5 l 1
 250.5 -199.5 l 1
250 -200 m 1
 250 50 l 1
 500 50 l 1
 500 -200 l 1
 250 -200 l 1
EndSplineSet
EndChar

StartChar: glyph114
Encoding: 370 1093490 113
Width: 0
VWidth: 0
Flags: H
LayerCount: 2
Fore
SplineSet
249.5 550 m 1
 249.5 549.5 l 1
 250 549.5 l 1
 500 549.5 l 1
 500.5 549.5 l 1
 500.5 550 l 1
 500.5 800 l 1
 500.5 800.5 l 1
 500 800.5 l 1
 250 800.5 l 1
 249.5 800.5 l 1
 249.5 800 l 1
 249.5 550 l 1
250.5 550.5 m 1
 250.5 799.5 l 1
 499.5 799.5 l 1
 499.5 550.5 l 1
 250.5 550.5 l 1
250 550 m 1
 250 800 l 1
 500 800 l 1
 500 550 l 1
 250 550 l 1
-0.5 300 m 1
 -0.5 299.5 l 1
 0 299.5 l 1
 250 299.5 l 1
 250.5 299.5 l 1
 250.5 300 l 1
 250.5 550 l 1
 250.5 550.5 l 1
 250 550.5 l 1
 0 550.5 l 1
 -0.5 550.5 l 1
 -0.5 550 l 1
 -0.5 300 l 1
0.5 300.5 m 1
 0.5 549.5 l 1
 249.5 549.5 l 1
 249.5 300.5 l 1
 0.5 300.5 l 1
0 300 m 1
 0 550 l 1
 250 550 l 1
 250 300 l 1
 0 300 l 1
249.5 300 m 1
 249.5 299.5 l 1
 250 299.5 l 1
 500 299.5 l 1
 500.5 299.5 l 1
 500.5 300 l 1
 500.5 550 l 1
 500.5 550.5 l 1
 500 550.5 l 1
 250 550.5 l 1
 249.5 550.5 l 1
 249.5 550 l 1
 249.5 300 l 1
250.5 300.5 m 1
 250.5 549.5 l 1
 499.5 549.5 l 1
 499.5 300.5 l 1
 250.5 300.5 l 1
250 300 m 1
 250 550 l 1
 500 550 l 1
 500 300 l 1
 250 300 l 1
-0.5 -200 m 1
 -0.5 -200.5 l 1
 0 -200.5 l 1
 250 -200.5 l 1
 250.5 -200.5 l 1
 250.5 -200 l 1
 250.5 50 l 1
 250.5 50.5 l 1
 250 50.5 l 1
 0 50.5 l 1
 -0.5 50.5 l 1
 -0.5 50 l 1
 -0.5 -200 l 1
0.5 -199.5 m 1
 0.5 49.5 l 1
 249.5 49.5 l 1
 249.5 -199.5 l 1
 0.5 -199.5 l 1
0 -200 m 1
 0 50 l 1
 250 50 l 1
 250 -200 l 1
 0 -200 l 1
EndSplineSet
EndChar

StartChar: glyph115
Encoding: 371 1093491 114
Width: 0
VWidth: 0
Flags: H
LayerCount: 2
Fore
SplineSet
249.5 550 m 1
 249.5 549.5 l 1
 250 549.5 l 1
 500 549.5 l 1
 500.5 549.5 l 1
 500.5 550 l 1
 500.5 800 l 1
 500.5 800.5 l 1
 500 800.5 l 1
 250 800.5 l 1
 249.5 800.5 l 1
 249.5 800 l 1
 249.5 550 l 1
250.5 550.5 m 1
 250.5 799.5 l 1
 499.5 799.5 l 1
 499.5 550.5 l 1
 250.5 550.5 l 1
250 550 m 1
 250 800 l 1
 500 800 l 1
 500 550 l 1
 250 550 l 1
-0.5 300 m 1
 -0.5 299.5 l 1
 0 299.5 l 1
 250 299.5 l 1
 250.5 299.5 l 1
 250.5 300 l 1
 250.5 550 l 1
 250.5 550.5 l 1
 250 550.5 l 1
 0 550.5 l 1
 -0.5 550.5 l 1
 -0.5 550 l 1
 -0.5 300 l 1
0.5 300.5 m 1
 0.5 549.5 l 1
 249.5 549.5 l 1
 249.5 300.5 l 1
 0.5 300.5 l 1
0 300 m 1
 0 550 l 1
 250 550 l 1
 250 300 l 1
 0 300 l 1
249.5 300 m 1
 249.5 299.5 l 1
 250 299.5 l 1
 500 299.5 l 1
 500.5 299.5 l 1
 500.5 300 l 1
 500.5 550 l 1
 500.5 550.5 l 1
 500 550.5 l 1
 250 550.5 l 1
 249.5 550.5 l 1
 249.5 550 l 1
 249.5 300 l 1
250.5 300.5 m 1
 250.5 549.5 l 1
 499.5 549.5 l 1
 499.5 300.5 l 1
 250.5 300.5 l 1
250 300 m 1
 250 550 l 1
 500 550 l 1
 500 300 l 1
 250 300 l 1
-0.5 -200 m 1
 -0.5 -200.5 l 1
 0 -200.5 l 1
 250 -200.5 l 1
 250.5 -200.5 l 1
 250.5 -200 l 1
 250.5 50 l 1
 250.5 50.5 l 1
 250 50.5 l 1
 0 50.5 l 1
 -0.5 50.5 l 1
 -0.5 50 l 1
 -0.5 -200 l 1
0.5 -199.5 m 1
 0.5 49.5 l 1
 249.5 49.5 l 1
 249.5 -199.5 l 1
 0.5 -199.5 l 1
0 -200 m 1
 0 50 l 1
 250 50 l 1
 250 -200 l 1
 0 -200 l 1
249.5 -200 m 1
 249.5 -200.5 l 1
 250 -200.5 l 1
 500 -200.5 l 1
 500.5 -200.5 l 1
 500.5 -200 l 1
 500.5 50 l 1
 500.5 50.5 l 1
 500 50.5 l 1
 250 50.5 l 1
 249.5 50.5 l 1
 249.5 50 l 1
 249.5 -200 l 1
250.5 -199.5 m 1
 250.5 49.5 l 1
 499.5 49.5 l 1
 499.5 -199.5 l 1
 250.5 -199.5 l 1
250 -200 m 1
 250 50 l 1
 500 50 l 1
 500 -200 l 1
 250 -200 l 1
EndSplineSet
EndChar

StartChar: glyph116
Encoding: 372 1093492 115
Width: 0
VWidth: 0
Flags: H
LayerCount: 2
Fore
SplineSet
249.5 550 m 1
 249.5 549.5 l 1
 250 549.5 l 1
 500 549.5 l 1
 500.5 549.5 l 1
 500.5 550 l 1
 500.5 800 l 1
 500.5 800.5 l 1
 500 800.5 l 1
 250 800.5 l 1
 249.5 800.5 l 1
 249.5 800 l 1
 249.5 550 l 1
250.5 550.5 m 1
 250.5 799.5 l 1
 499.5 799.5 l 1
 499.5 550.5 l 1
 250.5 550.5 l 1
250 550 m 1
 250 800 l 1
 500 800 l 1
 500 550 l 1
 250 550 l 1
-0.5 300 m 1
 -0.5 299.5 l 1
 0 299.5 l 1
 250 299.5 l 1
 250.5 299.5 l 1
 250.5 300 l 1
 250.5 550 l 1
 250.5 550.5 l 1
 250 550.5 l 1
 0 550.5 l 1
 -0.5 550.5 l 1
 -0.5 550 l 1
 -0.5 300 l 1
0.5 300.5 m 1
 0.5 549.5 l 1
 249.5 549.5 l 1
 249.5 300.5 l 1
 0.5 300.5 l 1
0 300 m 1
 0 550 l 1
 250 550 l 1
 250 300 l 1
 0 300 l 1
249.5 300 m 1
 249.5 299.5 l 1
 250 299.5 l 1
 500 299.5 l 1
 500.5 299.5 l 1
 500.5 300 l 1
 500.5 550 l 1
 500.5 550.5 l 1
 500 550.5 l 1
 250 550.5 l 1
 249.5 550.5 l 1
 249.5 550 l 1
 249.5 300 l 1
250.5 300.5 m 1
 250.5 549.5 l 1
 499.5 549.5 l 1
 499.5 300.5 l 1
 250.5 300.5 l 1
250 300 m 1
 250 550 l 1
 500 550 l 1
 500 300 l 1
 250 300 l 1
249.5 50 m 1
 249.5 49.5 l 1
 250 49.5 l 1
 500 49.5 l 1
 500.5 49.5 l 1
 500.5 50 l 1
 500.5 300 l 1
 500.5 300.5 l 1
 500 300.5 l 1
 250 300.5 l 1
 249.5 300.5 l 1
 249.5 300 l 1
 249.5 50 l 1
250.5 50.5 m 1
 250.5 299.5 l 1
 499.5 299.5 l 1
 499.5 50.5 l 1
 250.5 50.5 l 1
250 50 m 1
 250 300 l 1
 500 300 l 1
 500 50 l 1
 250 50 l 1
EndSplineSet
EndChar

StartChar: glyph117
Encoding: 373 1093493 116
Width: 0
VWidth: 0
Flags: H
LayerCount: 2
Fore
SplineSet
249.5 550 m 1
 249.5 549.5 l 1
 250 549.5 l 1
 500 549.5 l 1
 500.5 549.5 l 1
 500.5 550 l 1
 500.5 800 l 1
 500.5 800.5 l 1
 500 800.5 l 1
 250 800.5 l 1
 249.5 800.5 l 1
 249.5 800 l 1
 249.5 550 l 1
250.5 550.5 m 1
 250.5 799.5 l 1
 499.5 799.5 l 1
 499.5 550.5 l 1
 250.5 550.5 l 1
250 550 m 1
 250 800 l 1
 500 800 l 1
 500 550 l 1
 250 550 l 1
-0.5 300 m 1
 -0.5 299.5 l 1
 0 299.5 l 1
 250 299.5 l 1
 250.5 299.5 l 1
 250.5 300 l 1
 250.5 550 l 1
 250.5 550.5 l 1
 250 550.5 l 1
 0 550.5 l 1
 -0.5 550.5 l 1
 -0.5 550 l 1
 -0.5 300 l 1
0.5 300.5 m 1
 0.5 549.5 l 1
 249.5 549.5 l 1
 249.5 300.5 l 1
 0.5 300.5 l 1
0 300 m 1
 0 550 l 1
 250 550 l 1
 250 300 l 1
 0 300 l 1
249.5 300 m 1
 249.5 299.5 l 1
 250 299.5 l 1
 500 299.5 l 1
 500.5 299.5 l 1
 500.5 300 l 1
 500.5 550 l 1
 500.5 550.5 l 1
 500 550.5 l 1
 250 550.5 l 1
 249.5 550.5 l 1
 249.5 550 l 1
 249.5 300 l 1
250.5 300.5 m 1
 250.5 549.5 l 1
 499.5 549.5 l 1
 499.5 300.5 l 1
 250.5 300.5 l 1
250 300 m 1
 250 550 l 1
 500 550 l 1
 500 300 l 1
 250 300 l 1
249.5 50 m 1
 249.5 49.5 l 1
 250 49.5 l 1
 500 49.5 l 1
 500.5 49.5 l 1
 500.5 50 l 1
 500.5 300 l 1
 500.5 300.5 l 1
 500 300.5 l 1
 250 300.5 l 1
 249.5 300.5 l 1
 249.5 300 l 1
 249.5 50 l 1
250.5 50.5 m 1
 250.5 299.5 l 1
 499.5 299.5 l 1
 499.5 50.5 l 1
 250.5 50.5 l 1
250 50 m 1
 250 300 l 1
 500 300 l 1
 500 50 l 1
 250 50 l 1
249.5 -200 m 1
 249.5 -200.5 l 1
 250 -200.5 l 1
 500 -200.5 l 1
 500.5 -200.5 l 1
 500.5 -200 l 1
 500.5 50 l 1
 500.5 50.5 l 1
 500 50.5 l 1
 250 50.5 l 1
 249.5 50.5 l 1
 249.5 50 l 1
 249.5 -200 l 1
250.5 -199.5 m 1
 250.5 49.5 l 1
 499.5 49.5 l 1
 499.5 -199.5 l 1
 250.5 -199.5 l 1
250 -200 m 1
 250 50 l 1
 500 50 l 1
 500 -200 l 1
 250 -200 l 1
EndSplineSet
EndChar

StartChar: glyph118
Encoding: 374 1093494 117
Width: 0
VWidth: 0
Flags: H
LayerCount: 2
Fore
SplineSet
249.5 550 m 1
 249.5 549.5 l 1
 250 549.5 l 1
 500 549.5 l 1
 500.5 549.5 l 1
 500.5 550 l 1
 500.5 800 l 1
 500.5 800.5 l 1
 500 800.5 l 1
 250 800.5 l 1
 249.5 800.5 l 1
 249.5 800 l 1
 249.5 550 l 1
250.5 550.5 m 1
 250.5 799.5 l 1
 499.5 799.5 l 1
 499.5 550.5 l 1
 250.5 550.5 l 1
250 550 m 1
 250 800 l 1
 500 800 l 1
 500 550 l 1
 250 550 l 1
-0.5 300 m 1
 -0.5 299.5 l 1
 0 299.5 l 1
 250 299.5 l 1
 250.5 299.5 l 1
 250.5 300 l 1
 250.5 550 l 1
 250.5 550.5 l 1
 250 550.5 l 1
 0 550.5 l 1
 -0.5 550.5 l 1
 -0.5 550 l 1
 -0.5 300 l 1
0.5 300.5 m 1
 0.5 549.5 l 1
 249.5 549.5 l 1
 249.5 300.5 l 1
 0.5 300.5 l 1
0 300 m 1
 0 550 l 1
 250 550 l 1
 250 300 l 1
 0 300 l 1
249.5 300 m 1
 249.5 299.5 l 1
 250 299.5 l 1
 500 299.5 l 1
 500.5 299.5 l 1
 500.5 300 l 1
 500.5 550 l 1
 500.5 550.5 l 1
 500 550.5 l 1
 250 550.5 l 1
 249.5 550.5 l 1
 249.5 550 l 1
 249.5 300 l 1
250.5 300.5 m 1
 250.5 549.5 l 1
 499.5 549.5 l 1
 499.5 300.5 l 1
 250.5 300.5 l 1
250 300 m 1
 250 550 l 1
 500 550 l 1
 500 300 l 1
 250 300 l 1
249.5 50 m 1
 249.5 49.5 l 1
 250 49.5 l 1
 500 49.5 l 1
 500.5 49.5 l 1
 500.5 50 l 1
 500.5 300 l 1
 500.5 300.5 l 1
 500 300.5 l 1
 250 300.5 l 1
 249.5 300.5 l 1
 249.5 300 l 1
 249.5 50 l 1
250.5 50.5 m 1
 250.5 299.5 l 1
 499.5 299.5 l 1
 499.5 50.5 l 1
 250.5 50.5 l 1
250 50 m 1
 250 300 l 1
 500 300 l 1
 500 50 l 1
 250 50 l 1
-0.5 -200 m 1
 -0.5 -200.5 l 1
 0 -200.5 l 1
 250 -200.5 l 1
 250.5 -200.5 l 1
 250.5 -200 l 1
 250.5 50 l 1
 250.5 50.5 l 1
 250 50.5 l 1
 0 50.5 l 1
 -0.5 50.5 l 1
 -0.5 50 l 1
 -0.5 -200 l 1
0.5 -199.5 m 1
 0.5 49.5 l 1
 249.5 49.5 l 1
 249.5 -199.5 l 1
 0.5 -199.5 l 1
0 -200 m 1
 0 50 l 1
 250 50 l 1
 250 -200 l 1
 0 -200 l 1
EndSplineSet
EndChar

StartChar: glyph119
Encoding: 375 1093495 118
Width: 0
VWidth: 0
Flags: H
LayerCount: 2
Fore
SplineSet
249.5 550 m 1
 249.5 549.5 l 1
 250 549.5 l 1
 500 549.5 l 1
 500.5 549.5 l 1
 500.5 550 l 1
 500.5 800 l 1
 500.5 800.5 l 1
 500 800.5 l 1
 250 800.5 l 1
 249.5 800.5 l 1
 249.5 800 l 1
 249.5 550 l 1
250.5 550.5 m 1
 250.5 799.5 l 1
 499.5 799.5 l 1
 499.5 550.5 l 1
 250.5 550.5 l 1
250 550 m 1
 250 800 l 1
 500 800 l 1
 500 550 l 1
 250 550 l 1
-0.5 300 m 1
 -0.5 299.5 l 1
 0 299.5 l 1
 250 299.5 l 1
 250.5 299.5 l 1
 250.5 300 l 1
 250.5 550 l 1
 250.5 550.5 l 1
 250 550.5 l 1
 0 550.5 l 1
 -0.5 550.5 l 1
 -0.5 550 l 1
 -0.5 300 l 1
0.5 300.5 m 1
 0.5 549.5 l 1
 249.5 549.5 l 1
 249.5 300.5 l 1
 0.5 300.5 l 1
0 300 m 1
 0 550 l 1
 250 550 l 1
 250 300 l 1
 0 300 l 1
249.5 300 m 1
 249.5 299.5 l 1
 250 299.5 l 1
 500 299.5 l 1
 500.5 299.5 l 1
 500.5 300 l 1
 500.5 550 l 1
 500.5 550.5 l 1
 500 550.5 l 1
 250 550.5 l 1
 249.5 550.5 l 1
 249.5 550 l 1
 249.5 300 l 1
250.5 300.5 m 1
 250.5 549.5 l 1
 499.5 549.5 l 1
 499.5 300.5 l 1
 250.5 300.5 l 1
250 300 m 1
 250 550 l 1
 500 550 l 1
 500 300 l 1
 250 300 l 1
249.5 50 m 1
 249.5 49.5 l 1
 250 49.5 l 1
 500 49.5 l 1
 500.5 49.5 l 1
 500.5 50 l 1
 500.5 300 l 1
 500.5 300.5 l 1
 500 300.5 l 1
 250 300.5 l 1
 249.5 300.5 l 1
 249.5 300 l 1
 249.5 50 l 1
250.5 50.5 m 1
 250.5 299.5 l 1
 499.5 299.5 l 1
 499.5 50.5 l 1
 250.5 50.5 l 1
250 50 m 1
 250 300 l 1
 500 300 l 1
 500 50 l 1
 250 50 l 1
-0.5 -200 m 1
 -0.5 -200.5 l 1
 0 -200.5 l 1
 250 -200.5 l 1
 250.5 -200.5 l 1
 250.5 -200 l 1
 250.5 50 l 1
 250.5 50.5 l 1
 250 50.5 l 1
 0 50.5 l 1
 -0.5 50.5 l 1
 -0.5 50 l 1
 -0.5 -200 l 1
0.5 -199.5 m 1
 0.5 49.5 l 1
 249.5 49.5 l 1
 249.5 -199.5 l 1
 0.5 -199.5 l 1
0 -200 m 1
 0 50 l 1
 250 50 l 1
 250 -200 l 1
 0 -200 l 1
249.5 -200 m 1
 249.5 -200.5 l 1
 250 -200.5 l 1
 500 -200.5 l 1
 500.5 -200.5 l 1
 500.5 -200 l 1
 500.5 50 l 1
 500.5 50.5 l 1
 500 50.5 l 1
 250 50.5 l 1
 249.5 50.5 l 1
 249.5 50 l 1
 249.5 -200 l 1
250.5 -199.5 m 1
 250.5 49.5 l 1
 499.5 49.5 l 1
 499.5 -199.5 l 1
 250.5 -199.5 l 1
250 -200 m 1
 250 50 l 1
 500 50 l 1
 500 -200 l 1
 250 -200 l 1
EndSplineSet
EndChar

StartChar: glyph120
Encoding: 376 1093496 119
Width: 0
VWidth: 0
Flags: H
LayerCount: 2
Fore
SplineSet
249.5 550 m 1
 249.5 549.5 l 1
 250 549.5 l 1
 500 549.5 l 1
 500.5 549.5 l 1
 500.5 550 l 1
 500.5 800 l 1
 500.5 800.5 l 1
 500 800.5 l 1
 250 800.5 l 1
 249.5 800.5 l 1
 249.5 800 l 1
 249.5 550 l 1
250.5 550.5 m 1
 250.5 799.5 l 1
 499.5 799.5 l 1
 499.5 550.5 l 1
 250.5 550.5 l 1
250 550 m 1
 250 800 l 1
 500 800 l 1
 500 550 l 1
 250 550 l 1
-0.5 300 m 1
 -0.5 299.5 l 1
 0 299.5 l 1
 250 299.5 l 1
 250.5 299.5 l 1
 250.5 300 l 1
 250.5 550 l 1
 250.5 550.5 l 1
 250 550.5 l 1
 0 550.5 l 1
 -0.5 550.5 l 1
 -0.5 550 l 1
 -0.5 300 l 1
0.5 300.5 m 1
 0.5 549.5 l 1
 249.5 549.5 l 1
 249.5 300.5 l 1
 0.5 300.5 l 1
0 300 m 1
 0 550 l 1
 250 550 l 1
 250 300 l 1
 0 300 l 1
249.5 300 m 1
 249.5 299.5 l 1
 250 299.5 l 1
 500 299.5 l 1
 500.5 299.5 l 1
 500.5 300 l 1
 500.5 550 l 1
 500.5 550.5 l 1
 500 550.5 l 1
 250 550.5 l 1
 249.5 550.5 l 1
 249.5 550 l 1
 249.5 300 l 1
250.5 300.5 m 1
 250.5 549.5 l 1
 499.5 549.5 l 1
 499.5 300.5 l 1
 250.5 300.5 l 1
250 300 m 1
 250 550 l 1
 500 550 l 1
 500 300 l 1
 250 300 l 1
-0.5 50 m 1
 -0.5 49.5 l 1
 0 49.5 l 1
 250 49.5 l 1
 250.5 49.5 l 1
 250.5 50 l 1
 250.5 300 l 1
 250.5 300.5 l 1
 250 300.5 l 1
 0 300.5 l 1
 -0.5 300.5 l 1
 -0.5 300 l 1
 -0.5 50 l 1
0.5 50.5 m 1
 0.5 299.5 l 1
 249.5 299.5 l 1
 249.5 50.5 l 1
 0.5 50.5 l 1
0 50 m 1
 0 300 l 1
 250 300 l 1
 250 50 l 1
 0 50 l 1
EndSplineSet
EndChar

StartChar: glyph121
Encoding: 377 1093497 120
Width: 0
VWidth: 0
Flags: H
LayerCount: 2
Fore
SplineSet
249.5 550 m 1
 249.5 549.5 l 1
 250 549.5 l 1
 500 549.5 l 1
 500.5 549.5 l 1
 500.5 550 l 1
 500.5 800 l 1
 500.5 800.5 l 1
 500 800.5 l 1
 250 800.5 l 1
 249.5 800.5 l 1
 249.5 800 l 1
 249.5 550 l 1
250.5 550.5 m 1
 250.5 799.5 l 1
 499.5 799.5 l 1
 499.5 550.5 l 1
 250.5 550.5 l 1
250 550 m 1
 250 800 l 1
 500 800 l 1
 500 550 l 1
 250 550 l 1
-0.5 300 m 1
 -0.5 299.5 l 1
 0 299.5 l 1
 250 299.5 l 1
 250.5 299.5 l 1
 250.5 300 l 1
 250.5 550 l 1
 250.5 550.5 l 1
 250 550.5 l 1
 0 550.5 l 1
 -0.5 550.5 l 1
 -0.5 550 l 1
 -0.5 300 l 1
0.5 300.5 m 1
 0.5 549.5 l 1
 249.5 549.5 l 1
 249.5 300.5 l 1
 0.5 300.5 l 1
0 300 m 1
 0 550 l 1
 250 550 l 1
 250 300 l 1
 0 300 l 1
249.5 300 m 1
 249.5 299.5 l 1
 250 299.5 l 1
 500 299.5 l 1
 500.5 299.5 l 1
 500.5 300 l 1
 500.5 550 l 1
 500.5 550.5 l 1
 500 550.5 l 1
 250 550.5 l 1
 249.5 550.5 l 1
 249.5 550 l 1
 249.5 300 l 1
250.5 300.5 m 1
 250.5 549.5 l 1
 499.5 549.5 l 1
 499.5 300.5 l 1
 250.5 300.5 l 1
250 300 m 1
 250 550 l 1
 500 550 l 1
 500 300 l 1
 250 300 l 1
-0.5 50 m 1
 -0.5 49.5 l 1
 0 49.5 l 1
 250 49.5 l 1
 250.5 49.5 l 1
 250.5 50 l 1
 250.5 300 l 1
 250.5 300.5 l 1
 250 300.5 l 1
 0 300.5 l 1
 -0.5 300.5 l 1
 -0.5 300 l 1
 -0.5 50 l 1
0.5 50.5 m 1
 0.5 299.5 l 1
 249.5 299.5 l 1
 249.5 50.5 l 1
 0.5 50.5 l 1
0 50 m 1
 0 300 l 1
 250 300 l 1
 250 50 l 1
 0 50 l 1
249.5 -200 m 1
 249.5 -200.5 l 1
 250 -200.5 l 1
 500 -200.5 l 1
 500.5 -200.5 l 1
 500.5 -200 l 1
 500.5 50 l 1
 500.5 50.5 l 1
 500 50.5 l 1
 250 50.5 l 1
 249.5 50.5 l 1
 249.5 50 l 1
 249.5 -200 l 1
250.5 -199.5 m 1
 250.5 49.5 l 1
 499.5 49.5 l 1
 499.5 -199.5 l 1
 250.5 -199.5 l 1
250 -200 m 1
 250 50 l 1
 500 50 l 1
 500 -200 l 1
 250 -200 l 1
EndSplineSet
EndChar

StartChar: glyph122
Encoding: 378 1093498 121
Width: 0
VWidth: 0
Flags: H
LayerCount: 2
Fore
SplineSet
249.5 550 m 1
 249.5 549.5 l 1
 250 549.5 l 1
 500 549.5 l 1
 500.5 549.5 l 1
 500.5 550 l 1
 500.5 800 l 1
 500.5 800.5 l 1
 500 800.5 l 1
 250 800.5 l 1
 249.5 800.5 l 1
 249.5 800 l 1
 249.5 550 l 1
250.5 550.5 m 1
 250.5 799.5 l 1
 499.5 799.5 l 1
 499.5 550.5 l 1
 250.5 550.5 l 1
250 550 m 1
 250 800 l 1
 500 800 l 1
 500 550 l 1
 250 550 l 1
-0.5 300 m 1
 -0.5 299.5 l 1
 0 299.5 l 1
 250 299.5 l 1
 250.5 299.5 l 1
 250.5 300 l 1
 250.5 550 l 1
 250.5 550.5 l 1
 250 550.5 l 1
 0 550.5 l 1
 -0.5 550.5 l 1
 -0.5 550 l 1
 -0.5 300 l 1
0.5 300.5 m 1
 0.5 549.5 l 1
 249.5 549.5 l 1
 249.5 300.5 l 1
 0.5 300.5 l 1
0 300 m 1
 0 550 l 1
 250 550 l 1
 250 300 l 1
 0 300 l 1
249.5 300 m 1
 249.5 299.5 l 1
 250 299.5 l 1
 500 299.5 l 1
 500.5 299.5 l 1
 500.5 300 l 1
 500.5 550 l 1
 500.5 550.5 l 1
 500 550.5 l 1
 250 550.5 l 1
 249.5 550.5 l 1
 249.5 550 l 1
 249.5 300 l 1
250.5 300.5 m 1
 250.5 549.5 l 1
 499.5 549.5 l 1
 499.5 300.5 l 1
 250.5 300.5 l 1
250 300 m 1
 250 550 l 1
 500 550 l 1
 500 300 l 1
 250 300 l 1
-0.5 50 m 1
 -0.5 49.5 l 1
 0 49.5 l 1
 250 49.5 l 1
 250.5 49.5 l 1
 250.5 50 l 1
 250.5 300 l 1
 250.5 300.5 l 1
 250 300.5 l 1
 0 300.5 l 1
 -0.5 300.5 l 1
 -0.5 300 l 1
 -0.5 50 l 1
0.5 50.5 m 1
 0.5 299.5 l 1
 249.5 299.5 l 1
 249.5 50.5 l 1
 0.5 50.5 l 1
0 50 m 1
 0 300 l 1
 250 300 l 1
 250 50 l 1
 0 50 l 1
-0.5 -200 m 1
 -0.5 -200.5 l 1
 0 -200.5 l 1
 250 -200.5 l 1
 250.5 -200.5 l 1
 250.5 -200 l 1
 250.5 50 l 1
 250.5 50.5 l 1
 250 50.5 l 1
 0 50.5 l 1
 -0.5 50.5 l 1
 -0.5 50 l 1
 -0.5 -200 l 1
0.5 -199.5 m 1
 0.5 49.5 l 1
 249.5 49.5 l 1
 249.5 -199.5 l 1
 0.5 -199.5 l 1
0 -200 m 1
 0 50 l 1
 250 50 l 1
 250 -200 l 1
 0 -200 l 1
EndSplineSet
EndChar

StartChar: glyph123
Encoding: 379 1093499 122
Width: 0
VWidth: 0
Flags: H
LayerCount: 2
Fore
SplineSet
249.5 550 m 1
 249.5 549.5 l 1
 250 549.5 l 1
 500 549.5 l 1
 500.5 549.5 l 1
 500.5 550 l 1
 500.5 800 l 1
 500.5 800.5 l 1
 500 800.5 l 1
 250 800.5 l 1
 249.5 800.5 l 1
 249.5 800 l 1
 249.5 550 l 1
250.5 550.5 m 1
 250.5 799.5 l 1
 499.5 799.5 l 1
 499.5 550.5 l 1
 250.5 550.5 l 1
250 550 m 1
 250 800 l 1
 500 800 l 1
 500 550 l 1
 250 550 l 1
-0.5 300 m 1
 -0.5 299.5 l 1
 0 299.5 l 1
 250 299.5 l 1
 250.5 299.5 l 1
 250.5 300 l 1
 250.5 550 l 1
 250.5 550.5 l 1
 250 550.5 l 1
 0 550.5 l 1
 -0.5 550.5 l 1
 -0.5 550 l 1
 -0.5 300 l 1
0.5 300.5 m 1
 0.5 549.5 l 1
 249.5 549.5 l 1
 249.5 300.5 l 1
 0.5 300.5 l 1
0 300 m 1
 0 550 l 1
 250 550 l 1
 250 300 l 1
 0 300 l 1
249.5 300 m 1
 249.5 299.5 l 1
 250 299.5 l 1
 500 299.5 l 1
 500.5 299.5 l 1
 500.5 300 l 1
 500.5 550 l 1
 500.5 550.5 l 1
 500 550.5 l 1
 250 550.5 l 1
 249.5 550.5 l 1
 249.5 550 l 1
 249.5 300 l 1
250.5 300.5 m 1
 250.5 549.5 l 1
 499.5 549.5 l 1
 499.5 300.5 l 1
 250.5 300.5 l 1
250 300 m 1
 250 550 l 1
 500 550 l 1
 500 300 l 1
 250 300 l 1
-0.5 50 m 1
 -0.5 49.5 l 1
 0 49.5 l 1
 250 49.5 l 1
 250.5 49.5 l 1
 250.5 50 l 1
 250.5 300 l 1
 250.5 300.5 l 1
 250 300.5 l 1
 0 300.5 l 1
 -0.5 300.5 l 1
 -0.5 300 l 1
 -0.5 50 l 1
0.5 50.5 m 1
 0.5 299.5 l 1
 249.5 299.5 l 1
 249.5 50.5 l 1
 0.5 50.5 l 1
0 50 m 1
 0 300 l 1
 250 300 l 1
 250 50 l 1
 0 50 l 1
-0.5 -200 m 1
 -0.5 -200.5 l 1
 0 -200.5 l 1
 250 -200.5 l 1
 250.5 -200.5 l 1
 250.5 -200 l 1
 250.5 50 l 1
 250.5 50.5 l 1
 250 50.5 l 1
 0 50.5 l 1
 -0.5 50.5 l 1
 -0.5 50 l 1
 -0.5 -200 l 1
0.5 -199.5 m 1
 0.5 49.5 l 1
 249.5 49.5 l 1
 249.5 -199.5 l 1
 0.5 -199.5 l 1
0 -200 m 1
 0 50 l 1
 250 50 l 1
 250 -200 l 1
 0 -200 l 1
249.5 -200 m 1
 249.5 -200.5 l 1
 250 -200.5 l 1
 500 -200.5 l 1
 500.5 -200.5 l 1
 500.5 -200 l 1
 500.5 50 l 1
 500.5 50.5 l 1
 500 50.5 l 1
 250 50.5 l 1
 249.5 50.5 l 1
 249.5 50 l 1
 249.5 -200 l 1
250.5 -199.5 m 1
 250.5 49.5 l 1
 499.5 49.5 l 1
 499.5 -199.5 l 1
 250.5 -199.5 l 1
250 -200 m 1
 250 50 l 1
 500 50 l 1
 500 -200 l 1
 250 -200 l 1
EndSplineSet
EndChar

StartChar: glyph124
Encoding: 380 1093500 123
Width: 0
VWidth: 0
Flags: H
LayerCount: 2
Fore
SplineSet
249.5 550 m 1
 249.5 549.5 l 1
 250 549.5 l 1
 500 549.5 l 1
 500.5 549.5 l 1
 500.5 550 l 1
 500.5 800 l 1
 500.5 800.5 l 1
 500 800.5 l 1
 250 800.5 l 1
 249.5 800.5 l 1
 249.5 800 l 1
 249.5 550 l 1
250.5 550.5 m 1
 250.5 799.5 l 1
 499.5 799.5 l 1
 499.5 550.5 l 1
 250.5 550.5 l 1
250 550 m 1
 250 800 l 1
 500 800 l 1
 500 550 l 1
 250 550 l 1
-0.5 300 m 1
 -0.5 299.5 l 1
 0 299.5 l 1
 250 299.5 l 1
 250.5 299.5 l 1
 250.5 300 l 1
 250.5 550 l 1
 250.5 550.5 l 1
 250 550.5 l 1
 0 550.5 l 1
 -0.5 550.5 l 1
 -0.5 550 l 1
 -0.5 300 l 1
0.5 300.5 m 1
 0.5 549.5 l 1
 249.5 549.5 l 1
 249.5 300.5 l 1
 0.5 300.5 l 1
0 300 m 1
 0 550 l 1
 250 550 l 1
 250 300 l 1
 0 300 l 1
249.5 300 m 1
 249.5 299.5 l 1
 250 299.5 l 1
 500 299.5 l 1
 500.5 299.5 l 1
 500.5 300 l 1
 500.5 550 l 1
 500.5 550.5 l 1
 500 550.5 l 1
 250 550.5 l 1
 249.5 550.5 l 1
 249.5 550 l 1
 249.5 300 l 1
250.5 300.5 m 1
 250.5 549.5 l 1
 499.5 549.5 l 1
 499.5 300.5 l 1
 250.5 300.5 l 1
250 300 m 1
 250 550 l 1
 500 550 l 1
 500 300 l 1
 250 300 l 1
-0.5 50 m 1
 -0.5 49.5 l 1
 0 49.5 l 1
 250 49.5 l 1
 250.5 49.5 l 1
 250.5 50 l 1
 250.5 300 l 1
 250.5 300.5 l 1
 250 300.5 l 1
 0 300.5 l 1
 -0.5 300.5 l 1
 -0.5 300 l 1
 -0.5 50 l 1
0.5 50.5 m 1
 0.5 299.5 l 1
 249.5 299.5 l 1
 249.5 50.5 l 1
 0.5 50.5 l 1
0 50 m 1
 0 300 l 1
 250 300 l 1
 250 50 l 1
 0 50 l 1
249.5 50 m 1
 249.5 49.5 l 1
 250 49.5 l 1
 500 49.5 l 1
 500.5 49.5 l 1
 500.5 50 l 1
 500.5 300 l 1
 500.5 300.5 l 1
 500 300.5 l 1
 250 300.5 l 1
 249.5 300.5 l 1
 249.5 300 l 1
 249.5 50 l 1
250.5 50.5 m 1
 250.5 299.5 l 1
 499.5 299.5 l 1
 499.5 50.5 l 1
 250.5 50.5 l 1
250 50 m 1
 250 300 l 1
 500 300 l 1
 500 50 l 1
 250 50 l 1
EndSplineSet
EndChar

StartChar: glyph125
Encoding: 381 1093501 124
Width: 0
VWidth: 0
Flags: H
LayerCount: 2
Fore
SplineSet
249.5 550 m 1
 249.5 549.5 l 1
 250 549.5 l 1
 500 549.5 l 1
 500.5 549.5 l 1
 500.5 550 l 1
 500.5 800 l 1
 500.5 800.5 l 1
 500 800.5 l 1
 250 800.5 l 1
 249.5 800.5 l 1
 249.5 800 l 1
 249.5 550 l 1
250.5 550.5 m 1
 250.5 799.5 l 1
 499.5 799.5 l 1
 499.5 550.5 l 1
 250.5 550.5 l 1
250 550 m 1
 250 800 l 1
 500 800 l 1
 500 550 l 1
 250 550 l 1
-0.5 300 m 1
 -0.5 299.5 l 1
 0 299.5 l 1
 250 299.5 l 1
 250.5 299.5 l 1
 250.5 300 l 1
 250.5 550 l 1
 250.5 550.5 l 1
 250 550.5 l 1
 0 550.5 l 1
 -0.5 550.5 l 1
 -0.5 550 l 1
 -0.5 300 l 1
0.5 300.5 m 1
 0.5 549.5 l 1
 249.5 549.5 l 1
 249.5 300.5 l 1
 0.5 300.5 l 1
0 300 m 1
 0 550 l 1
 250 550 l 1
 250 300 l 1
 0 300 l 1
249.5 300 m 1
 249.5 299.5 l 1
 250 299.5 l 1
 500 299.5 l 1
 500.5 299.5 l 1
 500.5 300 l 1
 500.5 550 l 1
 500.5 550.5 l 1
 500 550.5 l 1
 250 550.5 l 1
 249.5 550.5 l 1
 249.5 550 l 1
 249.5 300 l 1
250.5 300.5 m 1
 250.5 549.5 l 1
 499.5 549.5 l 1
 499.5 300.5 l 1
 250.5 300.5 l 1
250 300 m 1
 250 550 l 1
 500 550 l 1
 500 300 l 1
 250 300 l 1
-0.5 50 m 1
 -0.5 49.5 l 1
 0 49.5 l 1
 250 49.5 l 1
 250.5 49.5 l 1
 250.5 50 l 1
 250.5 300 l 1
 250.5 300.5 l 1
 250 300.5 l 1
 0 300.5 l 1
 -0.5 300.5 l 1
 -0.5 300 l 1
 -0.5 50 l 1
0.5 50.5 m 1
 0.5 299.5 l 1
 249.5 299.5 l 1
 249.5 50.5 l 1
 0.5 50.5 l 1
0 50 m 1
 0 300 l 1
 250 300 l 1
 250 50 l 1
 0 50 l 1
249.5 50 m 1
 249.5 49.5 l 1
 250 49.5 l 1
 500 49.5 l 1
 500.5 49.5 l 1
 500.5 50 l 1
 500.5 300 l 1
 500.5 300.5 l 1
 500 300.5 l 1
 250 300.5 l 1
 249.5 300.5 l 1
 249.5 300 l 1
 249.5 50 l 1
250.5 50.5 m 1
 250.5 299.5 l 1
 499.5 299.5 l 1
 499.5 50.5 l 1
 250.5 50.5 l 1
250 50 m 1
 250 300 l 1
 500 300 l 1
 500 50 l 1
 250 50 l 1
249.5 -200 m 1
 249.5 -200.5 l 1
 250 -200.5 l 1
 500 -200.5 l 1
 500.5 -200.5 l 1
 500.5 -200 l 1
 500.5 50 l 1
 500.5 50.5 l 1
 500 50.5 l 1
 250 50.5 l 1
 249.5 50.5 l 1
 249.5 50 l 1
 249.5 -200 l 1
250.5 -199.5 m 1
 250.5 49.5 l 1
 499.5 49.5 l 1
 499.5 -199.5 l 1
 250.5 -199.5 l 1
250 -200 m 1
 250 50 l 1
 500 50 l 1
 500 -200 l 1
 250 -200 l 1
EndSplineSet
EndChar

StartChar: glyph126
Encoding: 382 1093502 125
Width: 0
VWidth: 0
Flags: H
LayerCount: 2
Fore
SplineSet
249.5 550 m 1
 249.5 549.5 l 1
 250 549.5 l 1
 500 549.5 l 1
 500.5 549.5 l 1
 500.5 550 l 1
 500.5 800 l 1
 500.5 800.5 l 1
 500 800.5 l 1
 250 800.5 l 1
 249.5 800.5 l 1
 249.5 800 l 1
 249.5 550 l 1
250.5 550.5 m 1
 250.5 799.5 l 1
 499.5 799.5 l 1
 499.5 550.5 l 1
 250.5 550.5 l 1
250 550 m 1
 250 800 l 1
 500 800 l 1
 500 550 l 1
 250 550 l 1
-0.5 300 m 1
 -0.5 299.5 l 1
 0 299.5 l 1
 250 299.5 l 1
 250.5 299.5 l 1
 250.5 300 l 1
 250.5 550 l 1
 250.5 550.5 l 1
 250 550.5 l 1
 0 550.5 l 1
 -0.5 550.5 l 1
 -0.5 550 l 1
 -0.5 300 l 1
0.5 300.5 m 1
 0.5 549.5 l 1
 249.5 549.5 l 1
 249.5 300.5 l 1
 0.5 300.5 l 1
0 300 m 1
 0 550 l 1
 250 550 l 1
 250 300 l 1
 0 300 l 1
249.5 300 m 1
 249.5 299.5 l 1
 250 299.5 l 1
 500 299.5 l 1
 500.5 299.5 l 1
 500.5 300 l 1
 500.5 550 l 1
 500.5 550.5 l 1
 500 550.5 l 1
 250 550.5 l 1
 249.5 550.5 l 1
 249.5 550 l 1
 249.5 300 l 1
250.5 300.5 m 1
 250.5 549.5 l 1
 499.5 549.5 l 1
 499.5 300.5 l 1
 250.5 300.5 l 1
250 300 m 1
 250 550 l 1
 500 550 l 1
 500 300 l 1
 250 300 l 1
-0.5 50 m 1
 -0.5 49.5 l 1
 0 49.5 l 1
 250 49.5 l 1
 250.5 49.5 l 1
 250.5 50 l 1
 250.5 300 l 1
 250.5 300.5 l 1
 250 300.5 l 1
 0 300.5 l 1
 -0.5 300.5 l 1
 -0.5 300 l 1
 -0.5 50 l 1
0.5 50.5 m 1
 0.5 299.5 l 1
 249.5 299.5 l 1
 249.5 50.5 l 1
 0.5 50.5 l 1
0 50 m 1
 0 300 l 1
 250 300 l 1
 250 50 l 1
 0 50 l 1
249.5 50 m 1
 249.5 49.5 l 1
 250 49.5 l 1
 500 49.5 l 1
 500.5 49.5 l 1
 500.5 50 l 1
 500.5 300 l 1
 500.5 300.5 l 1
 500 300.5 l 1
 250 300.5 l 1
 249.5 300.5 l 1
 249.5 300 l 1
 249.5 50 l 1
250.5 50.5 m 1
 250.5 299.5 l 1
 499.5 299.5 l 1
 499.5 50.5 l 1
 250.5 50.5 l 1
250 50 m 1
 250 300 l 1
 500 300 l 1
 500 50 l 1
 250 50 l 1
-0.5 -200 m 1
 -0.5 -200.5 l 1
 0 -200.5 l 1
 250 -200.5 l 1
 250.5 -200.5 l 1
 250.5 -200 l 1
 250.5 50 l 1
 250.5 50.5 l 1
 250 50.5 l 1
 0 50.5 l 1
 -0.5 50.5 l 1
 -0.5 50 l 1
 -0.5 -200 l 1
0.5 -199.5 m 1
 0.5 49.5 l 1
 249.5 49.5 l 1
 249.5 -199.5 l 1
 0.5 -199.5 l 1
0 -200 m 1
 0 50 l 1
 250 50 l 1
 250 -200 l 1
 0 -200 l 1
EndSplineSet
EndChar

StartChar: glyph127
Encoding: 383 1093503 126
Width: 0
VWidth: 0
Flags: H
LayerCount: 2
Fore
SplineSet
249.5 550 m 1
 249.5 549.5 l 1
 250 549.5 l 1
 500 549.5 l 1
 500.5 549.5 l 1
 500.5 550 l 1
 500.5 800 l 1
 500.5 800.5 l 1
 500 800.5 l 1
 250 800.5 l 1
 249.5 800.5 l 1
 249.5 800 l 1
 249.5 550 l 1
250.5 550.5 m 1
 250.5 799.5 l 1
 499.5 799.5 l 1
 499.5 550.5 l 1
 250.5 550.5 l 1
250 550 m 1
 250 800 l 1
 500 800 l 1
 500 550 l 1
 250 550 l 1
-0.5 300 m 1
 -0.5 299.5 l 1
 0 299.5 l 1
 250 299.5 l 1
 250.5 299.5 l 1
 250.5 300 l 1
 250.5 550 l 1
 250.5 550.5 l 1
 250 550.5 l 1
 0 550.5 l 1
 -0.5 550.5 l 1
 -0.5 550 l 1
 -0.5 300 l 1
0.5 300.5 m 1
 0.5 549.5 l 1
 249.5 549.5 l 1
 249.5 300.5 l 1
 0.5 300.5 l 1
0 300 m 1
 0 550 l 1
 250 550 l 1
 250 300 l 1
 0 300 l 1
249.5 300 m 1
 249.5 299.5 l 1
 250 299.5 l 1
 500 299.5 l 1
 500.5 299.5 l 1
 500.5 300 l 1
 500.5 550 l 1
 500.5 550.5 l 1
 500 550.5 l 1
 250 550.5 l 1
 249.5 550.5 l 1
 249.5 550 l 1
 249.5 300 l 1
250.5 300.5 m 1
 250.5 549.5 l 1
 499.5 549.5 l 1
 499.5 300.5 l 1
 250.5 300.5 l 1
250 300 m 1
 250 550 l 1
 500 550 l 1
 500 300 l 1
 250 300 l 1
-0.5 50 m 1
 -0.5 49.5 l 1
 0 49.5 l 1
 250 49.5 l 1
 250.5 49.5 l 1
 250.5 50 l 1
 250.5 300 l 1
 250.5 300.5 l 1
 250 300.5 l 1
 0 300.5 l 1
 -0.5 300.5 l 1
 -0.5 300 l 1
 -0.5 50 l 1
0.5 50.5 m 1
 0.5 299.5 l 1
 249.5 299.5 l 1
 249.5 50.5 l 1
 0.5 50.5 l 1
0 50 m 1
 0 300 l 1
 250 300 l 1
 250 50 l 1
 0 50 l 1
249.5 50 m 1
 249.5 49.5 l 1
 250 49.5 l 1
 500 49.5 l 1
 500.5 49.5 l 1
 500.5 50 l 1
 500.5 300 l 1
 500.5 300.5 l 1
 500 300.5 l 1
 250 300.5 l 1
 249.5 300.5 l 1
 249.5 300 l 1
 249.5 50 l 1
250.5 50.5 m 1
 250.5 299.5 l 1
 499.5 299.5 l 1
 499.5 50.5 l 1
 250.5 50.5 l 1
250 50 m 1
 250 300 l 1
 500 300 l 1
 500 50 l 1
 250 50 l 1
-0.5 -200 m 1
 -0.5 -200.5 l 1
 0 -200.5 l 1
 250 -200.5 l 1
 250.5 -200.5 l 1
 250.5 -200 l 1
 250.5 50 l 1
 250.5 50.5 l 1
 250 50.5 l 1
 0 50.5 l 1
 -0.5 50.5 l 1
 -0.5 50 l 1
 -0.5 -200 l 1
0.5 -199.5 m 1
 0.5 49.5 l 1
 249.5 49.5 l 1
 249.5 -199.5 l 1
 0.5 -199.5 l 1
0 -200 m 1
 0 50 l 1
 250 50 l 1
 250 -200 l 1
 0 -200 l 1
249.5 -200 m 1
 249.5 -200.5 l 1
 250 -200.5 l 1
 500 -200.5 l 1
 500.5 -200.5 l 1
 500.5 -200 l 1
 500.5 50 l 1
 500.5 50.5 l 1
 500 50.5 l 1
 250 50.5 l 1
 249.5 50.5 l 1
 249.5 50 l 1
 249.5 -200 l 1
250.5 -199.5 m 1
 250.5 49.5 l 1
 499.5 49.5 l 1
 499.5 -199.5 l 1
 250.5 -199.5 l 1
250 -200 m 1
 250 50 l 1
 500 50 l 1
 500 -200 l 1
 250 -200 l 1
EndSplineSet
EndChar

StartChar: glyph128
Encoding: 384 1093504 127
Width: 0
VWidth: 0
Flags: H
LayerCount: 2
Fore
SplineSet
-0.5 550 m 1
 -0.5 549.5 l 1
 0 549.5 l 1
 250 549.5 l 1
 250.5 549.5 l 1
 250.5 550 l 1
 250.5 800 l 1
 250.5 800.5 l 1
 250 800.5 l 1
 0 800.5 l 1
 -0.5 800.5 l 1
 -0.5 800 l 1
 -0.5 550 l 1
0.5 550.5 m 1
 0.5 799.5 l 1
 249.5 799.5 l 1
 249.5 550.5 l 1
 0.5 550.5 l 1
0 550 m 1
 0 800 l 1
 250 800 l 1
 250 550 l 1
 0 550 l 1
EndSplineSet
EndChar

StartChar: glyph129
Encoding: 385 1093505 128
Width: 0
VWidth: 0
Flags: H
LayerCount: 2
Fore
SplineSet
-0.5 550 m 1
 -0.5 549.5 l 1
 0 549.5 l 1
 250 549.5 l 1
 250.5 549.5 l 1
 250.5 550 l 1
 250.5 800 l 1
 250.5 800.5 l 1
 250 800.5 l 1
 0 800.5 l 1
 -0.5 800.5 l 1
 -0.5 800 l 1
 -0.5 550 l 1
0.5 550.5 m 1
 0.5 799.5 l 1
 249.5 799.5 l 1
 249.5 550.5 l 1
 0.5 550.5 l 1
0 550 m 1
 0 800 l 1
 250 800 l 1
 250 550 l 1
 0 550 l 1
249.5 -200 m 1
 249.5 -200.5 l 1
 250 -200.5 l 1
 500 -200.5 l 1
 500.5 -200.5 l 1
 500.5 -200 l 1
 500.5 50 l 1
 500.5 50.5 l 1
 500 50.5 l 1
 250 50.5 l 1
 249.5 50.5 l 1
 249.5 50 l 1
 249.5 -200 l 1
250.5 -199.5 m 1
 250.5 49.5 l 1
 499.5 49.5 l 1
 499.5 -199.5 l 1
 250.5 -199.5 l 1
250 -200 m 1
 250 50 l 1
 500 50 l 1
 500 -200 l 1
 250 -200 l 1
EndSplineSet
EndChar

StartChar: glyph130
Encoding: 386 1093506 129
Width: 0
VWidth: 0
Flags: H
LayerCount: 2
Fore
SplineSet
-0.5 550 m 1
 -0.5 549.5 l 1
 0 549.5 l 1
 250 549.5 l 1
 250.5 549.5 l 1
 250.5 550 l 1
 250.5 800 l 1
 250.5 800.5 l 1
 250 800.5 l 1
 0 800.5 l 1
 -0.5 800.5 l 1
 -0.5 800 l 1
 -0.5 550 l 1
0.5 550.5 m 1
 0.5 799.5 l 1
 249.5 799.5 l 1
 249.5 550.5 l 1
 0.5 550.5 l 1
0 550 m 1
 0 800 l 1
 250 800 l 1
 250 550 l 1
 0 550 l 1
-0.5 -200 m 1
 -0.5 -200.5 l 1
 0 -200.5 l 1
 250 -200.5 l 1
 250.5 -200.5 l 1
 250.5 -200 l 1
 250.5 50 l 1
 250.5 50.5 l 1
 250 50.5 l 1
 0 50.5 l 1
 -0.5 50.5 l 1
 -0.5 50 l 1
 -0.5 -200 l 1
0.5 -199.5 m 1
 0.5 49.5 l 1
 249.5 49.5 l 1
 249.5 -199.5 l 1
 0.5 -199.5 l 1
0 -200 m 1
 0 50 l 1
 250 50 l 1
 250 -200 l 1
 0 -200 l 1
EndSplineSet
EndChar

StartChar: glyph131
Encoding: 387 1093507 130
Width: 0
VWidth: 0
Flags: H
LayerCount: 2
Fore
SplineSet
-0.5 550 m 1
 -0.5 549.5 l 1
 0 549.5 l 1
 250 549.5 l 1
 250.5 549.5 l 1
 250.5 550 l 1
 250.5 800 l 1
 250.5 800.5 l 1
 250 800.5 l 1
 0 800.5 l 1
 -0.5 800.5 l 1
 -0.5 800 l 1
 -0.5 550 l 1
0.5 550.5 m 1
 0.5 799.5 l 1
 249.5 799.5 l 1
 249.5 550.5 l 1
 0.5 550.5 l 1
0 550 m 1
 0 800 l 1
 250 800 l 1
 250 550 l 1
 0 550 l 1
-0.5 -200 m 1
 -0.5 -200.5 l 1
 0 -200.5 l 1
 250 -200.5 l 1
 250.5 -200.5 l 1
 250.5 -200 l 1
 250.5 50 l 1
 250.5 50.5 l 1
 250 50.5 l 1
 0 50.5 l 1
 -0.5 50.5 l 1
 -0.5 50 l 1
 -0.5 -200 l 1
0.5 -199.5 m 1
 0.5 49.5 l 1
 249.5 49.5 l 1
 249.5 -199.5 l 1
 0.5 -199.5 l 1
0 -200 m 1
 0 50 l 1
 250 50 l 1
 250 -200 l 1
 0 -200 l 1
249.5 -200 m 1
 249.5 -200.5 l 1
 250 -200.5 l 1
 500 -200.5 l 1
 500.5 -200.5 l 1
 500.5 -200 l 1
 500.5 50 l 1
 500.5 50.5 l 1
 500 50.5 l 1
 250 50.5 l 1
 249.5 50.5 l 1
 249.5 50 l 1
 249.5 -200 l 1
250.5 -199.5 m 1
 250.5 49.5 l 1
 499.5 49.5 l 1
 499.5 -199.5 l 1
 250.5 -199.5 l 1
250 -200 m 1
 250 50 l 1
 500 50 l 1
 500 -200 l 1
 250 -200 l 1
EndSplineSet
EndChar

StartChar: glyph132
Encoding: 388 1093508 131
Width: 0
VWidth: 0
Flags: H
LayerCount: 2
Fore
SplineSet
-0.5 550 m 1
 -0.5 549.5 l 1
 0 549.5 l 1
 250 549.5 l 1
 250.5 549.5 l 1
 250.5 550 l 1
 250.5 800 l 1
 250.5 800.5 l 1
 250 800.5 l 1
 0 800.5 l 1
 -0.5 800.5 l 1
 -0.5 800 l 1
 -0.5 550 l 1
0.5 550.5 m 1
 0.5 799.5 l 1
 249.5 799.5 l 1
 249.5 550.5 l 1
 0.5 550.5 l 1
0 550 m 1
 0 800 l 1
 250 800 l 1
 250 550 l 1
 0 550 l 1
249.5 50 m 1
 249.5 49.5 l 1
 250 49.5 l 1
 500 49.5 l 1
 500.5 49.5 l 1
 500.5 50 l 1
 500.5 300 l 1
 500.5 300.5 l 1
 500 300.5 l 1
 250 300.5 l 1
 249.5 300.5 l 1
 249.5 300 l 1
 249.5 50 l 1
250.5 50.5 m 1
 250.5 299.5 l 1
 499.5 299.5 l 1
 499.5 50.5 l 1
 250.5 50.5 l 1
250 50 m 1
 250 300 l 1
 500 300 l 1
 500 50 l 1
 250 50 l 1
EndSplineSet
EndChar

StartChar: glyph133
Encoding: 389 1093509 132
Width: 0
VWidth: 0
Flags: H
LayerCount: 2
Fore
SplineSet
-0.5 550 m 1
 -0.5 549.5 l 1
 0 549.5 l 1
 250 549.5 l 1
 250.5 549.5 l 1
 250.5 550 l 1
 250.5 800 l 1
 250.5 800.5 l 1
 250 800.5 l 1
 0 800.5 l 1
 -0.5 800.5 l 1
 -0.5 800 l 1
 -0.5 550 l 1
0.5 550.5 m 1
 0.5 799.5 l 1
 249.5 799.5 l 1
 249.5 550.5 l 1
 0.5 550.5 l 1
0 550 m 1
 0 800 l 1
 250 800 l 1
 250 550 l 1
 0 550 l 1
249.5 50 m 1
 249.5 49.5 l 1
 250 49.5 l 1
 500 49.5 l 1
 500.5 49.5 l 1
 500.5 50 l 1
 500.5 300 l 1
 500.5 300.5 l 1
 500 300.5 l 1
 250 300.5 l 1
 249.5 300.5 l 1
 249.5 300 l 1
 249.5 50 l 1
250.5 50.5 m 1
 250.5 299.5 l 1
 499.5 299.5 l 1
 499.5 50.5 l 1
 250.5 50.5 l 1
250 50 m 1
 250 300 l 1
 500 300 l 1
 500 50 l 1
 250 50 l 1
249.5 -200 m 1
 249.5 -200.5 l 1
 250 -200.5 l 1
 500 -200.5 l 1
 500.5 -200.5 l 1
 500.5 -200 l 1
 500.5 50 l 1
 500.5 50.5 l 1
 500 50.5 l 1
 250 50.5 l 1
 249.5 50.5 l 1
 249.5 50 l 1
 249.5 -200 l 1
250.5 -199.5 m 1
 250.5 49.5 l 1
 499.5 49.5 l 1
 499.5 -199.5 l 1
 250.5 -199.5 l 1
250 -200 m 1
 250 50 l 1
 500 50 l 1
 500 -200 l 1
 250 -200 l 1
EndSplineSet
EndChar

StartChar: glyph134
Encoding: 390 1093510 133
Width: 0
VWidth: 0
Flags: H
LayerCount: 2
Fore
SplineSet
-0.5 550 m 1
 -0.5 549.5 l 1
 0 549.5 l 1
 250 549.5 l 1
 250.5 549.5 l 1
 250.5 550 l 1
 250.5 800 l 1
 250.5 800.5 l 1
 250 800.5 l 1
 0 800.5 l 1
 -0.5 800.5 l 1
 -0.5 800 l 1
 -0.5 550 l 1
0.5 550.5 m 1
 0.5 799.5 l 1
 249.5 799.5 l 1
 249.5 550.5 l 1
 0.5 550.5 l 1
0 550 m 1
 0 800 l 1
 250 800 l 1
 250 550 l 1
 0 550 l 1
249.5 50 m 1
 249.5 49.5 l 1
 250 49.5 l 1
 500 49.5 l 1
 500.5 49.5 l 1
 500.5 50 l 1
 500.5 300 l 1
 500.5 300.5 l 1
 500 300.5 l 1
 250 300.5 l 1
 249.5 300.5 l 1
 249.5 300 l 1
 249.5 50 l 1
250.5 50.5 m 1
 250.5 299.5 l 1
 499.5 299.5 l 1
 499.5 50.5 l 1
 250.5 50.5 l 1
250 50 m 1
 250 300 l 1
 500 300 l 1
 500 50 l 1
 250 50 l 1
-0.5 -200 m 1
 -0.5 -200.5 l 1
 0 -200.5 l 1
 250 -200.5 l 1
 250.5 -200.5 l 1
 250.5 -200 l 1
 250.5 50 l 1
 250.5 50.5 l 1
 250 50.5 l 1
 0 50.5 l 1
 -0.5 50.5 l 1
 -0.5 50 l 1
 -0.5 -200 l 1
0.5 -199.5 m 1
 0.5 49.5 l 1
 249.5 49.5 l 1
 249.5 -199.5 l 1
 0.5 -199.5 l 1
0 -200 m 1
 0 50 l 1
 250 50 l 1
 250 -200 l 1
 0 -200 l 1
EndSplineSet
EndChar

StartChar: glyph135
Encoding: 391 1093511 134
Width: 0
VWidth: 0
Flags: H
LayerCount: 2
Fore
SplineSet
-0.5 550 m 1
 -0.5 549.5 l 1
 0 549.5 l 1
 250 549.5 l 1
 250.5 549.5 l 1
 250.5 550 l 1
 250.5 800 l 1
 250.5 800.5 l 1
 250 800.5 l 1
 0 800.5 l 1
 -0.5 800.5 l 1
 -0.5 800 l 1
 -0.5 550 l 1
0.5 550.5 m 1
 0.5 799.5 l 1
 249.5 799.5 l 1
 249.5 550.5 l 1
 0.5 550.5 l 1
0 550 m 1
 0 800 l 1
 250 800 l 1
 250 550 l 1
 0 550 l 1
249.5 50 m 1
 249.5 49.5 l 1
 250 49.5 l 1
 500 49.5 l 1
 500.5 49.5 l 1
 500.5 50 l 1
 500.5 300 l 1
 500.5 300.5 l 1
 500 300.5 l 1
 250 300.5 l 1
 249.5 300.5 l 1
 249.5 300 l 1
 249.5 50 l 1
250.5 50.5 m 1
 250.5 299.5 l 1
 499.5 299.5 l 1
 499.5 50.5 l 1
 250.5 50.5 l 1
250 50 m 1
 250 300 l 1
 500 300 l 1
 500 50 l 1
 250 50 l 1
-0.5 -200 m 1
 -0.5 -200.5 l 1
 0 -200.5 l 1
 250 -200.5 l 1
 250.5 -200.5 l 1
 250.5 -200 l 1
 250.5 50 l 1
 250.5 50.5 l 1
 250 50.5 l 1
 0 50.5 l 1
 -0.5 50.5 l 1
 -0.5 50 l 1
 -0.5 -200 l 1
0.5 -199.5 m 1
 0.5 49.5 l 1
 249.5 49.5 l 1
 249.5 -199.5 l 1
 0.5 -199.5 l 1
0 -200 m 1
 0 50 l 1
 250 50 l 1
 250 -200 l 1
 0 -200 l 1
249.5 -200 m 1
 249.5 -200.5 l 1
 250 -200.5 l 1
 500 -200.5 l 1
 500.5 -200.5 l 1
 500.5 -200 l 1
 500.5 50 l 1
 500.5 50.5 l 1
 500 50.5 l 1
 250 50.5 l 1
 249.5 50.5 l 1
 249.5 50 l 1
 249.5 -200 l 1
250.5 -199.5 m 1
 250.5 49.5 l 1
 499.5 49.5 l 1
 499.5 -199.5 l 1
 250.5 -199.5 l 1
250 -200 m 1
 250 50 l 1
 500 50 l 1
 500 -200 l 1
 250 -200 l 1
EndSplineSet
EndChar

StartChar: glyph136
Encoding: 392 1093512 135
Width: 0
VWidth: 0
Flags: H
LayerCount: 2
Fore
SplineSet
-0.5 550 m 1
 -0.5 549.5 l 1
 0 549.5 l 1
 250 549.5 l 1
 250.5 549.5 l 1
 250.5 550 l 1
 250.5 800 l 1
 250.5 800.5 l 1
 250 800.5 l 1
 0 800.5 l 1
 -0.5 800.5 l 1
 -0.5 800 l 1
 -0.5 550 l 1
0.5 550.5 m 1
 0.5 799.5 l 1
 249.5 799.5 l 1
 249.5 550.5 l 1
 0.5 550.5 l 1
0 550 m 1
 0 800 l 1
 250 800 l 1
 250 550 l 1
 0 550 l 1
-0.5 50 m 1
 -0.5 49.5 l 1
 0 49.5 l 1
 250 49.5 l 1
 250.5 49.5 l 1
 250.5 50 l 1
 250.5 300 l 1
 250.5 300.5 l 1
 250 300.5 l 1
 0 300.5 l 1
 -0.5 300.5 l 1
 -0.5 300 l 1
 -0.5 50 l 1
0.5 50.5 m 1
 0.5 299.5 l 1
 249.5 299.5 l 1
 249.5 50.5 l 1
 0.5 50.5 l 1
0 50 m 1
 0 300 l 1
 250 300 l 1
 250 50 l 1
 0 50 l 1
EndSplineSet
EndChar

StartChar: glyph137
Encoding: 393 1093513 136
Width: 0
VWidth: 0
Flags: H
LayerCount: 2
Fore
SplineSet
-0.5 550 m 1
 -0.5 549.5 l 1
 0 549.5 l 1
 250 549.5 l 1
 250.5 549.5 l 1
 250.5 550 l 1
 250.5 800 l 1
 250.5 800.5 l 1
 250 800.5 l 1
 0 800.5 l 1
 -0.5 800.5 l 1
 -0.5 800 l 1
 -0.5 550 l 1
0.5 550.5 m 1
 0.5 799.5 l 1
 249.5 799.5 l 1
 249.5 550.5 l 1
 0.5 550.5 l 1
0 550 m 1
 0 800 l 1
 250 800 l 1
 250 550 l 1
 0 550 l 1
-0.5 50 m 1
 -0.5 49.5 l 1
 0 49.5 l 1
 250 49.5 l 1
 250.5 49.5 l 1
 250.5 50 l 1
 250.5 300 l 1
 250.5 300.5 l 1
 250 300.5 l 1
 0 300.5 l 1
 -0.5 300.5 l 1
 -0.5 300 l 1
 -0.5 50 l 1
0.5 50.5 m 1
 0.5 299.5 l 1
 249.5 299.5 l 1
 249.5 50.5 l 1
 0.5 50.5 l 1
0 50 m 1
 0 300 l 1
 250 300 l 1
 250 50 l 1
 0 50 l 1
249.5 -200 m 1
 249.5 -200.5 l 1
 250 -200.5 l 1
 500 -200.5 l 1
 500.5 -200.5 l 1
 500.5 -200 l 1
 500.5 50 l 1
 500.5 50.5 l 1
 500 50.5 l 1
 250 50.5 l 1
 249.5 50.5 l 1
 249.5 50 l 1
 249.5 -200 l 1
250.5 -199.5 m 1
 250.5 49.5 l 1
 499.5 49.5 l 1
 499.5 -199.5 l 1
 250.5 -199.5 l 1
250 -200 m 1
 250 50 l 1
 500 50 l 1
 500 -200 l 1
 250 -200 l 1
EndSplineSet
EndChar

StartChar: glyph138
Encoding: 394 1093514 137
Width: 0
VWidth: 0
Flags: H
LayerCount: 2
Fore
SplineSet
-0.5 550 m 1
 -0.5 549.5 l 1
 0 549.5 l 1
 250 549.5 l 1
 250.5 549.5 l 1
 250.5 550 l 1
 250.5 800 l 1
 250.5 800.5 l 1
 250 800.5 l 1
 0 800.5 l 1
 -0.5 800.5 l 1
 -0.5 800 l 1
 -0.5 550 l 1
0.5 550.5 m 1
 0.5 799.5 l 1
 249.5 799.5 l 1
 249.5 550.5 l 1
 0.5 550.5 l 1
0 550 m 1
 0 800 l 1
 250 800 l 1
 250 550 l 1
 0 550 l 1
-0.5 50 m 1
 -0.5 49.5 l 1
 0 49.5 l 1
 250 49.5 l 1
 250.5 49.5 l 1
 250.5 50 l 1
 250.5 300 l 1
 250.5 300.5 l 1
 250 300.5 l 1
 0 300.5 l 1
 -0.5 300.5 l 1
 -0.5 300 l 1
 -0.5 50 l 1
0.5 50.5 m 1
 0.5 299.5 l 1
 249.5 299.5 l 1
 249.5 50.5 l 1
 0.5 50.5 l 1
0 50 m 1
 0 300 l 1
 250 300 l 1
 250 50 l 1
 0 50 l 1
-0.5 -200 m 1
 -0.5 -200.5 l 1
 0 -200.5 l 1
 250 -200.5 l 1
 250.5 -200.5 l 1
 250.5 -200 l 1
 250.5 50 l 1
 250.5 50.5 l 1
 250 50.5 l 1
 0 50.5 l 1
 -0.5 50.5 l 1
 -0.5 50 l 1
 -0.5 -200 l 1
0.5 -199.5 m 1
 0.5 49.5 l 1
 249.5 49.5 l 1
 249.5 -199.5 l 1
 0.5 -199.5 l 1
0 -200 m 1
 0 50 l 1
 250 50 l 1
 250 -200 l 1
 0 -200 l 1
EndSplineSet
EndChar

StartChar: glyph139
Encoding: 395 1093515 138
Width: 0
VWidth: 0
Flags: H
LayerCount: 2
Fore
SplineSet
-0.5 550 m 1
 -0.5 549.5 l 1
 0 549.5 l 1
 250 549.5 l 1
 250.5 549.5 l 1
 250.5 550 l 1
 250.5 800 l 1
 250.5 800.5 l 1
 250 800.5 l 1
 0 800.5 l 1
 -0.5 800.5 l 1
 -0.5 800 l 1
 -0.5 550 l 1
0.5 550.5 m 1
 0.5 799.5 l 1
 249.5 799.5 l 1
 249.5 550.5 l 1
 0.5 550.5 l 1
0 550 m 1
 0 800 l 1
 250 800 l 1
 250 550 l 1
 0 550 l 1
-0.5 50 m 1
 -0.5 49.5 l 1
 0 49.5 l 1
 250 49.5 l 1
 250.5 49.5 l 1
 250.5 50 l 1
 250.5 300 l 1
 250.5 300.5 l 1
 250 300.5 l 1
 0 300.5 l 1
 -0.5 300.5 l 1
 -0.5 300 l 1
 -0.5 50 l 1
0.5 50.5 m 1
 0.5 299.5 l 1
 249.5 299.5 l 1
 249.5 50.5 l 1
 0.5 50.5 l 1
0 50 m 1
 0 300 l 1
 250 300 l 1
 250 50 l 1
 0 50 l 1
-0.5 -200 m 1
 -0.5 -200.5 l 1
 0 -200.5 l 1
 250 -200.5 l 1
 250.5 -200.5 l 1
 250.5 -200 l 1
 250.5 50 l 1
 250.5 50.5 l 1
 250 50.5 l 1
 0 50.5 l 1
 -0.5 50.5 l 1
 -0.5 50 l 1
 -0.5 -200 l 1
0.5 -199.5 m 1
 0.5 49.5 l 1
 249.5 49.5 l 1
 249.5 -199.5 l 1
 0.5 -199.5 l 1
0 -200 m 1
 0 50 l 1
 250 50 l 1
 250 -200 l 1
 0 -200 l 1
249.5 -200 m 1
 249.5 -200.5 l 1
 250 -200.5 l 1
 500 -200.5 l 1
 500.5 -200.5 l 1
 500.5 -200 l 1
 500.5 50 l 1
 500.5 50.5 l 1
 500 50.5 l 1
 250 50.5 l 1
 249.5 50.5 l 1
 249.5 50 l 1
 249.5 -200 l 1
250.5 -199.5 m 1
 250.5 49.5 l 1
 499.5 49.5 l 1
 499.5 -199.5 l 1
 250.5 -199.5 l 1
250 -200 m 1
 250 50 l 1
 500 50 l 1
 500 -200 l 1
 250 -200 l 1
EndSplineSet
EndChar

StartChar: glyph140
Encoding: 396 1093516 139
Width: 0
VWidth: 0
Flags: H
LayerCount: 2
Fore
SplineSet
-0.5 550 m 1
 -0.5 549.5 l 1
 0 549.5 l 1
 250 549.5 l 1
 250.5 549.5 l 1
 250.5 550 l 1
 250.5 800 l 1
 250.5 800.5 l 1
 250 800.5 l 1
 0 800.5 l 1
 -0.5 800.5 l 1
 -0.5 800 l 1
 -0.5 550 l 1
0.5 550.5 m 1
 0.5 799.5 l 1
 249.5 799.5 l 1
 249.5 550.5 l 1
 0.5 550.5 l 1
0 550 m 1
 0 800 l 1
 250 800 l 1
 250 550 l 1
 0 550 l 1
-0.5 50 m 1
 -0.5 49.5 l 1
 0 49.5 l 1
 250 49.5 l 1
 250.5 49.5 l 1
 250.5 50 l 1
 250.5 300 l 1
 250.5 300.5 l 1
 250 300.5 l 1
 0 300.5 l 1
 -0.5 300.5 l 1
 -0.5 300 l 1
 -0.5 50 l 1
0.5 50.5 m 1
 0.5 299.5 l 1
 249.5 299.5 l 1
 249.5 50.5 l 1
 0.5 50.5 l 1
0 50 m 1
 0 300 l 1
 250 300 l 1
 250 50 l 1
 0 50 l 1
249.5 50 m 1
 249.5 49.5 l 1
 250 49.5 l 1
 500 49.5 l 1
 500.5 49.5 l 1
 500.5 50 l 1
 500.5 300 l 1
 500.5 300.5 l 1
 500 300.5 l 1
 250 300.5 l 1
 249.5 300.5 l 1
 249.5 300 l 1
 249.5 50 l 1
250.5 50.5 m 1
 250.5 299.5 l 1
 499.5 299.5 l 1
 499.5 50.5 l 1
 250.5 50.5 l 1
250 50 m 1
 250 300 l 1
 500 300 l 1
 500 50 l 1
 250 50 l 1
EndSplineSet
EndChar

StartChar: glyph141
Encoding: 397 1093517 140
Width: 0
VWidth: 0
Flags: H
LayerCount: 2
Fore
SplineSet
-0.5 550 m 1
 -0.5 549.5 l 1
 0 549.5 l 1
 250 549.5 l 1
 250.5 549.5 l 1
 250.5 550 l 1
 250.5 800 l 1
 250.5 800.5 l 1
 250 800.5 l 1
 0 800.5 l 1
 -0.5 800.5 l 1
 -0.5 800 l 1
 -0.5 550 l 1
0.5 550.5 m 1
 0.5 799.5 l 1
 249.5 799.5 l 1
 249.5 550.5 l 1
 0.5 550.5 l 1
0 550 m 1
 0 800 l 1
 250 800 l 1
 250 550 l 1
 0 550 l 1
-0.5 50 m 1
 -0.5 49.5 l 1
 0 49.5 l 1
 250 49.5 l 1
 250.5 49.5 l 1
 250.5 50 l 1
 250.5 300 l 1
 250.5 300.5 l 1
 250 300.5 l 1
 0 300.5 l 1
 -0.5 300.5 l 1
 -0.5 300 l 1
 -0.5 50 l 1
0.5 50.5 m 1
 0.5 299.5 l 1
 249.5 299.5 l 1
 249.5 50.5 l 1
 0.5 50.5 l 1
0 50 m 1
 0 300 l 1
 250 300 l 1
 250 50 l 1
 0 50 l 1
249.5 50 m 1
 249.5 49.5 l 1
 250 49.5 l 1
 500 49.5 l 1
 500.5 49.5 l 1
 500.5 50 l 1
 500.5 300 l 1
 500.5 300.5 l 1
 500 300.5 l 1
 250 300.5 l 1
 249.5 300.5 l 1
 249.5 300 l 1
 249.5 50 l 1
250.5 50.5 m 1
 250.5 299.5 l 1
 499.5 299.5 l 1
 499.5 50.5 l 1
 250.5 50.5 l 1
250 50 m 1
 250 300 l 1
 500 300 l 1
 500 50 l 1
 250 50 l 1
249.5 -200 m 1
 249.5 -200.5 l 1
 250 -200.5 l 1
 500 -200.5 l 1
 500.5 -200.5 l 1
 500.5 -200 l 1
 500.5 50 l 1
 500.5 50.5 l 1
 500 50.5 l 1
 250 50.5 l 1
 249.5 50.5 l 1
 249.5 50 l 1
 249.5 -200 l 1
250.5 -199.5 m 1
 250.5 49.5 l 1
 499.5 49.5 l 1
 499.5 -199.5 l 1
 250.5 -199.5 l 1
250 -200 m 1
 250 50 l 1
 500 50 l 1
 500 -200 l 1
 250 -200 l 1
EndSplineSet
EndChar

StartChar: glyph142
Encoding: 398 1093518 141
Width: 0
VWidth: 0
Flags: H
LayerCount: 2
Fore
SplineSet
-0.5 550 m 1
 -0.5 549.5 l 1
 0 549.5 l 1
 250 549.5 l 1
 250.5 549.5 l 1
 250.5 550 l 1
 250.5 800 l 1
 250.5 800.5 l 1
 250 800.5 l 1
 0 800.5 l 1
 -0.5 800.5 l 1
 -0.5 800 l 1
 -0.5 550 l 1
0.5 550.5 m 1
 0.5 799.5 l 1
 249.5 799.5 l 1
 249.5 550.5 l 1
 0.5 550.5 l 1
0 550 m 1
 0 800 l 1
 250 800 l 1
 250 550 l 1
 0 550 l 1
-0.5 50 m 1
 -0.5 49.5 l 1
 0 49.5 l 1
 250 49.5 l 1
 250.5 49.5 l 1
 250.5 50 l 1
 250.5 300 l 1
 250.5 300.5 l 1
 250 300.5 l 1
 0 300.5 l 1
 -0.5 300.5 l 1
 -0.5 300 l 1
 -0.5 50 l 1
0.5 50.5 m 1
 0.5 299.5 l 1
 249.5 299.5 l 1
 249.5 50.5 l 1
 0.5 50.5 l 1
0 50 m 1
 0 300 l 1
 250 300 l 1
 250 50 l 1
 0 50 l 1
249.5 50 m 1
 249.5 49.5 l 1
 250 49.5 l 1
 500 49.5 l 1
 500.5 49.5 l 1
 500.5 50 l 1
 500.5 300 l 1
 500.5 300.5 l 1
 500 300.5 l 1
 250 300.5 l 1
 249.5 300.5 l 1
 249.5 300 l 1
 249.5 50 l 1
250.5 50.5 m 1
 250.5 299.5 l 1
 499.5 299.5 l 1
 499.5 50.5 l 1
 250.5 50.5 l 1
250 50 m 1
 250 300 l 1
 500 300 l 1
 500 50 l 1
 250 50 l 1
-0.5 -200 m 1
 -0.5 -200.5 l 1
 0 -200.5 l 1
 250 -200.5 l 1
 250.5 -200.5 l 1
 250.5 -200 l 1
 250.5 50 l 1
 250.5 50.5 l 1
 250 50.5 l 1
 0 50.5 l 1
 -0.5 50.5 l 1
 -0.5 50 l 1
 -0.5 -200 l 1
0.5 -199.5 m 1
 0.5 49.5 l 1
 249.5 49.5 l 1
 249.5 -199.5 l 1
 0.5 -199.5 l 1
0 -200 m 1
 0 50 l 1
 250 50 l 1
 250 -200 l 1
 0 -200 l 1
EndSplineSet
EndChar

StartChar: glyph143
Encoding: 399 1093519 142
Width: 0
VWidth: 0
Flags: H
LayerCount: 2
Fore
SplineSet
-0.5 550 m 1
 -0.5 549.5 l 1
 0 549.5 l 1
 250 549.5 l 1
 250.5 549.5 l 1
 250.5 550 l 1
 250.5 800 l 1
 250.5 800.5 l 1
 250 800.5 l 1
 0 800.5 l 1
 -0.5 800.5 l 1
 -0.5 800 l 1
 -0.5 550 l 1
0.5 550.5 m 1
 0.5 799.5 l 1
 249.5 799.5 l 1
 249.5 550.5 l 1
 0.5 550.5 l 1
0 550 m 1
 0 800 l 1
 250 800 l 1
 250 550 l 1
 0 550 l 1
-0.5 50 m 1
 -0.5 49.5 l 1
 0 49.5 l 1
 250 49.5 l 1
 250.5 49.5 l 1
 250.5 50 l 1
 250.5 300 l 1
 250.5 300.5 l 1
 250 300.5 l 1
 0 300.5 l 1
 -0.5 300.5 l 1
 -0.5 300 l 1
 -0.5 50 l 1
0.5 50.5 m 1
 0.5 299.5 l 1
 249.5 299.5 l 1
 249.5 50.5 l 1
 0.5 50.5 l 1
0 50 m 1
 0 300 l 1
 250 300 l 1
 250 50 l 1
 0 50 l 1
249.5 50 m 1
 249.5 49.5 l 1
 250 49.5 l 1
 500 49.5 l 1
 500.5 49.5 l 1
 500.5 50 l 1
 500.5 300 l 1
 500.5 300.5 l 1
 500 300.5 l 1
 250 300.5 l 1
 249.5 300.5 l 1
 249.5 300 l 1
 249.5 50 l 1
250.5 50.5 m 1
 250.5 299.5 l 1
 499.5 299.5 l 1
 499.5 50.5 l 1
 250.5 50.5 l 1
250 50 m 1
 250 300 l 1
 500 300 l 1
 500 50 l 1
 250 50 l 1
-0.5 -200 m 1
 -0.5 -200.5 l 1
 0 -200.5 l 1
 250 -200.5 l 1
 250.5 -200.5 l 1
 250.5 -200 l 1
 250.5 50 l 1
 250.5 50.5 l 1
 250 50.5 l 1
 0 50.5 l 1
 -0.5 50.5 l 1
 -0.5 50 l 1
 -0.5 -200 l 1
0.5 -199.5 m 1
 0.5 49.5 l 1
 249.5 49.5 l 1
 249.5 -199.5 l 1
 0.5 -199.5 l 1
0 -200 m 1
 0 50 l 1
 250 50 l 1
 250 -200 l 1
 0 -200 l 1
249.5 -200 m 1
 249.5 -200.5 l 1
 250 -200.5 l 1
 500 -200.5 l 1
 500.5 -200.5 l 1
 500.5 -200 l 1
 500.5 50 l 1
 500.5 50.5 l 1
 500 50.5 l 1
 250 50.5 l 1
 249.5 50.5 l 1
 249.5 50 l 1
 249.5 -200 l 1
250.5 -199.5 m 1
 250.5 49.5 l 1
 499.5 49.5 l 1
 499.5 -199.5 l 1
 250.5 -199.5 l 1
250 -200 m 1
 250 50 l 1
 500 50 l 1
 500 -200 l 1
 250 -200 l 1
EndSplineSet
EndChar

StartChar: glyph144
Encoding: 400 1093520 143
Width: 0
VWidth: 0
Flags: H
LayerCount: 2
Fore
SplineSet
-0.5 550 m 1
 -0.5 549.5 l 1
 0 549.5 l 1
 250 549.5 l 1
 250.5 549.5 l 1
 250.5 550 l 1
 250.5 800 l 1
 250.5 800.5 l 1
 250 800.5 l 1
 0 800.5 l 1
 -0.5 800.5 l 1
 -0.5 800 l 1
 -0.5 550 l 1
0.5 550.5 m 1
 0.5 799.5 l 1
 249.5 799.5 l 1
 249.5 550.5 l 1
 0.5 550.5 l 1
0 550 m 1
 0 800 l 1
 250 800 l 1
 250 550 l 1
 0 550 l 1
249.5 300 m 1
 249.5 299.5 l 1
 250 299.5 l 1
 500 299.5 l 1
 500.5 299.5 l 1
 500.5 300 l 1
 500.5 550 l 1
 500.5 550.5 l 1
 500 550.5 l 1
 250 550.5 l 1
 249.5 550.5 l 1
 249.5 550 l 1
 249.5 300 l 1
250.5 300.5 m 1
 250.5 549.5 l 1
 499.5 549.5 l 1
 499.5 300.5 l 1
 250.5 300.5 l 1
250 300 m 1
 250 550 l 1
 500 550 l 1
 500 300 l 1
 250 300 l 1
EndSplineSet
EndChar

StartChar: glyph145
Encoding: 401 1093521 144
Width: 0
VWidth: 0
Flags: H
LayerCount: 2
Fore
SplineSet
-0.5 550 m 1
 -0.5 549.5 l 1
 0 549.5 l 1
 250 549.5 l 1
 250.5 549.5 l 1
 250.5 550 l 1
 250.5 800 l 1
 250.5 800.5 l 1
 250 800.5 l 1
 0 800.5 l 1
 -0.5 800.5 l 1
 -0.5 800 l 1
 -0.5 550 l 1
0.5 550.5 m 1
 0.5 799.5 l 1
 249.5 799.5 l 1
 249.5 550.5 l 1
 0.5 550.5 l 1
0 550 m 1
 0 800 l 1
 250 800 l 1
 250 550 l 1
 0 550 l 1
249.5 300 m 1
 249.5 299.5 l 1
 250 299.5 l 1
 500 299.5 l 1
 500.5 299.5 l 1
 500.5 300 l 1
 500.5 550 l 1
 500.5 550.5 l 1
 500 550.5 l 1
 250 550.5 l 1
 249.5 550.5 l 1
 249.5 550 l 1
 249.5 300 l 1
250.5 300.5 m 1
 250.5 549.5 l 1
 499.5 549.5 l 1
 499.5 300.5 l 1
 250.5 300.5 l 1
250 300 m 1
 250 550 l 1
 500 550 l 1
 500 300 l 1
 250 300 l 1
249.5 -200 m 1
 249.5 -200.5 l 1
 250 -200.5 l 1
 500 -200.5 l 1
 500.5 -200.5 l 1
 500.5 -200 l 1
 500.5 50 l 1
 500.5 50.5 l 1
 500 50.5 l 1
 250 50.5 l 1
 249.5 50.5 l 1
 249.5 50 l 1
 249.5 -200 l 1
250.5 -199.5 m 1
 250.5 49.5 l 1
 499.5 49.5 l 1
 499.5 -199.5 l 1
 250.5 -199.5 l 1
250 -200 m 1
 250 50 l 1
 500 50 l 1
 500 -200 l 1
 250 -200 l 1
EndSplineSet
EndChar

StartChar: glyph146
Encoding: 402 1093522 145
Width: 0
VWidth: 0
Flags: H
LayerCount: 2
Fore
SplineSet
-0.5 550 m 1
 -0.5 549.5 l 1
 0 549.5 l 1
 250 549.5 l 1
 250.5 549.5 l 1
 250.5 550 l 1
 250.5 800 l 1
 250.5 800.5 l 1
 250 800.5 l 1
 0 800.5 l 1
 -0.5 800.5 l 1
 -0.5 800 l 1
 -0.5 550 l 1
0.5 550.5 m 1
 0.5 799.5 l 1
 249.5 799.5 l 1
 249.5 550.5 l 1
 0.5 550.5 l 1
0 550 m 1
 0 800 l 1
 250 800 l 1
 250 550 l 1
 0 550 l 1
249.5 300 m 1
 249.5 299.5 l 1
 250 299.5 l 1
 500 299.5 l 1
 500.5 299.5 l 1
 500.5 300 l 1
 500.5 550 l 1
 500.5 550.5 l 1
 500 550.5 l 1
 250 550.5 l 1
 249.5 550.5 l 1
 249.5 550 l 1
 249.5 300 l 1
250.5 300.5 m 1
 250.5 549.5 l 1
 499.5 549.5 l 1
 499.5 300.5 l 1
 250.5 300.5 l 1
250 300 m 1
 250 550 l 1
 500 550 l 1
 500 300 l 1
 250 300 l 1
-0.5 -200 m 1
 -0.5 -200.5 l 1
 0 -200.5 l 1
 250 -200.5 l 1
 250.5 -200.5 l 1
 250.5 -200 l 1
 250.5 50 l 1
 250.5 50.5 l 1
 250 50.5 l 1
 0 50.5 l 1
 -0.5 50.5 l 1
 -0.5 50 l 1
 -0.5 -200 l 1
0.5 -199.5 m 1
 0.5 49.5 l 1
 249.5 49.5 l 1
 249.5 -199.5 l 1
 0.5 -199.5 l 1
0 -200 m 1
 0 50 l 1
 250 50 l 1
 250 -200 l 1
 0 -200 l 1
EndSplineSet
EndChar

StartChar: glyph147
Encoding: 403 1093523 146
Width: 0
VWidth: 0
Flags: H
LayerCount: 2
Fore
SplineSet
-0.5 550 m 1
 -0.5 549.5 l 1
 0 549.5 l 1
 250 549.5 l 1
 250.5 549.5 l 1
 250.5 550 l 1
 250.5 800 l 1
 250.5 800.5 l 1
 250 800.5 l 1
 0 800.5 l 1
 -0.5 800.5 l 1
 -0.5 800 l 1
 -0.5 550 l 1
0.5 550.5 m 1
 0.5 799.5 l 1
 249.5 799.5 l 1
 249.5 550.5 l 1
 0.5 550.5 l 1
0 550 m 1
 0 800 l 1
 250 800 l 1
 250 550 l 1
 0 550 l 1
249.5 300 m 1
 249.5 299.5 l 1
 250 299.5 l 1
 500 299.5 l 1
 500.5 299.5 l 1
 500.5 300 l 1
 500.5 550 l 1
 500.5 550.5 l 1
 500 550.5 l 1
 250 550.5 l 1
 249.5 550.5 l 1
 249.5 550 l 1
 249.5 300 l 1
250.5 300.5 m 1
 250.5 549.5 l 1
 499.5 549.5 l 1
 499.5 300.5 l 1
 250.5 300.5 l 1
250 300 m 1
 250 550 l 1
 500 550 l 1
 500 300 l 1
 250 300 l 1
-0.5 -200 m 1
 -0.5 -200.5 l 1
 0 -200.5 l 1
 250 -200.5 l 1
 250.5 -200.5 l 1
 250.5 -200 l 1
 250.5 50 l 1
 250.5 50.5 l 1
 250 50.5 l 1
 0 50.5 l 1
 -0.5 50.5 l 1
 -0.5 50 l 1
 -0.5 -200 l 1
0.5 -199.5 m 1
 0.5 49.5 l 1
 249.5 49.5 l 1
 249.5 -199.5 l 1
 0.5 -199.5 l 1
0 -200 m 1
 0 50 l 1
 250 50 l 1
 250 -200 l 1
 0 -200 l 1
249.5 -200 m 1
 249.5 -200.5 l 1
 250 -200.5 l 1
 500 -200.5 l 1
 500.5 -200.5 l 1
 500.5 -200 l 1
 500.5 50 l 1
 500.5 50.5 l 1
 500 50.5 l 1
 250 50.5 l 1
 249.5 50.5 l 1
 249.5 50 l 1
 249.5 -200 l 1
250.5 -199.5 m 1
 250.5 49.5 l 1
 499.5 49.5 l 1
 499.5 -199.5 l 1
 250.5 -199.5 l 1
250 -200 m 1
 250 50 l 1
 500 50 l 1
 500 -200 l 1
 250 -200 l 1
EndSplineSet
EndChar

StartChar: glyph148
Encoding: 404 1093524 147
Width: 0
VWidth: 0
Flags: H
LayerCount: 2
Fore
SplineSet
-0.5 550 m 1
 -0.5 549.5 l 1
 0 549.5 l 1
 250 549.5 l 1
 250.5 549.5 l 1
 250.5 550 l 1
 250.5 800 l 1
 250.5 800.5 l 1
 250 800.5 l 1
 0 800.5 l 1
 -0.5 800.5 l 1
 -0.5 800 l 1
 -0.5 550 l 1
0.5 550.5 m 1
 0.5 799.5 l 1
 249.5 799.5 l 1
 249.5 550.5 l 1
 0.5 550.5 l 1
0 550 m 1
 0 800 l 1
 250 800 l 1
 250 550 l 1
 0 550 l 1
249.5 300 m 1
 249.5 299.5 l 1
 250 299.5 l 1
 500 299.5 l 1
 500.5 299.5 l 1
 500.5 300 l 1
 500.5 550 l 1
 500.5 550.5 l 1
 500 550.5 l 1
 250 550.5 l 1
 249.5 550.5 l 1
 249.5 550 l 1
 249.5 300 l 1
250.5 300.5 m 1
 250.5 549.5 l 1
 499.5 549.5 l 1
 499.5 300.5 l 1
 250.5 300.5 l 1
250 300 m 1
 250 550 l 1
 500 550 l 1
 500 300 l 1
 250 300 l 1
249.5 50 m 1
 249.5 49.5 l 1
 250 49.5 l 1
 500 49.5 l 1
 500.5 49.5 l 1
 500.5 50 l 1
 500.5 300 l 1
 500.5 300.5 l 1
 500 300.5 l 1
 250 300.5 l 1
 249.5 300.5 l 1
 249.5 300 l 1
 249.5 50 l 1
250.5 50.5 m 1
 250.5 299.5 l 1
 499.5 299.5 l 1
 499.5 50.5 l 1
 250.5 50.5 l 1
250 50 m 1
 250 300 l 1
 500 300 l 1
 500 50 l 1
 250 50 l 1
EndSplineSet
EndChar

StartChar: glyph149
Encoding: 405 1093525 148
Width: 0
VWidth: 0
Flags: H
LayerCount: 2
Fore
SplineSet
-0.5 550 m 1
 -0.5 549.5 l 1
 0 549.5 l 1
 250 549.5 l 1
 250.5 549.5 l 1
 250.5 550 l 1
 250.5 800 l 1
 250.5 800.5 l 1
 250 800.5 l 1
 0 800.5 l 1
 -0.5 800.5 l 1
 -0.5 800 l 1
 -0.5 550 l 1
0.5 550.5 m 1
 0.5 799.5 l 1
 249.5 799.5 l 1
 249.5 550.5 l 1
 0.5 550.5 l 1
0 550 m 1
 0 800 l 1
 250 800 l 1
 250 550 l 1
 0 550 l 1
249.5 300 m 1
 249.5 299.5 l 1
 250 299.5 l 1
 500 299.5 l 1
 500.5 299.5 l 1
 500.5 300 l 1
 500.5 550 l 1
 500.5 550.5 l 1
 500 550.5 l 1
 250 550.5 l 1
 249.5 550.5 l 1
 249.5 550 l 1
 249.5 300 l 1
250.5 300.5 m 1
 250.5 549.5 l 1
 499.5 549.5 l 1
 499.5 300.5 l 1
 250.5 300.5 l 1
250 300 m 1
 250 550 l 1
 500 550 l 1
 500 300 l 1
 250 300 l 1
249.5 50 m 1
 249.5 49.5 l 1
 250 49.5 l 1
 500 49.5 l 1
 500.5 49.5 l 1
 500.5 50 l 1
 500.5 300 l 1
 500.5 300.5 l 1
 500 300.5 l 1
 250 300.5 l 1
 249.5 300.5 l 1
 249.5 300 l 1
 249.5 50 l 1
250.5 50.5 m 1
 250.5 299.5 l 1
 499.5 299.5 l 1
 499.5 50.5 l 1
 250.5 50.5 l 1
250 50 m 1
 250 300 l 1
 500 300 l 1
 500 50 l 1
 250 50 l 1
249.5 -200 m 1
 249.5 -200.5 l 1
 250 -200.5 l 1
 500 -200.5 l 1
 500.5 -200.5 l 1
 500.5 -200 l 1
 500.5 50 l 1
 500.5 50.5 l 1
 500 50.5 l 1
 250 50.5 l 1
 249.5 50.5 l 1
 249.5 50 l 1
 249.5 -200 l 1
250.5 -199.5 m 1
 250.5 49.5 l 1
 499.5 49.5 l 1
 499.5 -199.5 l 1
 250.5 -199.5 l 1
250 -200 m 1
 250 50 l 1
 500 50 l 1
 500 -200 l 1
 250 -200 l 1
EndSplineSet
EndChar

StartChar: glyph150
Encoding: 406 1093526 149
Width: 0
VWidth: 0
Flags: H
LayerCount: 2
Fore
SplineSet
-0.5 550 m 1
 -0.5 549.5 l 1
 0 549.5 l 1
 250 549.5 l 1
 250.5 549.5 l 1
 250.5 550 l 1
 250.5 800 l 1
 250.5 800.5 l 1
 250 800.5 l 1
 0 800.5 l 1
 -0.5 800.5 l 1
 -0.5 800 l 1
 -0.5 550 l 1
0.5 550.5 m 1
 0.5 799.5 l 1
 249.5 799.5 l 1
 249.5 550.5 l 1
 0.5 550.5 l 1
0 550 m 1
 0 800 l 1
 250 800 l 1
 250 550 l 1
 0 550 l 1
249.5 300 m 1
 249.5 299.5 l 1
 250 299.5 l 1
 500 299.5 l 1
 500.5 299.5 l 1
 500.5 300 l 1
 500.5 550 l 1
 500.5 550.5 l 1
 500 550.5 l 1
 250 550.5 l 1
 249.5 550.5 l 1
 249.5 550 l 1
 249.5 300 l 1
250.5 300.5 m 1
 250.5 549.5 l 1
 499.5 549.5 l 1
 499.5 300.5 l 1
 250.5 300.5 l 1
250 300 m 1
 250 550 l 1
 500 550 l 1
 500 300 l 1
 250 300 l 1
249.5 50 m 1
 249.5 49.5 l 1
 250 49.5 l 1
 500 49.5 l 1
 500.5 49.5 l 1
 500.5 50 l 1
 500.5 300 l 1
 500.5 300.5 l 1
 500 300.5 l 1
 250 300.5 l 1
 249.5 300.5 l 1
 249.5 300 l 1
 249.5 50 l 1
250.5 50.5 m 1
 250.5 299.5 l 1
 499.5 299.5 l 1
 499.5 50.5 l 1
 250.5 50.5 l 1
250 50 m 1
 250 300 l 1
 500 300 l 1
 500 50 l 1
 250 50 l 1
-0.5 -200 m 1
 -0.5 -200.5 l 1
 0 -200.5 l 1
 250 -200.5 l 1
 250.5 -200.5 l 1
 250.5 -200 l 1
 250.5 50 l 1
 250.5 50.5 l 1
 250 50.5 l 1
 0 50.5 l 1
 -0.5 50.5 l 1
 -0.5 50 l 1
 -0.5 -200 l 1
0.5 -199.5 m 1
 0.5 49.5 l 1
 249.5 49.5 l 1
 249.5 -199.5 l 1
 0.5 -199.5 l 1
0 -200 m 1
 0 50 l 1
 250 50 l 1
 250 -200 l 1
 0 -200 l 1
EndSplineSet
EndChar

StartChar: glyph151
Encoding: 407 1093527 150
Width: 0
VWidth: 0
Flags: H
LayerCount: 2
Fore
SplineSet
-0.5 550 m 1
 -0.5 549.5 l 1
 0 549.5 l 1
 250 549.5 l 1
 250.5 549.5 l 1
 250.5 550 l 1
 250.5 800 l 1
 250.5 800.5 l 1
 250 800.5 l 1
 0 800.5 l 1
 -0.5 800.5 l 1
 -0.5 800 l 1
 -0.5 550 l 1
0.5 550.5 m 1
 0.5 799.5 l 1
 249.5 799.5 l 1
 249.5 550.5 l 1
 0.5 550.5 l 1
0 550 m 1
 0 800 l 1
 250 800 l 1
 250 550 l 1
 0 550 l 1
249.5 300 m 1
 249.5 299.5 l 1
 250 299.5 l 1
 500 299.5 l 1
 500.5 299.5 l 1
 500.5 300 l 1
 500.5 550 l 1
 500.5 550.5 l 1
 500 550.5 l 1
 250 550.5 l 1
 249.5 550.5 l 1
 249.5 550 l 1
 249.5 300 l 1
250.5 300.5 m 1
 250.5 549.5 l 1
 499.5 549.5 l 1
 499.5 300.5 l 1
 250.5 300.5 l 1
250 300 m 1
 250 550 l 1
 500 550 l 1
 500 300 l 1
 250 300 l 1
249.5 50 m 1
 249.5 49.5 l 1
 250 49.5 l 1
 500 49.5 l 1
 500.5 49.5 l 1
 500.5 50 l 1
 500.5 300 l 1
 500.5 300.5 l 1
 500 300.5 l 1
 250 300.5 l 1
 249.5 300.5 l 1
 249.5 300 l 1
 249.5 50 l 1
250.5 50.5 m 1
 250.5 299.5 l 1
 499.5 299.5 l 1
 499.5 50.5 l 1
 250.5 50.5 l 1
250 50 m 1
 250 300 l 1
 500 300 l 1
 500 50 l 1
 250 50 l 1
-0.5 -200 m 1
 -0.5 -200.5 l 1
 0 -200.5 l 1
 250 -200.5 l 1
 250.5 -200.5 l 1
 250.5 -200 l 1
 250.5 50 l 1
 250.5 50.5 l 1
 250 50.5 l 1
 0 50.5 l 1
 -0.5 50.5 l 1
 -0.5 50 l 1
 -0.5 -200 l 1
0.5 -199.5 m 1
 0.5 49.5 l 1
 249.5 49.5 l 1
 249.5 -199.5 l 1
 0.5 -199.5 l 1
0 -200 m 1
 0 50 l 1
 250 50 l 1
 250 -200 l 1
 0 -200 l 1
249.5 -200 m 1
 249.5 -200.5 l 1
 250 -200.5 l 1
 500 -200.5 l 1
 500.5 -200.5 l 1
 500.5 -200 l 1
 500.5 50 l 1
 500.5 50.5 l 1
 500 50.5 l 1
 250 50.5 l 1
 249.5 50.5 l 1
 249.5 50 l 1
 249.5 -200 l 1
250.5 -199.5 m 1
 250.5 49.5 l 1
 499.5 49.5 l 1
 499.5 -199.5 l 1
 250.5 -199.5 l 1
250 -200 m 1
 250 50 l 1
 500 50 l 1
 500 -200 l 1
 250 -200 l 1
EndSplineSet
EndChar

StartChar: glyph152
Encoding: 408 1093528 151
Width: 0
VWidth: 0
Flags: H
LayerCount: 2
Fore
SplineSet
-0.5 550 m 1
 -0.5 549.5 l 1
 0 549.5 l 1
 250 549.5 l 1
 250.5 549.5 l 1
 250.5 550 l 1
 250.5 800 l 1
 250.5 800.5 l 1
 250 800.5 l 1
 0 800.5 l 1
 -0.5 800.5 l 1
 -0.5 800 l 1
 -0.5 550 l 1
0.5 550.5 m 1
 0.5 799.5 l 1
 249.5 799.5 l 1
 249.5 550.5 l 1
 0.5 550.5 l 1
0 550 m 1
 0 800 l 1
 250 800 l 1
 250 550 l 1
 0 550 l 1
249.5 300 m 1
 249.5 299.5 l 1
 250 299.5 l 1
 500 299.5 l 1
 500.5 299.5 l 1
 500.5 300 l 1
 500.5 550 l 1
 500.5 550.5 l 1
 500 550.5 l 1
 250 550.5 l 1
 249.5 550.5 l 1
 249.5 550 l 1
 249.5 300 l 1
250.5 300.5 m 1
 250.5 549.5 l 1
 499.5 549.5 l 1
 499.5 300.5 l 1
 250.5 300.5 l 1
250 300 m 1
 250 550 l 1
 500 550 l 1
 500 300 l 1
 250 300 l 1
-0.5 50 m 1
 -0.5 49.5 l 1
 0 49.5 l 1
 250 49.5 l 1
 250.5 49.5 l 1
 250.5 50 l 1
 250.5 300 l 1
 250.5 300.5 l 1
 250 300.5 l 1
 0 300.5 l 1
 -0.5 300.5 l 1
 -0.5 300 l 1
 -0.5 50 l 1
0.5 50.5 m 1
 0.5 299.5 l 1
 249.5 299.5 l 1
 249.5 50.5 l 1
 0.5 50.5 l 1
0 50 m 1
 0 300 l 1
 250 300 l 1
 250 50 l 1
 0 50 l 1
EndSplineSet
EndChar

StartChar: glyph153
Encoding: 409 1093529 152
Width: 0
VWidth: 0
Flags: H
LayerCount: 2
Fore
SplineSet
-0.5 550 m 1
 -0.5 549.5 l 1
 0 549.5 l 1
 250 549.5 l 1
 250.5 549.5 l 1
 250.5 550 l 1
 250.5 800 l 1
 250.5 800.5 l 1
 250 800.5 l 1
 0 800.5 l 1
 -0.5 800.5 l 1
 -0.5 800 l 1
 -0.5 550 l 1
0.5 550.5 m 1
 0.5 799.5 l 1
 249.5 799.5 l 1
 249.5 550.5 l 1
 0.5 550.5 l 1
0 550 m 1
 0 800 l 1
 250 800 l 1
 250 550 l 1
 0 550 l 1
249.5 300 m 1
 249.5 299.5 l 1
 250 299.5 l 1
 500 299.5 l 1
 500.5 299.5 l 1
 500.5 300 l 1
 500.5 550 l 1
 500.5 550.5 l 1
 500 550.5 l 1
 250 550.5 l 1
 249.5 550.5 l 1
 249.5 550 l 1
 249.5 300 l 1
250.5 300.5 m 1
 250.5 549.5 l 1
 499.5 549.5 l 1
 499.5 300.5 l 1
 250.5 300.5 l 1
250 300 m 1
 250 550 l 1
 500 550 l 1
 500 300 l 1
 250 300 l 1
-0.5 50 m 1
 -0.5 49.5 l 1
 0 49.5 l 1
 250 49.5 l 1
 250.5 49.5 l 1
 250.5 50 l 1
 250.5 300 l 1
 250.5 300.5 l 1
 250 300.5 l 1
 0 300.5 l 1
 -0.5 300.5 l 1
 -0.5 300 l 1
 -0.5 50 l 1
0.5 50.5 m 1
 0.5 299.5 l 1
 249.5 299.5 l 1
 249.5 50.5 l 1
 0.5 50.5 l 1
0 50 m 1
 0 300 l 1
 250 300 l 1
 250 50 l 1
 0 50 l 1
249.5 -200 m 1
 249.5 -200.5 l 1
 250 -200.5 l 1
 500 -200.5 l 1
 500.5 -200.5 l 1
 500.5 -200 l 1
 500.5 50 l 1
 500.5 50.5 l 1
 500 50.5 l 1
 250 50.5 l 1
 249.5 50.5 l 1
 249.5 50 l 1
 249.5 -200 l 1
250.5 -199.5 m 1
 250.5 49.5 l 1
 499.5 49.5 l 1
 499.5 -199.5 l 1
 250.5 -199.5 l 1
250 -200 m 1
 250 50 l 1
 500 50 l 1
 500 -200 l 1
 250 -200 l 1
EndSplineSet
EndChar

